<?xml version="1.0" encoding="UTF-8" standalone="no"?>
<svg
     xmlns:dc="http://purl.org/dc/elements/1.1/"
     xmlns:cc="http://creativecommons.org/ns#"
     xmlns:rdf="http://www.w3.org/1999/02/22-rdf-syntax-ns#"
     xmlns:svg="http://www.w3.org/2000/svg"
     xmlns="http://www.w3.org/2000/svg"
     xmlns:sodipodi="http://sodipodi.sourceforge.net/DTD/sodipodi-0.dtd"
     xmlns:inkscape="http://www.inkscape.org/namespaces/inkscape"
     version="1.1"
     x="0px"
     y="0px"
     viewBox="0 0 102.31481 102.31481"
     id="svg30"
     sodipodi:docname="mikenakis-benchmark.svg"
     width="102.31481"
     height="102.31481"
     inkscape:version="1.0.2 (e86c870879, 2021-01-15, custom)">
    <metadata
         id="metadata36">
        <rdf:RDF>
            <cc:Work
                 rdf:about="">
                <dc:format>image/svg+xml</dc:format>
                <dc:type
                     rdf:resource="http://purl.org/dc/dcmitype/StillImage" />
                <dc:title></dc:title>
            </cc:Work>
        </rdf:RDF>
    </metadata>
    <defs
         id="defs34" />
    <sodipodi:namedview
         pagecolor="#c0adac"
         bordercolor="#666666"
         borderopacity="1"
         objecttolerance="10"
         gridtolerance="10"
         guidetolerance="10"
         inkscape:pageopacity="0"
         inkscape:pageshadow="2"
         inkscape:window-width="640"
         inkscape:window-height="480"
         id="namedview32"
         showgrid="false"
         fit-margin-top="0"
         fit-margin-left="0"
         fit-margin-right="0"
         fit-margin-bottom="0"
         inkscape:zoom="9.5000905"
         inkscape:cx="51.157406"
         inkscape:cy="51.157406"
         inkscape:current-layer="svg30" />
    <circle
         style="fill:#cccccc;stroke-width:18.8976"
         id="path861"
         cx="51.157406"
         cy="51.157406"
         r="51.157406" />
    <circle
         style="fill:none;stroke:#000000;stroke-width:2;stroke-miterlimit:4;stroke-dasharray:none;stroke-opacity:1"
         id="path861-9"
         cx="51.157406"
         cy="51.157406"
         r="48.473221" />
    <g
         id="g24"
         transform="translate(1.1574059,-1.3425941)">
        <path
             d="M 50,37 C 37.2,37 26.8,47.4 26.8,60.2 26.8,73 37.2,83.5 50,83.5 62.8,83.5 73.2,73 73.2,60.2 73.2,47.4 62.8,37 50,37 Z m 0,44.7 C 38.2,81.7 28.6,72.1 28.6,60.3 28.6,48.8 37.6,39.5 49,38.9 V 61.3 H 71.5 C 70.9,72.6 61.5,81.7 50,81.7 Z"
             id="path2" />
        <path
             d="M 50,30.5 C 33.6,30.5 20.2,43.8 20.2,60.3 20.2,76.8 33.6,90 50,90 66.4,90 79.8,76.7 79.8,60.2 79.8,43.7 66.4,30.5 50,30.5 Z m 0,54.7 c -13.8,0 -25,-11.2 -25,-25 0,-13.8 11.2,-25 25,-25 13.8,0 25,11.2 25,25 0,13.8 -11.2,25 -25,25 z"
             id="path4" />
        <path
             d="m 37.4,49 c 0.3,0.3 0.9,0.3 1.2,0 0,0 0.1,-0.1 0.1,-0.1 0.3,-0.3 0.3,-0.9 0,-1.2 l -1.8,-1.8 c -0.3,-0.3 -0.9,-0.3 -1.2,0 L 35.6,46 c -0.3,0.3 -0.3,0.8 0,1.2 z"
             id="path6" />
        <path
             d="m 33.1,59.5 h -2.5 c -0.5,0 -0.9,0.3 -0.9,0.8 v 0.1 c 0,0.5 0.4,0.8 0.9,0.8 h 2.5 c 0.5,0 0.8,-0.4 0.8,-0.8 0,0 0,0 0,-0.1 0,-0.5 -0.3,-0.8 -0.8,-0.8 z"
             id="path8" />
        <path
             d="m 38.6,71.6 c -0.3,-0.3 -0.9,-0.3 -1.2,0 l -1.8,1.8 c -0.3,0.3 -0.3,0.8 0,1.2 l 0.1,0.1 c 0.3,0.3 0.9,0.3 1.2,0 l 1.8,-1.8 C 39,72.5 39,72 38.6,71.6 c 0.1,0 0,0 0,0 z"
             id="path10" />
        <path
             d="m 62.6,71.6 c -0.3,-0.3 -0.9,-0.3 -1.2,0 0,0 -0.1,0.1 -0.1,0.1 -0.3,0.3 -0.3,0.9 0,1.2 l 1.8,1.8 c 0.3,0.3 0.8,0.3 1.2,0 l 0.1,-0.1 c 0.3,-0.3 0.3,-0.9 0,-1.2 z"
             id="path12" />
        <path
             d="m 50,76.3 c -0.1,0 -0.1,0 0,0 -0.6,0 -0.9,0.4 -0.9,0.8 v 2.5 c 0,0.5 0.4,0.9 0.8,0.9 H 50 c 0.5,0 0.8,-0.4 0.8,-0.9 v -2.5 c 0,-0.4 -0.4,-0.8 -0.8,-0.8 z"
             id="path14" />
        <path
             d="m 25.6,37.9 0.4,-0.4 1.1,1.1 c 0.2,-0.2 0.4,-0.4 0.6,-0.7 0.6,-0.6 1.3,-1.2 2,-1.8 L 28.5,35 28.9,34.6 c 0.7,-0.7 0.7,-1.8 0,-2.5 -0.7,-0.7 -1.8,-0.7 -2.5,0 L 23,35.4 c -0.7,0.7 -0.7,1.8 0,2.5 0.7,0.7 1.9,0.7 2.6,0 z"
             id="path16" />
        <path
             d="m 72.3,37.9 c 0.2,0.2 0.4,0.4 0.6,0.6 l 1.1,-1.1 0.4,0.4 c 0.7,0.7 1.8,0.7 2.5,0 0.7,-0.7 0.7,-1.8 0,-2.5 L 73.5,32 c -0.7,-0.7 -1.8,-0.7 -2.5,0 -0.7,0.7 -0.7,1.8 0,2.5 l 0.4,0.4 -1.1,1.1 c 0.7,0.7 1.4,1.3 2,1.9 z"
             id="path18" />
        <path
             d="m 44.9,18.9 c -0.2,-0.5 -0.3,-1.1 -0.3,-1.7 0,-3 2.4,-5.4 5.4,-5.4 3,0 5.4,2.4 5.4,5.4 0,0.6 -0.1,1.2 -0.3,1.7 0.5,0.4 1,0.9 1.4,1.4 0.4,-0.9 0.7,-2 0.7,-3.1 0,-3.9 -3.2,-7.1 -7.1,-7.1 -3.9,0 -7.1,3.2 -7.1,7.1 0,1.1 0.3,2.2 0.7,3.2 0.2,-0.7 0.6,-1.2 1.2,-1.5 z"
             id="path20" />
        <path
             d="m 55.3,22.8 v 0 c 0,-1.7 -1.3,-3 -3,-3 h -4.8 c -1.6,0 -3,1.4 -3,3 v 0 c 0,1.6 1.4,3 3,3 v 3.1 c 0.8,-0.1 1.6,-0.1 2.4,-0.1 0.8,0 1.6,0 2.4,0.1 v -3.1 0 c 1.7,-0.1 3,-1.4 3,-3 z"
             id="path22" />
    </g>
</svg>
