<?xml version="1.0" encoding="UTF-8" standalone="no"?>
<svg
     xmlns:dc="http://purl.org/dc/elements/1.1/"
     xmlns:cc="http://creativecommons.org/ns#"
     xmlns:rdf="http://www.w3.org/1999/02/22-rdf-syntax-ns#"
     xmlns:svg="http://www.w3.org/2000/svg"
     xmlns="http://www.w3.org/2000/svg"
     xmlns:sodipodi="http://sodipodi.sourceforge.net/DTD/sodipodi-0.dtd"
     xmlns:inkscape="http://www.inkscape.org/namespaces/inkscape"
     data-name="Layer 1"
     viewBox="0 0 114.6941 114.6941"
     x="0px"
     y="0px"
     version="1.1"
     id="svg16"
     sodipodi:docname="mikenakis-kit.svg"
     inkscape:version="1.0.2 (e86c870879, 2021-01-15, custom)"
     width="114.6941"
     height="114.6941">
    <metadata
         id="metadata22">
        <rdf:RDF>
            <cc:Work
                 rdf:about="">
                <dc:format>image/svg+xml</dc:format>
                <dc:type
                     rdf:resource="http://purl.org/dc/dcmitype/StillImage" />
                <dc:title>Camping</dc:title>
            </cc:Work>
        </rdf:RDF>
    </metadata>
    <defs
         id="defs20" />
    <sodipodi:namedview
         pagecolor="#ebcaca"
         bordercolor="#666666"
         borderopacity="1"
         objecttolerance="10"
         gridtolerance="10"
         guidetolerance="10"
         inkscape:pageopacity="0"
         inkscape:pageshadow="2"
         inkscape:window-width="640"
         inkscape:window-height="480"
         id="namedview18"
         showgrid="false"
         inkscape:zoom="8.9911498"
         inkscape:cx="92.016977"
         inkscape:cy="60.234997"
         inkscape:current-layer="svg16"
         inkscape:document-rotation="0"
         fit-margin-top="0"
         fit-margin-left="0"
         fit-margin-right="0"
         fit-margin-bottom="0" />
    <circle
         style="fill:#cccccc;fill-opacity:1;stroke:none;stroke-width:2;stroke-miterlimit:4;stroke-dasharray:none;stroke-opacity:1"
         id="circle"
         cx="57.34705"
         cy="57.34705"
         r="57.34705" />
    <g
         id="g842"
         transform="matrix(0.94009602,0,0,0.94009602,4.8183279,6.3787857)"
         style="stroke-width:1.06372">
        <text
             x="13.075107"
             y="79.742126"
             fill="#000000"
             font-size="2.06804px"
             font-weight="bold"
             font-family="'Helvetica Neue', Helvetica, Arial-Unicode, Arial, Sans-serif"
             id="copyright"
             style="fill:#000000;fill-opacity:0;stroke-width:1.06372">Created by MikeNakis; based on work by Mariah Gardziola from the Noun Project.</text>
        <path
             d="m 97.438767,54.376022 -0.57,-21.34 c 0,-0.26 -0.24,-6.49 -4.69,-9.47 -3.18,-2.15 -7.33,3.84 -8.7,5.81 l -0.1,0.14 c -0.58,0.83 -1.38,2.63 -0.69,4.07 0.552859,1.024068 1.6481,1.636 2.81,1.57 l 3.42,0.08 v 7.89 c -0.05058,0.384037 -0.23466,0.738038 -0.52,1 -0.221921,0.103206 -0.478079,0.103206 -0.7,0 -0.87,-0.31 -0.92,-0.86 -0.63,-2.73 0.07736,-0.446826 0.130769,-0.89747 0.16,-1.35 0.173295,-0.944681 -0.216739,-1.904163 -1,-2.46 -0.723003,-0.434783 -1.626997,-0.434783 -2.35,0 -1.16,0.64 -2.37,2.33 -2.41,5.13 -2.84,-2.69 -6.09,-5.74 -9.3,-8.76 l 0.29,0.12 c 0.25505,0.111313 0.54495,0.111313 0.8,0 0.246638,-0.117393 0.434521,-0.330568 0.52,-0.59 l 0.66,-2 1.53,0.69 c 0.262265,0.110004 0.557735,0.110004 0.82,0 0.260564,-0.119689 0.457214,-0.345472 0.54,-0.62 l 0.71,-2.32 1.52,0.64 c 0.533417,0.221671 1.143169,-0.0534 1.33,-0.6 l 0.66,-2 1.53,0.69 c 0.45326,0.200642 0.985099,0.03896 1.25,-0.38 l 1.85,-3 c 0.0056,-0.03645 0.0056,-0.07355 0,-0.11 0.03048,-0.06046 0.05397,-0.12421 0.07,-0.19 0.0041,-0.06327 0.0041,-0.126732 0,-0.19 0.0047,-0.06325 0.0047,-0.126754 0,-0.19 -0.012,-0.0612 -0.02872,-0.121378 -0.05,-0.18 -0.01633,-0.06098 -0.04342,-0.11855 -0.08,-0.17 -0.03092,-0.05957 -0.07147,-0.113632 -0.12,-0.16 0,0 0,-0.07 -0.08,-0.1 -1.772928,-1.291291 -3.928121,-1.949822 -6.12,-1.87 -3.74,0 -8.71,2.37 -9,2.49 l -6,3.16 c -2.09,-1.94 -4,-3.71 -5.56,-5.14 -9,-8.21 -16.31,-8.68 -16.57,-8.7 -0.485864,-0.0088 -0.907751,0.332892 -1,0.81 -0.06,0.31 -1.29,7.56 11.51,19.23 l -19.272838,10.699963 2.762838,-5.029963 c 6.67,-11.49 4,-16.44 3.86,-16.65 -0.248301,-0.432462 -0.777269,-0.615895 -1.24,-0.43 -0.19,0.08 -4.88,2 -8.89,9.48 l -3.43,6.25 c -0.65,1.18 -1.34,2.44 -2,3.72 -0.21,0.17 -0.7,0.46 -1.92,-0.09 -1.68,-0.76 -1,-5.95 0.66,-9.73 1.79,-4 -1.19,-8.64 -1.32,-8.83 -0.183983,-0.279385 -0.495481,-0.448269 -0.83,-0.45 h -5 c -0.492179,-0.0072 -0.916372,0.344924 -1,0.83 -0.677638,4.855316 -0.915271,9.761923 -0.71,14.66 l 1.04,16.68 c 0.02573,0.329829 0.212916,0.625586 0.5,0.79 -0.857021,1.388557 -1.310617,2.98826 -1.31,4.62 v 0.61 c 0.0055,4.914676 3.985333,8.898984 8.9,8.91 h 30.42 l -1,1 c -0.37163,0.406353 -0.344807,1.036687 0.06,1.41 l 0.45,0.41 c -1.51,1.16 -3.14,3.22 -2.06,5.55 0.27,0.59 0.44,1 0.55,1.31 -0.366238,-0.164083 -0.723417,-0.34768 -1.07,-0.55 -1,-0.57 -2.5,-1.25 -3.56,-0.51 -1.06,0.74 -0.85,2.52 -0.64,3.78 0.08,0.45 0.21,0.94 0.33,1.4 0.06,0.25 0.15,0.58 0.22,0.87 l -0.46,-0.26 c -2.09,-1.28 -3.57,-1.53 -4.53,-0.77 -0.96,0.76 -1,1.88 -0.41,3.59 0.16,0.49 0.34,1 0.51,1.42 0.07,0.21 0.16,0.44 0.24,0.67 l -0.2,-0.11 c -2.42,-1.36 -4,-2 -5.07,-1.12 -1.07,0.88 -0.65,2.39 -0.23,3.67 0.12,0.38 0.25,0.74 0.36,1.08 0.17,0.51 0.36,1.07 0.49,1.51 -0.26,-0.12 -0.61,-0.29 -1.08,-0.55 -0.485857,-0.266528 -1.095808,-0.08713 -1.36,0.4 -0.259749,0.483518 -0.08123,1.08603 0.4,1.35 0.828271,0.538969 1.768995,0.88105 2.75,1 0.338221,0.0075 0.668016,-0.105956 0.93,-0.32 0.89,-0.75 0.49,-1.93 -0.24,-4.07 l -0.35,-1.06 c -0.17175,-0.459733 -0.279427,-0.940912 -0.32,-1.43 0.971369,0.270788 1.895449,0.688985 2.74,1.24 1,0.57 2.18,1.13 3,0.43 0.82,-0.7 0.41,-1.86 -0.18,-3.43 -0.16,-0.43 -0.33,-0.88 -0.48,-1.34 -0.168529,-0.444215 -0.256571,-0.914903 -0.26,-1.39 0.1,0 0.71,0 2.26,0.9 1,0.61 2.14,1.14 3,0.51 0.86,-0.63 0.59,-2 0.22,-3.34 -0.11,-0.42 -0.22,-0.84 -0.29,-1.21 -0.09947,-0.56097 -0.143018,-1.130428 -0.13,-1.7 0.49936,0.102362 0.974553,0.299228 1.4,0.58 1.72,1 3,1.41 3.77,0.65 0.77,-0.76 0.36,-2.24 -0.46,-4 -0.66,-1.44 1,-2.78 1.75,-3.33 l 1.29,1.19 c 0.183398,0.166698 0.422164,0.259353 0.67,0.26 -0.19,0.68 -0.38,1.39 -0.58,2.13 -5,18.48 -4.62,25.509998 -4.6,25.799998 0.02416,0.41934 0.307805,0.77889 0.71,0.9 0.09308,0.01 0.186919,0.01 0.28,0 0.314757,0 0.703066,-0.20072 0.89192,-0.45252 6.730998,-10.869397 10.395451,-23.365262 10.545451,-23.945262 l 2.857474,-10.10969 22.155155,-0.05253 c 4.918573,-0.0055 8.904489,-3.991427 8.91,-8.91 v -0.61 c -0.0019,-1.691022 -0.487693,-3.346182 -1.4,-4.77 0.153521,-0.167845 0.245233,-0.383014 0.26,-0.61 z m -14,-11.46 c -0.138419,-1.286443 0.313932,-2.566264 1.23,-3.48 0.123278,-0.113835 0.282443,-0.181038 0.45,-0.19 0.103419,0.196329 0.138599,0.42148 0.1,0.64 0,0.38 -0.09,0.78 -0.15,1.18 -0.25,1.59 -0.61,4 1.92,4.91 0.789687,0.341938 1.694605,0.290016 2.44,-0.14 0.809786,-0.598574 1.340618,-1.501349 1.47,-2.5 v -9.08 c 0,-0.552285 -0.447715,-1 -1,-1 l -4.36,-0.1 c -0.42,0 -1,-0.12 -1.1,-0.44 -0.09627,-0.737072 0.113306,-1.481433 0.58,-2.06 l 0.1,-0.14 c 3.47,-5 5.37,-5.68 6,-5.29 3.58,2.4 3.79,7.81 3.8,7.87 l 0.53,19.87 c -1.488667,-1.242001 -3.34326,-1.96206 -5.28,-2.05 l -6.5,-6.06 c -0.135885,-0.638264 -0.212875,-1.287657 -0.23,-1.94 z m -7.77,8 -12.47,-11.26 0.59,-1.95 1.52,0.64 c 0.25505,0.111313 0.54495,0.111313 0.8,0 0.256311,-0.115238 0.452304,-0.333008 0.54,-0.6 l 0.65,-2 1.53,0.68 c 0.260766,0.117219 0.559234,0.117219 0.82,0 0.264377,-0.117391 0.464969,-0.343512 0.55,-0.62 l 0.22,-0.73 c 6.67,6.26 13.58,12.79 16.77,15.81 z m -32.85,0 v -0.36 l 0.9,0.36 z m 18.06,-10.65 11.79,10.63 h -27.77 c 0.189995,-0.119209 0.334396,-0.29883 0.41,-0.51 l 0.66,-2 1.52,0.68 c 0.550194,0.249628 1.194394,-0.04191 1.37,-0.62 l 0.71,-2.31 1.51,0.64 c 0.539112,0.228049 1.157959,-0.05366 1.34,-0.61 l 0.66,-2 1.52,0.68 c 0.550194,0.249628 1.194394,-0.04191 1.37,-0.62 l 0.7,-2.29 1.53,0.62 c 0.25505,0.111313 0.54495,0.111313 0.8,0 0.250436,-0.115209 0.442206,-0.328689 0.53,-0.59 l 0.65,-2 z m 10.9,-14.51 c 0,0 4.78,-2.27 8.06,-2.27 1.422939,-0.02633 2.830654,0.29641 4.1,0.94 l -0.86,1.37 -1.74,-0.79 c -0.541561,-0.243408 -1.174688,0.03591 -1.36,0.6 l -0.66,2 -1.54,-0.65 c -0.260766,-0.117219 -0.559234,-0.117219 -0.82,0 -0.252999,0.126799 -0.444103,0.350355 -0.53,0.62 l -0.7,2.29 -1.5,-0.68 c -0.257915,-0.114244 -0.552085,-0.114244 -0.81,0 -0.260116,0.112966 -0.460036,0.331061 -0.55,0.6 l -0.67,2 -1.53,-0.57 c -0.25505,-0.111313 -0.54495,-0.111313 -0.8,0 -0.250808,0.121931 -0.439306,0.343054 -0.52,0.61 l -0.71,2.29 -1.5,-0.67 c -0.257915,-0.114244 -0.552085,-0.114244 -0.81,0 -0.260116,0.112966 -0.460036,0.331061 -0.55,0.6 l -0.66,2 -1.54,-0.64 c -0.257915,-0.114244 -0.552085,-0.114244 -0.81,0 -0.254613,0.11972 -0.447013,0.341161 -0.53,0.61 l -0.7,2.29 -1.54,-0.65 c -0.257915,-0.114244 -0.552085,-0.114244 -0.81,0 -0.260116,0.112966 -0.460036,0.331061 -0.55,0.6 l -0.67,2 -1.55,-0.6 c -0.542266,-0.219436 -1.156273,0.07141 -1.33,0.63 l -0.7,2.29 -1.5,-0.67 c -0.541561,-0.243408 -1.174688,0.03591 -1.36,0.6 l -0.67,2 -1.54,-0.64 c -0.542076,-0.227339 -1.162371,0.05966 -1.34,0.62 l -0.7,2.3 -1.51,-0.68 c -0.257915,-0.114244 -0.552085,-0.114244 -0.81,0 -0.256311,0.115238 -0.452304,0.333008 -0.54,0.6 l -0.67,2 -1.56,-0.62 c -0.657047,-0.261679 -1.370685,0.222761 -1.37,0.93 v 1.83 H 25.560275 c 15.724167,-8.874623 30.641779,-16.961644 46.218492,-25.09 z m -28.22,-10.37 c 2.23,0.43 7.79,2.07 14.37,8.08 1.43,1.31 3.15,2.91 5,4.65 l -8,4.17 c -9.64,-8.63 -11.17,-14.63 -11.37,-16.9 z m -14.84,23.17 c 1.33,-2.42 2.53,-4.62 3.42,-6.27 1.594927,-3.201643 3.967284,-5.9522 6.9,-8 0.3,1.8 0.26,6.14 -4.13,13.69 l -3.952848,7.514257 c -3.238635,2.256136 -5.477157,3.277227 -9.067152,5.685743 2.02,-3.83 4.64,-8.61 6.83,-12.62 z m -11.37,-14.33 h 3.61 c 0.6,1.11 2,4 0.89,6.47 -1.74,3.96 -3.18,10.75 0.35,12.35 0.487688,0.226843 1.006902,0.378562 1.54,0.45 -1.77,3.26 -3.51,6.49 -4.8,9 -0.393637,0.273298 -0.764817,0.577599 -1.11,0.91 l -1.03,-15.75 c -0.177514,-4.484173 0.0064,-8.975359 0.55,-13.43 z m 40,48.37 -1.77,-1.63 1.52,-1.65 h 2 c -0.15,0.49 -0.37,1.21 -0.63,2.08 z m 5.314845,6.178376 c 0,0.13 -3.434053,11.250658 -8.294845,20.681624 0.34,-3.69 1.36,-10.64 4.38,-21.8 1.11,-4.13 2.16,-7.54 2.41,-8.34 l 4.274845,0.05253 z M 96.608767,60.406022 c -0.0055,3.825726 -3.114286,6.921061 -6.94,6.91 h -65.69 c -3.812382,-0.0055 -6.900004,-3.097614 -6.9,-6.91 v -0.61 c -0.0013,-2.324149 1.172637,-4.49136 3.12,-5.76 v 0 c 1.112725,-0.724687 2.412097,-1.110329 3.74,-1.11 h 65.73 c 3.81011,0.0055 6.898992,3.089902 6.91,6.9 z"
             id="outline"
             sodipodi:nodetypes="ccccccccccccccccccccccccccccccccccccccccccccccccccccccccccccccccccccccccsccccsccccsccccccccccccsccccsccccsccccccccccccccccccccccccsccccccccccccccccccccccccccccccccccccccccccccccccccccccccccccccccccccccccccccccccccccccccccccccccccccccccccccccccccccccccccccccccccccscsscccc"
             style="stroke-width:1.06372" />
        <path
             d="m 17.043945,60.18767 c 0.02938,5.323134 4.392536,7.133836 6.838991,7.13335 l 66.509422,-0.0132 c 3.510108,-6.97e-4 6.358547,-2.934098 6.347724,-7.348264 -0.01082,-4.414167 -3.503501,-6.98693 -6.605858,-7.008632 l -66.547565,-0.02886 c -2.318092,0.0018 -6.572093,1.942475 -6.542714,7.26561 z"
             id="red-fill"
             sodipodi:nodetypes="csszcczc"
             style="fill:#f1003a;fill-opacity:1;stroke-width:1.06372" />
        <path
             d="m 81.243755,54.439298 v 2.05 2.05 h 2.05 2.05 v 1.5265 1.5265 h -2.05 -2.05 v 2.05 2.05 h -1.527 -1.527 v -2.05 -2.05 h -2.0495 -2.0495 v -1.5265 -1.5265 h 2.0495 2.0495 v -2.05 -2.05 h 1.527 z"
             id="cross"
             sodipodi:nodetypes="ccccccccccccccccccccccccc"
             style="fill:#ffffff;fill-opacity:1;stroke:none;stroke-width:1.06372;stroke-opacity:1" />
        <path
             d="m 83.438767,42.916022 c -0.13842,-1.286443 0.31393,-2.566264 1.23,-3.48 0.12328,-0.113835 0.28244,-0.181038 0.45,-0.19 0.10342,0.196329 0.1386,0.42148 0.1,0.64 0,0.38 -0.09,0.78 -0.15,1.18 -0.25,1.59 -0.61,4 1.92,4.91 0.78969,0.341938 1.6946,0.290016 2.44,-0.14 0.80978,-0.598574 1.34062,-1.501349 1.47,-2.5 v -9.08 c 0,-0.552285 -0.44772,-1 -1,-1 l -4.36,-0.1 c -0.42,0 -1,-0.12 -1.1,-0.44 -0.0963,-0.737072 0.1133,-1.481433 0.58,-2.06 l 0.1,-0.14 c 3.47,-5 5.37,-5.68 6,-5.29 3.58,2.4 3.79,7.81 3.8,7.87 l 0.53,19.87 c -1.48867,-1.242001 -3.34326,-1.96206 -5.28,-2.05 l -6.5,-6.06 c -0.13589,-0.638264 -0.21288,-1.287657 -0.23,-1.94 z m -7.77,8 -12.47,-11.26 0.59,-1.95 1.52,0.64 c 0.25505,0.111313 0.54495,0.111313 0.8,0 0.25631,-0.115238 0.4523,-0.333008 0.54,-0.6 l 0.65,-2 1.53,0.68 c 0.26076,0.117219 0.55923,0.117219 0.82,0 0.26438,-0.117391 0.46497,-0.343512 0.55,-0.62 l 0.22,-0.73 c 6.67,6.26 13.58,12.79 16.77,15.81 z m -3.89,-25.16 c 0,0 4.78,-2.27 8.06,-2.27 1.42294,-0.02633 2.83065,0.29641 4.1,0.94 l -0.86,1.37 -1.74,-0.79 c -0.54156,-0.243408 -1.17469,0.03591 -1.36,0.6 l -0.66,2 -1.54,-0.65 c -0.26077,-0.117219 -0.55924,-0.117219 -0.82,0 -0.253,0.126799 -0.4441,0.350355 -0.53,0.62 l -0.7,2.29 -1.5,-0.68 c -0.25792,-0.114244 -0.55209,-0.114244 -0.81,0 -0.26012,0.112966 -0.46004,0.331061 -0.55,0.6 l -0.67,2 -1.53,-0.57 c -0.25505,-0.111313 -0.54495,-0.111313 -0.8,0 -0.25081,0.121931 -0.43931,0.343054 -0.52,0.61 l -0.71,2.29 -1.5,-0.67 c -0.25792,-0.114244 -0.55209,-0.114244 -0.81,0 -0.26012,0.112966 -0.46004,0.331061 -0.55,0.6 l -0.66,2 -1.54,-0.64 c -0.25792,-0.114244 -0.55209,-0.114244 -0.81,0 -0.25461,0.11972 -0.44701,0.341161 -0.53,0.61 l -0.7,2.29 -1.54,-0.65 c -0.25792,-0.114244 -0.55209,-0.114244 -0.81,0 -0.26012,0.112966 -0.46004,0.331061 -0.55,0.6 l -0.67,2 -1.55,-0.6 c -0.54227,-0.219436 -1.15627,0.07141 -1.33,0.63 l -0.7,2.29 -1.5,-0.67 c -0.54156,-0.243408 -1.17469,0.03591 -1.36,0.6 l -0.67,2 -1.54,-0.64 c -0.54208,-0.227339 -1.16237,0.05966 -1.34,0.62 l -0.7,2.3 -1.51,-0.68 c -0.25792,-0.114244 -0.55209,-0.114244 -0.81,0 -0.25631,0.115238 -0.45231,0.333008 -0.54,0.6 l -0.67,2 -1.56,-0.62 c -0.65705,-0.261679 -1.37069,0.222761 -1.37,0.93 v 1.83 h -15.2585 c 15.72417,-8.874623 30.64179,-16.961644 46.2185,-25.09 z m -28.22,-10.37 c 2.23,0.43 7.79,2.07 14.37,8.08 1.43,1.31 3.15,2.91 5,4.65 l -8,4.17 c -9.64,-8.63 -11.17,-14.63 -11.37,-16.9 z m -14.84,23.17 c 1.33,-2.42 2.53,-4.62 3.42,-6.27 1.59493,-3.201643 3.96728,-5.9522 6.9,-8 0.3,1.8 0.26,6.14 -4.13,13.69 l -3.95285,7.514257 c -3.23864,2.256136 -5.47716,3.277227 -9.067153,5.685743 2.020003,-3.83 4.640003,-8.61 6.830003,-12.62 z m -11.370003,-14.33 h 3.61 c 0.6,1.11 2.000003,4 0.89,6.47 -1.74,3.96 -3.18,10.75 0.35,12.35 0.487683,0.226843 1.006903,0.378562 1.540003,0.45 -1.770003,3.26 -3.510003,6.49 -4.800003,9 -0.393637,0.273298 -0.764817,0.577599 -1.11,0.91 l -1.03,-15.75 c -0.177514,-4.484173 0.0064,-8.975359 0.55,-13.43 z m 40.000003,48.37 -1.77,-1.63 1.52,-1.65 h 2 c -0.15,0.49 -0.37,1.21 -0.63,2.08 z m 5.31484,6.178376 c 0,0.13 -3.43405,11.250658 -8.29484,20.681624 0.34,-3.69 1.36,-10.64 4.38,-21.8 1.11,-4.13 2.16,-7.54 2.41,-8.34 l 4.27484,0.05253 z"
             id="white-fill"
             sodipodi:nodetypes="cccccccsccccccccccccccccccccccccccccccccccccccccccccccccccccccccccccccccccccccccccccccccccccccccccccccccccccccccccc"
             style="fill:#ffffff;fill-opacity:1;stroke-width:1.06372" />
    </g>
    <circle
         style="opacity:1;fill:none;fill-opacity:1;stroke:#000000;stroke-width:2;stroke-miterlimit:4;stroke-dasharray:none"
         id="path835"
         cx="57.34705"
         cy="57.34705"
         r="54.386814" />
</svg>
