<?xml version="1.0" encoding="UTF-8" standalone="no"?>
<svg
     xmlns:dc="http://purl.org/dc/elements/1.1/"
     xmlns:cc="http://creativecommons.org/ns#"
     xmlns:rdf="http://www.w3.org/1999/02/22-rdf-syntax-ns#"
     xmlns:svg="http://www.w3.org/2000/svg"
     xmlns="http://www.w3.org/2000/svg"
     xmlns:sodipodi="http://sodipodi.sourceforge.net/DTD/sodipodi-0.dtd"
     xmlns:inkscape="http://www.inkscape.org/namespaces/inkscape"
     version="1.2"
     x="0px"
     y="0px"
     viewBox="0 0 115.26206 115.26205"
     xml:space="preserve"
     id="svg164"
     sodipodi:docname="noun_R2-D2_1449542_b.svg"
     inkscape:version="1.0.2 (e86c870879, 2021-01-15, custom)"
     width="115.26205"
     height="115.26205"><metadata
         id="metadata170"><rdf:RDF><cc:Work
                 rdf:about=""><dc:format>image/svg+xml</dc:format><dc:type
                     rdf:resource="http://purl.org/dc/dcmitype/StillImage" /><dc:title></dc:title></cc:Work></rdf:RDF></metadata><defs
         id="defs168" /><sodipodi:namedview
         pagecolor="#d1bdbd"
         bordercolor="#666666"
         borderopacity="1"
         objecttolerance="10"
         gridtolerance="10"
         guidetolerance="10"
         inkscape:pageopacity="0"
         inkscape:pageshadow="2"
         inkscape:window-width="640"
         inkscape:window-height="480"
         id="namedview166"
         showgrid="false"
         inkscape:zoom="9.5000905"
         inkscape:cx="57.665003"
         inkscape:cy="61.763054"
         inkscape:current-layer="svg164"
         fit-margin-top="0"
         fit-margin-left="0"
         fit-margin-right="0"
         fit-margin-bottom="0" /><circle
         style="fill:#cccccc;fill-opacity:1;stroke:none;stroke-width:2;stroke-opacity:1"
         id="path995-2"
         cx="57.631027"
         cy="57.631027"
         r="57.631027" /><g
         id="g1096"
         transform="translate(26.203003,12.715027)"><path
             d="m 39.129,24.615 0.854,-0.563 c 0,0 2.208,-0.25 3.229,-0.25 l 0.104,0.688 c 0,0 5.708,0.063 7.375,0.563 l 0.917,-0.208 0.979,0.188 -0.188,-1.771 -0.854,-0.208 -1.146,-0.729 c 0,0 -4.25,-0.729 -7.396,-0.625 l 0.063,0.729 -3.125,0.083 -1.125,-0.667 -4.7,0.979 0.221,1.667 z"
             id="path2" /><path
             d="m 49.504,27.761 -1.625,-0.146 -0.729,0.042 -0.083,-0.792 c 0,0 -5.792,-0.292 -8.625,0.083 l -1.563,0.604 -2.133,0.292 0.267,1.813 2.075,-0.208 1.667,0.313 c 0,0 6.917,-0.458 8.604,-0.188 l -0.042,-0.646 1.145,0.208 1,0.125 0.542,0.125 0.771,0.583 2.583,-0.042 -0.125,-1.521 -2.813,-1.271 z"
             id="path4" /><path
             d="m 35.379,20.448 -0.625,0.646 C 46.275,19.75 52.15,21.657 52.15,21.657 l -0.646,-0.479 c -5.729,-1.73 -16.125,-0.73 -16.125,-0.73 z"
             id="path6" /><path
             d="m 51.441,20.407 0.583,-0.042 c 0,0 -5.167,-2.083 -17.417,-0.708 l 0.563,0.167 c 0,-0.001 9.886,-0.855 16.271,0.583 z"
             id="path8" /><path
             d="m 47.344,8.84 c 0.153,0.118 0.235,0.365 0.235,0.365 0.082,-0.894 -0.729,-1.729 -1.6,-1.588 -0.871,0.141 -1.047,0.953 -0.6,1.6 0.447,0.647 1.4,1 2.023,0.388 0,0 -0.302,0.233 -0.612,0.071 C 46.543,9.547 46.602,9.264 46.778,9.029 46.956,8.792 47.202,8.73 47.344,8.84 Z"
             id="path10" /><path
             d="m 44.569,8.087 c -0.24,-0.009 -0.575,0.011 -0.951,0.147 -0.229,0.083 -0.777,0.282 -1.109,0.813 -0.39,0.624 -0.238,1.315 -0.156,1.688 0.206,0.937 0.808,1.502 1.063,1.734 0.29,0.265 0.91,0.831 1.844,0.891 0.224,0.014 0.748,0.041 1.281,-0.266 0.481,-0.277 0.716,-0.68 0.875,-0.953 0.232,-0.399 0.32,-0.753 0.37,-0.994 0.132,0.894 0.264,1.788 0.396,2.682 0.442,0.103 0.89,0.213 1.344,0.328 0.402,0.102 0.798,0.207 1.188,0.313 C 50.651,13.634 50.508,12.622 50.198,11.501 49.934,10.546 49.609,9.724 49.292,9.048 48.82,8.9 48.348,8.753 47.876,8.605 c 0.041,0.065 0.091,0.18 0.126,0.318 0.004,0.117 0,0.284 -0.064,0.475 -0.148,0.439 -0.512,0.675 -0.549,0.698 -0.596,0.374 -1.291,0.089 -1.472,0.015 C 45.781,10.055 45.321,9.848 45.011,9.345 44.913,9.186 44.723,8.877 44.745,8.486 44.779,7.895 45.276,7.52 45.24,7.488 45.211,7.462 44.928,7.702 44.569,8.087 Z m 3.132,1.992 c 0.006,-0.008 0.008,-0.011 0.014,-0.019 -0.004,0.008 -0.01,0.02 -0.014,0.027 10e-4,0.002 10e-4,0.006 0.002,0.008 -0.014,0.015 -0.028,0.029 -0.041,0.044 0.014,-0.021 0.023,-0.037 0.039,-0.06 z m -1.723,1.593 c 0.472,-0.036 0.81,-0.258 0.966,-0.374 0.078,-0.118 0.188,-0.289 0.318,-0.498 0.117,-0.189 0.181,-0.3 0.234,-0.392 0,0.152 -0.007,0.336 -0.046,0.556 -0.045,0.258 -0.101,0.586 -0.314,0.925 -0.094,0.151 -0.321,0.512 -0.784,0.714 -0.611,0.266 -1.174,0.054 -1.271,0.016 -0.499,-0.197 -0.747,-0.578 -0.824,-0.698 -0.116,-0.183 -0.084,-0.209 -0.296,-0.765 -0.266,-0.697 -0.313,-0.648 -0.391,-0.969 -0.022,-0.092 -0.129,-0.554 -0.031,-1.125 0.036,-0.211 0.058,-0.329 0.145,-0.452 0.188,-0.265 0.52,-0.335 0.732,-0.353 -0.058,0.066 -0.114,0.124 -0.174,0.195 -0.208,0.247 -0.368,0.461 -0.475,0.61 0,0 -0.482,1.259 0.847,2.188 0.519,0.363 0.986,0.45 1.364,0.422 z"
             id="path12" /><path
             d="m 38.015,9.345 c -1.29,0.044 -2.512,0.131 -3.659,0.247 0.046,0.63 0.093,1.262 0.141,1.894 0.054,0.715 0.109,1.429 0.165,2.141 1.164,-0.135 2.405,-0.242 3.718,-0.306 1.23,-0.06 2.401,-0.075 3.506,-0.059 C 41.831,12.603 41.758,11.916 41.662,11.203 41.575,10.553 41.476,9.929 41.368,9.332 40.309,9.305 39.189,9.305 38.015,9.345 Z"
             id="path14" /><path
             d="M 36.603,2 C 35.593,1.947 34.121,2.346 33.728,3.438 33.576,3.86 33.628,4.269 33.697,4.547 33.885,4.134 34.239,3.561 34.853,3.297 35.132,3.177 35.467,3.12 35.712,3.078 36.118,3.009 36.446,3 36.634,3 c 0.299,0 0.67,10e-4 1.125,0.125 0.223,0.061 0.499,0.136 0.766,0.313 0.582,0.385 0.787,1.03 0.859,1.328 C 39.449,4.557 39.502,4.272 39.447,3.953 39.248,2.821 37.812,2.064 36.603,2 Z"
             id="path16" /><path
             d="m 35.774,6.756 c -0.094,0.002 -0.159,0.068 -0.158,0.123 10e-4,0.059 0.081,0.13 0.186,0.112 0.863,-0.1 1.778,-0.182 2.742,-0.234 C 39.535,6.703 40.479,6.685 41.369,6.692 41.445,6.688 41.505,6.645 41.512,6.6 41.521,6.545 41.453,6.464 41.342,6.462 40.458,6.461 39.529,6.482 38.56,6.533 37.585,6.585 36.656,6.662 35.774,6.756 Z"
             id="path18" /><path
             d="m 31.837,12 c 0.047,0.656 0.105,1.292 0.172,1.906 0.583,-0.068 1.167,-0.135 1.75,-0.203 -0.065,-0.602 -0.118,-1.233 -0.156,-1.891 -0.044,-0.757 -0.062,-1.483 -0.063,-2.172 -0.604,0.078 -1.208,0.156 -1.813,0.234 0.022,0.686 0.058,1.395 0.11,2.126 z"
             id="path20" /><path
             d="m 53.233,16.511 c -1.446,-1.139 -2.995,-1.44 -5.146,-1.833 -1.186,-0.217 -2.121,-0.302 -2.922,-0.376 -0.878,-0.082 -1.877,-0.144 -3.036,-0.165 -1.973,-0.036 -3.397,0.072 -5.208,0.208 -1.732,0.131 -3.36,0.254 -5.542,0.625 -2.82,0.48 -4.828,1.079 -6.083,1.458 -0.745,0.225 -1.744,0.516 -2.958,1.083 -1.723,0.804 -2.409,1.454 -2.583,1.625 -0.74,0.722 -1.171,1.479 -1.417,2 0.026,0.335 0.052,0.67 0.078,1.005 0.302,-0.527 0.807,-1.273 1.609,-1.984 0.26,-0.231 0.828,-0.703 2.031,-1.313 1.4,-0.709 2.591,-1.035 3.406,-1.292 2.476,-0.78 4.469,-1.124 5.958,-1.375 0.761,-0.128 2.836,-0.463 5.583,-0.667 1.199,-0.089 2.922,-0.212 5.208,-0.167 0.359,0.007 0.823,0.02 1.375,0.047 1.162,0.057 2.746,0.133 4.542,0.453 2.258,0.402 3.719,0.68 5.146,1.813 0.551,0.437 0.94,0.877 1.188,1.188 -0.042,-0.417 -0.083,-0.833 -0.125,-1.25 -0.215,-0.262 -0.58,-0.67 -1.104,-1.083 z"
             id="path22" /><path
             d="M 32.066,8.886 C 34.097,8.513 36.365,8.221 38.837,8.094 40.034,8.033 41.182,8.015 42.275,8.031 42.351,7.656 42.428,7.281 42.504,6.906 41.366,6.887 40.155,6.903 38.879,6.969 37.473,7.042 36.15,7.166 34.921,7.323 34.9,7.219 34.879,7.115 34.858,7.01 33.9,7.128 32.941,7.246 31.983,7.364 c 0.028,0.508 0.055,1.015 0.083,1.522 z"
             id="path24" /><path
             d="m 32.243,51.188 c 0.151,1.974 0.302,3.948 0.453,5.922 0.214,-0.031 0.427,-0.063 0.641,-0.094 -0.161,-1.964 -0.323,-3.927 -0.484,-5.891 -0.203,0.021 -0.407,0.042 -0.61,0.063 z"
             id="path26" /><path
             d="m 31.15,57.313 c 0.188,-0.031 0.375,-0.063 0.563,-0.094 -0.167,-1.958 -0.333,-3.917 -0.5,-5.875 -0.193,0.036 -0.385,0.073 -0.578,0.109 0.171,1.954 0.343,3.907 0.515,5.86 z"
             id="path28" /><path
             d="m 29.571,57.61 c 0.182,-0.031 0.365,-0.063 0.547,-0.094 -0.151,-1.974 -0.302,-3.948 -0.453,-5.922 -0.193,0.047 -0.385,0.094 -0.578,0.141 0.161,1.958 0.323,3.916 0.484,5.875 z"
             id="path30" /><path
             d="m 28.165,57.844 c 0.156,-0.031 0.313,-0.063 0.469,-0.094 -0.156,-1.958 -0.313,-3.917 -0.469,-5.875 -0.167,0.042 -0.333,0.083 -0.5,0.125 0.167,1.948 0.333,3.896 0.5,5.844 z"
             id="path32" /><path
             d="m 26.837,52.172 c -0.167,0.052 -0.333,0.104 -0.5,0.156 0.161,1.938 0.323,3.875 0.484,5.813 0.156,-0.026 0.313,-0.052 0.469,-0.078 -0.151,-1.964 -0.302,-3.927 -0.453,-5.891 z"
             id="path34" /><path
             d="m 29.993,58.078 c -1.088,0.188 -2.135,0.393 -3.141,0.609 0.042,0.526 0.083,1.052 0.125,1.578 1.022,-0.233 2.09,-0.454 3.203,-0.656 1.159,-0.211 2.281,-0.386 3.359,-0.531 -0.031,-0.505 -0.063,-1.01 -0.094,-1.516 -1.109,0.141 -2.261,0.311 -3.452,0.516 z"
             id="path36" /><path
             d="m 36.384,54.703 c 0.177,1.453 0.354,2.906 0.531,4.359 0.076,-1.785 0.119,-3.045 0.094,-3.344 -0.004,-0.047 -0.022,-0.212 0.078,-0.328 0.086,-0.1 0.218,-0.118 0.281,-0.125 0.281,-0.033 0.965,-0.083 1.875,-0.125 0.078,-0.167 0.156,-0.333 0.234,-0.5 0.417,2.579 0.646,3.865 0.688,3.859 0.043,-0.006 -0.118,-1.423 -0.484,-4.25 -1.099,0.152 -2.198,0.303 -3.297,0.454 z"
             id="path38" /><path
             d="m 25.509,10 c -0.105,0.726 -0.188,1.515 -0.234,2.359 -0.063,1.154 -0.046,2.218 0.016,3.172 0.401,-0.13 0.802,-0.26 1.203,-0.391 -0.066,-0.833 -0.1,-1.754 -0.078,-2.75 0.022,-1.004 0.099,-1.93 0.203,-2.766 -0.371,0.126 -0.74,0.251 -1.11,0.376 z"
             id="path40" /><path
             d="m 18.603,19.578 c 0.293,-0.63 0.717,-1.002 1.188,-1.406 0.521,-0.448 0.974,-0.712 1.313,-0.906 0.564,-0.324 1.003,-0.507 1.859,-0.859 0.444,-0.183 0.946,-0.379 1.5,-0.578 -0.078,-0.848 -0.113,-1.838 -0.047,-2.938 0.059,-0.993 0.189,-1.885 0.344,-2.656 -0.952,0.326 -1.72,0.665 -2.281,0.938 -0.929,0.451 -1.401,0.77 -1.531,0.859 -0.353,0.243 -0.81,0.56 -1.297,1.094 -0.355,0.389 -0.602,0.757 -0.766,1.031 -0.206,0.826 -0.389,1.78 -0.5,2.844 -0.141,1.35 -0.133,2.559 -0.063,3.578 0.027,-0.238 0.095,-0.601 0.281,-1.001 z"
             id="path42" /><path
             d="m 32.259,1.313 c 0.958,-0.16 1.798,-0.24 2.469,-0.281 -0.012,-0.132 -0.04,-0.306 -0.109,-0.5 -0.074,-0.209 -0.17,-0.371 -0.25,-0.484 -1.978,0.345 -3.485,0.837 -4.484,1.219 -1.148,0.439 -1.858,0.823 -2.172,1 -0.763,0.429 -1.37,0.86 -1.813,1.203 1.702,-0.915 3.166,-1.409 4.188,-1.688 0.199,-0.055 1.038,-0.28 2.171,-0.469 z"
             id="path44" /><path
             d="m 36.118,0.938 c 1.109,-0.077 2.506,-0.076 4.094,0.156 1.768,0.259 3.237,0.728 4.344,1.172 C 44.012,1.899 43.219,1.432 42.197,1.047 41.817,0.904 41.178,0.687 39.963,0.453 38.916,0.252 37.46,0.043 35.666,0 c 0.086,0.123 0.179,0.274 0.266,0.453 0.084,0.177 0.144,0.342 0.186,0.485 z"
             id="path46" /><path
             d="m 51.019,13.412 c 0.08,0.499 0.12,0.926 0.141,1.247 0.298,0.103 0.637,0.242 0.996,0.431 0.283,0.149 0.531,0.305 0.745,0.455 -0.028,-0.338 -0.075,-0.768 -0.157,-1.263 -0.044,-0.269 -0.179,-1.037 -0.471,-2.016 -0.182,-0.61 -0.437,-1.342 -0.8,-2.149 C 51.254,9.94 50.975,9.744 50.634,9.56 50.312,9.387 50.012,9.268 49.756,9.184 c 0.41,0.999 0.685,1.86 0.871,2.518 0.256,0.907 0.353,1.472 0.392,1.71 z"
             id="path48" /><path
             d="m 52.689,12.84 c 0.288,1.097 0.422,2.088 0.478,2.91 0.126,0.081 0.278,0.195 0.431,0.353 0.176,0.181 0.296,0.36 0.376,0.502 -0.069,-0.879 -0.222,-1.928 -0.541,-3.082 -0.233,-0.845 -0.512,-1.59 -0.792,-2.227 -0.058,-0.156 -0.178,-0.413 -0.424,-0.651 -0.148,-0.144 -0.299,-0.238 -0.416,-0.298 0.314,0.686 0.633,1.521 0.888,2.493 z"
             id="path50" /><polygon
             points="40.75,44.604 41.75,55.688 42.104,55.542 41.125,44.458 "
             id="polygon52"
             transform="translate(-18.538,-5.031)" /><polygon
             points="40.292,47.271 41.024,55.965 41.353,55.823 40.542,46.25 "
             id="polygon54"
             transform="translate(-18.538,-5.031)" /><polygon
             points="40.424,56.259 40.708,56.125 40.063,48.333 39.833,49.271 "
             id="polygon56"
             transform="translate(-18.538,-5.031)" /><polygon
             points="40.146,56.417 39.583,50.188 39.396,50.604 39.917,56.542 "
             id="polygon58"
             transform="translate(-18.538,-5.031)" /><polygon
             points="39.708,56.646 39.188,51.146 39.027,51.333 39.506,56.75 "
             id="polygon60"
             transform="translate(-18.538,-5.031)" /><polygon
             points="59.729,76.459 60.318,76.129 60.153,74.659 59.553,74.459 "
             id="polygon62"
             transform="translate(-18.538,-5.031)" /><polygon
             points="66.035,73.988 65.471,73.8 65.659,75.894 66.247,75.541 "
             id="polygon64"
             transform="translate(-18.538,-5.031)" /><path
             d="m 21.025,55.573 c 0.408,-0.057 0.938,-0.173 1.521,-0.417 0.742,-0.311 1.288,-0.712 1.646,-1.021 -0.493,0.061 -1.218,0.213 -2,0.625 -0.496,0.262 -0.883,0.558 -1.167,0.813 z"
             id="path66" /><path
             d="m 25.212,9.427 c 0.157,-1.025 0.504,-2.478 1.333,-4.042 0.538,-1.014 1.14,-1.814 1.667,-2.416 -0.394,0.1 -0.812,0.223 -1.25,0.375 -0.636,0.22 -1.206,0.464 -1.708,0.708 -0.937,0.783 -2.033,1.848 -3.083,3.25 -1.611,2.151 -2.478,4.246 -2.958,5.75 0.782,-0.766 1.894,-1.693 3.375,-2.5 0.953,-0.519 1.851,-0.876 2.624,-1.125 z"
             id="path68" /><path
             d="m 37.483,15.886 c -1.597,0.108 -3.068,0.295 -4.396,0.521 0.005,0.578 0.01,1.156 0.016,1.734 1.39,-0.195 2.888,-0.354 4.484,-0.453 1.408,-0.087 2.744,-0.118 4,-0.109 0,-0.592 0,-1.184 0,-1.776 -1.258,-0.034 -2.632,-0.017 -4.104,0.083 z"
             id="path70" /><path
             d="m 52.962,17.844 c -1.17,-0.823 -2.344,-1.088 -3.521,-1.354 -0.731,-0.165 -1.342,-0.248 -1.75,-0.292 0.042,0.556 0.083,1.111 0.125,1.667 1.157,0.154 2.115,0.381 2.833,0.583 0,0 0.974,0.274 2.438,0.938 0.33,0.15 0.788,0.368 1.208,0.833 0.212,0.235 0.351,0.462 0.438,0.625 -0.079,-0.503 -0.157,-1.007 -0.236,-1.51 -0.567,-0.745 -1.141,-1.213 -1.535,-1.49 z"
             id="path72" /><path
             d="m 42.262,1.616 c 0.655,0.59 1.456,1.424 2.212,2.541 0.788,1.166 1.273,2.266 1.576,3.118 0.184,-0.002 0.68,0.017 1.165,0.353 0.362,0.251 0.55,0.563 0.635,0.729 0.679,0.183 1.24,0.379 1.659,0.541 0.579,0.224 1.019,0.396 1.553,0.718 0.498,0.3 0.875,0.607 1.129,0.835 -0.824,-1.547 -1.7,-2.754 -2.424,-3.635 0,0 -1.425,-1.735 -3.271,-3.2 C 45.969,3.198 45.511,2.886 44.978,2.604 44.372,2.283 43.846,2.095 43.554,1.992 43.054,1.815 42.612,1.697 42.262,1.616 Z"
             id="path74" /><path
             d="m 21.356,31.49 c -0.022,-0.554 -0.467,-1.133 -1.062,-1.128 -0.608,0.006 -1.048,0.619 -1.04,1.194 0.008,0.57 0.458,1.16 1.051,1.161 0.615,0 1.075,-0.633 1.051,-1.227 z"
             id="path76" /><polygon
             points="30.376,75.859 30.588,74.729 30.176,74.323 29.847,75.959 "
             id="polygon78"
             transform="translate(-18.538,-5.031)" /><polygon
             points="52.771,53.979 56.375,53.479 56.208,52.479 52.688,52.953 "
             id="polygon80"
             transform="translate(-18.538,-5.031)" /><polygon
             points="52.596,52.279 56.2,51.779 56.033,50.779 52.513,51.253 "
             id="polygon82"
             transform="translate(-18.538,-5.031)" /><polygon
             points="52.421,50.579 56.025,50.079 55.858,49.079 52.338,49.553 "
             id="polygon84"
             transform="translate(-18.538,-5.031)" /><polygon
             points="52.246,48.879 55.85,48.379 55.683,47.379 52.162,47.853 "
             id="polygon86"
             transform="translate(-18.538,-5.031)" /><polygon
             points="51.987,46.153 52.071,47.179 55.675,46.679 55.508,45.679 "
             id="polygon88"
             transform="translate(-18.538,-5.031)" /><polygon
             points="55.5,44.979 55.333,43.979 51.813,44.453 51.896,45.479 "
             id="polygon90"
             transform="translate(-18.538,-5.031)" /><path
             d="m 47.05,52.969 c -0.38,0.004 -0.761,0.008 -1.141,0.012 0.027,0.396 0.055,0.792 0.082,1.188 0.056,-0.164 0.167,-0.423 0.388,-0.682 0.244,-0.285 0.51,-0.44 0.671,-0.518 z"
             id="path92" /><path
             d="m 50.897,54.098 c -0.027,-0.404 -0.055,-0.808 -0.082,-1.212 -0.329,0 -0.659,0 -0.988,0 0.164,0.12 0.352,0.278 0.541,0.482 0.242,0.263 0.412,0.52 0.529,0.73 z"
             id="path94" /><path
             d="m 50.486,58.428 c 0.31,-0.008 0.62,-0.016 0.929,-0.023 -0.017,-0.901 -0.076,-1.102 -0.129,-1.106 -0.064,-0.005 -0.099,0.274 -0.318,0.612 -0.16,0.246 -0.346,0.413 -0.482,0.517 z"
             id="path96" /><path
             d="m 46.356,57.487 c 0.024,0.373 0.047,0.745 0.071,1.118 0.361,-0.023 0.722,-0.047 1.082,-0.071 -0.185,-0.1 -0.42,-0.25 -0.659,-0.471 -0.221,-0.204 -0.382,-0.409 -0.494,-0.576 z"
             id="path98" /><path
             d="m 48.124,52.327 -2.983,0.13 0.851,6.71 3.103,-0.161 2.876,-0.087 -0.801,-6.592 z m 0.962,6.479 -2.919,0.152 -0.8,-6.311 2.762,-0.12 h 2.864 l 0.753,6.199 z"
             id="path100" /><path
             d="m 33.48,38.036 c 1.533,-0.276 3.097,-0.496 4.649,-0.655 1.322,-0.136 2.665,-0.23 3.994,-0.281 l 0.105,-0.004 -0.519,-5.449 -0.095,0.003 c -1.425,0.053 -2.868,0.158 -4.288,0.313 -1.482,0.163 -2.978,0.384 -4.445,0.658 l -0.091,0.017 0.584,5.417 z m 3.868,-5.874 c 1.384,-0.151 2.79,-0.255 4.18,-0.309 l 0.481,5.051 c -1.298,0.052 -2.61,0.145 -3.901,0.277 -1.521,0.156 -3.054,0.371 -4.558,0.639 L 33.009,32.8 c 1.433,-0.265 2.892,-0.479 4.339,-0.638 z"
             id="path102" /><path
             d="m 43.322,47.958 -0.978,-9.549 -0.092,10e-4 c -0.714,0.014 -1.431,0.049 -2.131,0.105 -0.697,0.055 -1.4,0.132 -2.089,0.229 l -0.096,0.014 1.042,9.636 0.102,-0.014 c 0.708,-0.095 1.429,-0.179 2.143,-0.25 0.669,-0.066 1.341,-0.123 1.997,-0.167 z m -2.12,-0.026 C 40.52,48 39.831,48.079 39.154,48.169 L 38.155,38.93 c 0.654,-0.09 1.32,-0.162 1.981,-0.215 0.666,-0.053 1.348,-0.087 2.027,-0.102 l 0.939,9.16 c -0.625,0.042 -1.264,0.096 -1.9,0.159 z"
             id="path104" /><path
             d="m 41.161,39.232 -1.738,0.164 c -0.127,0.012 -0.241,0.073 -0.322,0.172 -0.081,0.099 -0.118,0.223 -0.104,0.351 l 0.75,7.093 c 0.026,0.244 0.23,0.424 0.471,0.424 0.011,0 0.023,0 0.034,-10e-4 l 1.708,-0.12 c 0.129,-0.009 0.246,-0.068 0.33,-0.167 0.083,-0.099 0.122,-0.225 0.109,-0.354 l -0.721,-7.137 c -0.027,-0.259 -0.264,-0.448 -0.517,-0.425 z m 0.974,7.786 c -0.048,0.057 -0.116,0.091 -0.19,0.097 l -1.708,0.12 c -0.15,0.005 -0.276,-0.097 -0.292,-0.245 l -0.75,-7.093 c -0.008,-0.073 0.014,-0.146 0.06,-0.203 0.047,-0.057 0.113,-0.092 0.186,-0.099 l 1.738,-0.164 c 0.008,-10e-4 0.017,-10e-4 0.025,-10e-4 0.139,0 0.259,0.105 0.273,0.247 l 0.721,7.137 c 0.008,0.074 -0.014,0.147 -0.063,0.204 z"
             id="path106" /><path
             d="m 27.217,50.37 0.108,-0.021 c 0.99,-0.197 1.989,-0.386 2.967,-0.562 0.951,-0.171 1.939,-0.339 2.936,-0.5 l 0.093,-0.015 -2.697,-27.469 -0.01,-0.106 -0.105,0.017 c -1.042,0.167 -2.086,0.388 -3.104,0.658 -0.908,0.241 -1.815,0.526 -2.696,0.847 l -0.073,0.026 2.57,27.014 z m 0.24,-27.804 c 0.977,-0.259 1.979,-0.474 2.979,-0.637 l 2.668,27.175 c -0.966,0.156 -1.923,0.319 -2.846,0.485 -0.944,0.17 -1.906,0.352 -2.862,0.542 l -2.544,-26.75 c 0.85,-0.308 1.727,-0.582 2.605,-0.815 z"
             id="path108" /><path
             d="M 56.783,49.341 C 56.207,49.196 55.615,49.075 55.025,48.98 54.294,48.862 53.549,48.783 52.811,48.744 l -0.12,-0.006 0.385,3.033 0.087,10e-4 c 0.706,0.009 1.417,0.061 2.113,0.155 0.606,0.082 1.212,0.197 1.802,0.342 l 0.141,0.035 -0.37,-2.947 z m -1.479,2.388 c -0.676,-0.092 -1.365,-0.144 -2.05,-0.156 L 52.921,48.95 c 0.692,0.041 1.389,0.117 2.073,0.227 0.562,0.09 1.125,0.205 1.675,0.341 l 0.317,2.523 c -0.553,-0.13 -1.118,-0.235 -1.682,-0.312 z"
             id="path110" /><path
             d="m 51.477,51.663 h 0.111 L 51.287,48.7 51.2,48.697 c -1.056,-0.036 -2.135,-0.047 -3.208,-0.031 -1.267,0.019 -2.557,0.077 -3.834,0.172 l -0.104,0.008 0.334,3.026 0.095,-0.006 c 1.24,-0.081 2.505,-0.138 3.762,-0.171 1.068,-0.029 2.154,-0.038 3.232,-0.032 z M 44.566,51.66 44.275,49.03 c 1.24,-0.091 2.49,-0.146 3.719,-0.164 1.04,-0.016 2.086,-0.006 3.111,0.028 l 0.261,2.568 c -1.045,-0.009 -2.094,0.004 -3.126,0.032 -1.227,0.033 -2.462,0.088 -3.674,0.166 z"
             id="path112" /><path
             d="m 40.139,49.151 c -0.741,0.076 -1.489,0.176 -2.225,0.298 l -0.091,0.015 0.234,3.009 0.104,-0.014 c 0.745,-0.1 1.496,-0.189 2.231,-0.265 0.691,-0.072 1.395,-0.135 2.091,-0.188 l 0.099,-0.007 -0.201,-3.009 -0.098,0.004 c -0.707,0.031 -1.429,0.083 -2.144,0.157 z m 0.235,2.843 c -0.703,0.073 -1.42,0.158 -2.133,0.252 l -0.203,-2.615 c 0.702,-0.114 1.416,-0.209 2.122,-0.281 0.678,-0.07 1.362,-0.121 2.037,-0.151 l 0.174,2.616 c -0.665,0.05 -1.337,0.111 -1.997,0.179 z"
             id="path114" /><path
             d="m 43.658,52.698 c -1.443,0.106 -2.917,0.237 -4.378,0.391 -1.417,0.149 -2.858,0.322 -4.285,0.516 l -0.096,0.013 0.646,6.418 0.103,-0.015 c 1.458,-0.211 2.939,-0.395 4.402,-0.546 1.434,-0.148 2.883,-0.269 4.309,-0.359 l 0.104,-0.006 -0.709,-6.419 z m -3.628,6.578 c -1.432,0.148 -2.88,0.328 -4.307,0.533 L 35.119,53.79 c 1.393,-0.188 2.799,-0.357 4.182,-0.502 1.427,-0.15 2.865,-0.279 4.276,-0.383 l 0.666,6.019 c -1.395,0.088 -2.812,0.207 -4.213,0.352 z"
             id="path116" /><path
             d="m 54.927,52.598 -0.078,-0.01 c -0.406,-0.052 -0.818,-0.089 -1.226,-0.11 -0.427,-0.021 -0.859,-0.027 -1.29,-0.016 l -0.11,0.003 0.791,6.359 0.094,-0.006 c 0.432,-0.025 0.869,-0.037 1.306,-0.031 0.366,0.004 0.743,0.02 1.119,0.046 l 0.121,0.009 -0.717,-6.167 z m -0.511,5.99 c -0.071,0 -0.143,-10e-4 -0.214,-10e-4 -0.337,0 -0.676,0.009 -1.011,0.027 L 52.45,52.66 c 0.387,-0.005 0.778,-10e-4 1.163,0.019 0.377,0.02 0.758,0.053 1.134,0.099 l 0.68,5.85 c -0.34,-0.023 -0.679,-0.036 -1.011,-0.04 z"
             id="path118" /><path
             d="m 56.682,52.823 -1.264,-0.197 0.736,6.188 0.009,0.08 1.271,0.129 -0.745,-6.125 z m -0.339,5.888 -0.696,-5.847 0.854,0.133 0.706,5.801 z"
             id="path120" /><path
             d="m 57.689,59.052 0.853,0.186 -0.694,-6.074 -0.879,-0.278 z m 0.623,-0.069 -0.441,-0.096 -0.668,-5.717 0.461,0.146 z"
             id="path122" /><path
             d="m 13.577,32.985 0.698,-0.62 c -0.12,-0.623 -0.213,-1.585 0.063,-2.688 0.102,-0.406 0.236,-0.761 0.375,-1.063 -0.072,-0.161 -0.189,-0.385 -0.375,-0.625 -0.183,-0.237 -0.259,-0.263 -0.292,-0.271 -0.302,-0.076 -0.657,0.397 -0.75,0.521 -0.365,0.486 -0.5,1.026 -0.583,1.729 -0.068,0.571 -0.116,1.376 -0.021,2.354 l -0.745,0.661 v 0.486 l 1.63,-0.063 z"
             id="path124" /><polygon
             points="34.729,86.471 34.606,86.1 32.929,86.312 31.658,80.046 31.25,80.146 32.624,86.718 "
             id="polygon126"
             transform="translate(-18.538,-5.031)" /><path
             d="m 14.556,77.145 c 0.18,-0.153 0.361,-0.306 0.541,-0.459 -0.29,0.16 -0.654,0.088 -0.859,-0.165 -0.211,-0.261 -0.198,-0.645 0.035,-0.894 -0.151,0.166 -0.302,0.332 -0.452,0.497 -0.014,0.034 -0.144,0.36 0.047,0.672 0.143,0.234 0.409,0.368 0.688,0.349 z"
             id="path128" /><path
             d="m 14.94,78.84 c -0.151,0.166 -0.302,0.332 -0.452,0.497 -0.014,0.034 -0.144,0.36 0.047,0.672 0.142,0.233 0.408,0.367 0.688,0.348 0.18,-0.153 0.361,-0.306 0.541,-0.459 -0.29,0.16 -0.654,0.089 -0.859,-0.165 -0.212,-0.26 -0.198,-0.644 0.035,-0.893 z"
             id="path130" /><path
             d="m 58.954,32.255 c 0.007,0.536 0.43,1.09 0.987,1.09 0.578,10e-4 1.01,-0.594 0.987,-1.152 -0.021,-0.521 -0.439,-1.064 -0.998,-1.059 -0.57,0.005 -0.984,0.581 -0.976,1.121 z"
             id="path132" /><path
             d="m 46.77,53.737 c -0.369,0.431 -0.581,0.938 -0.574,1.516 0.486,0.115 0.482,-0.601 0.982,-0.521 -0.129,0.178 -0.23,0.311 -0.324,0.449 -0.126,0.185 -0.095,0.299 0.151,0.301 0.127,10e-4 0.253,0 0.403,0 0,0.163 0,0.281 0,0.399 0,0.126 0,0.252 0,0.373 -0.526,0.063 -0.525,0.063 -0.598,-0.41 -0.015,-0.097 -0.037,-0.193 -0.059,-0.301 -0.198,-0.021 -0.378,-0.041 -0.606,-0.065 0.043,0.224 0.016,0.459 0.117,0.546 0.3,0.257 0.327,0.274 0.075,0.513 0.203,0.567 0.523,1.057 1.017,1.409 0.604,0.431 0.443,0.364 0.794,-0.199 0.046,-0.074 0.031,-0.189 0.034,-0.286 0.005,-0.134 10e-4,-0.268 10e-4,-0.402 0.207,-0.024 0.403,-0.092 0.579,-0.057 0.271,0.053 0.282,-0.207 0.434,-0.285 0.05,-0.026 0.116,-0.029 0.175,-0.03 0.178,-0.004 0.356,-10e-4 0.534,-10e-4 -0.049,0.04 -0.097,0.053 -0.146,0.052 -0.429,-0.003 -0.672,0.178 -0.721,0.633 -0.012,0.109 -0.216,0.196 -0.327,0.298 -0.057,0.053 -0.14,0.113 -0.147,0.177 -0.008,0.072 0.056,0.218 0.089,0.218 0.249,10e-4 0.25,0.204 0.329,0.43 0.384,-0.316 0.739,-0.607 1.12,-0.919 -0.078,0.164 -0.144,0.303 -0.208,0.437 0.077,0.069 0.143,0.128 0.266,0.238 0.2,-0.241 0.414,-0.459 0.58,-0.709 0.366,-0.551 0.268,-1.188 0.309,-1.803 0.055,-0.847 -0.294,-1.516 -0.853,-2.096 -1.005,-1.043 -2.486,-1.003 -3.426,0.095 z m 1.845,1.045 c -0.732,0.133 -0.744,0.122 -0.752,-0.659 0.576,-0.232 0.75,-0.083 0.752,0.659 z m -0.04,1.934 c -0.347,-0.031 -0.578,-0.247 -0.729,-0.548 -0.145,-0.29 -0.154,-0.583 0.072,-0.835 0.091,-0.102 0.234,-0.157 0.39,-0.256 0.193,0.127 0.361,0.239 0.532,0.347 0.158,0.1 0.103,0.388 0.357,0.402 0.003,0 0.004,0.019 0.007,0.028 0.11,0.281 -0.322,0.89 -0.629,0.862 z m 1.404,-0.529 c -0.162,0.016 -0.326,0.032 -0.498,0.049 -0.034,-0.265 -0.067,-0.523 -0.1,-0.781 0.539,-0.115 0.65,0.017 0.598,0.732 z"
             id="path134" /><polygon
             points="73.211,71.932 72.898,71.641 72.539,73.063 72.898,73.104 "
             id="polygon136"
             transform="translate(-18.538,-5.031)" /><polygon
             points="66.741,89.252 66.581,88.896 64.547,89.18 62.441,82.375 62.045,82.516 64.284,89.616 "
             id="polygon138"
             transform="translate(-18.538,-5.031)" /><path
             d="m 62.791,30.187 c -0.142,-1.3 -0.48,-2.508 -1.003,-3.591 -0.409,-0.846 -0.79,-1.338 -1.315,-1.698 -0.503,-0.345 -0.993,-0.468 -1.385,-0.567 -0.421,-0.106 -0.844,-0.156 -2.235,-0.168 -0.602,-0.006 -1.182,-0.001 -1.776,0.011 -0.079,-0.829 -0.163,-1.653 -0.237,-2.486 -0.127,-0.4 -0.326,-0.756 -0.593,-1.057 -0.392,-0.442 -0.819,-0.646 -1.223,-0.817 -1.464,-0.62 -2.593,-0.86 -2.624,-0.86 -1.696,-0.333 -2.547,-0.501 -3.803,-0.606 -2.09,-0.174 -4.389,-0.218 -6.471,-0.125 -5.669,0.258 -9.676,1.032 -12.327,1.544 -1.815,0.35 -3.771,0.794 -5.967,2.011 -0.773,0.428 -1.521,0.921 -2.221,1.466 l -0.117,0.092 0.129,0.074 c 0.291,0.167 0.557,0.372 0.791,0.608 0.28,0.284 0.506,0.607 0.711,1.017 0.941,1.878 1.113,4.523 1.115,4.55 0.033,0.546 0.055,1.236 -0.016,2.566 -0.127,2.409 -0.411,4.265 -0.599,5.494 l -0.009,0.059 c -0.316,2.065 -0.653,4.349 -1.004,6.792 l -3.381,0.05 c 0.554,-5.029 0.924,-7.707 1.175,-9.235 0.047,-0.288 0.196,-1.181 0.282,-2.388 0.057,-0.797 0.139,-2.02 -0.012,-3.6 -0.06,-0.632 -0.198,-1.735 -0.565,-3.059 -0.406,-1.464 -0.78,-2.074 -1.153,-2.518 -0.225,-0.268 -0.44,-0.46 -0.635,-0.62 h 2.765 c 0.384,-0.398 0.968,-0.938 1.766,-1.453 0.783,-0.506 1.437,-0.771 2.203,-1.078 0.665,-0.266 1.578,-0.589 2.703,-0.859 -0.031,-0.625 -0.063,-1.25 -0.094,-1.875 -1.397,0.334 -2.485,0.805 -3.234,1.188 -0.662,0.338 -1.379,0.709 -2.177,1.401 -0.852,0.739 -1.406,1.505 -1.745,2.052 0.02,0.15 0.041,0.3 0.061,0.45 -0.96,-0.001 -4.748,-0.004 -4.767,-0.004 -0.011,0 -0.021,0 -0.032,0 -1.087,0.038 -1.857,1.964 -2.312,3.573 -0.139,0.491 -0.218,0.962 -0.377,1.901 -0.153,0.906 -0.221,1.501 -0.334,2.488 l -0.041,0.361 c -0.077,0.669 -0.208,1.738 -0.469,3.874 -0.093,0.758 -0.23,1.864 -0.406,3.218 l -0.002,0.017 0.655,2.92 -0.493,0.305 1.158,2.927 -1.62,11.455 H 9.53 c -1.012,0.422 -1.612,1.33 -1.493,2.257 0.008,0.064 0.024,0.138 0.044,0.217 l -0.4,4.359 c -0.284,-0.017 -0.571,0.042 -0.822,0.191 -0.511,0.303 -0.786,0.901 -0.688,1.5 1.396,2.035 2.792,4.069 4.188,6.104 -0.017,-0.145 -0.042,-0.514 0.167,-0.896 0.043,-0.079 0.305,-0.544 0.875,-0.708 0.121,-0.035 0.767,-0.221 1.204,0.194 0.377,0.358 0.368,0.944 0.188,1.341 -0.241,0.535 -0.777,0.696 -0.861,0.72 v 0.003 L 10.348,71.504 5.967,69.213 8.728,69.038 8.715,68.839 5.597,69.037 5.547,69.04 0.028,77.519 0,77.563 l 1.121,2.513 8.508,5.816 12.583,-1.365 1.042,-2.406 -0.007,0.001 0.002,-0.001 -0.289,-0.758 -1.943,-1.27 c 0.19,-0.049 0.363,-0.109 0.517,-0.181 l 0.116,0.046 0.001,-0.001 c 0.128,0.085 0.244,0.182 0.341,0.294 0.094,0.109 0.169,0.227 0.224,0.349 0,0 0.059,0.133 0.08,0.177 0.106,0.221 0.447,0.189 0.585,0.07 0.149,-0.129 0.104,-0.352 0.104,-0.352 0.012,-0.102 -0.134,-0.696 -0.494,-1.4 0.175,-0.29 0.253,-0.59 0.253,-0.843 L 23.06,66.459 h 0.002 v -0.09 c -0.281,-0.635 -0.796,-1.102 -1.4,-1.358 0.029,0.008 0.051,0.012 0.081,0.02 0,0 -0.577,-0.284 -0.828,-0.406 -1.371,-0.666 -1.237,-0.492 -2.313,-0.984 -0.11,-0.05 -0.325,-0.15 -0.625,-0.172 -0.289,-0.021 -0.53,0.04 -0.688,0.094 l 0.198,-2.612 0.302,-0.018 V 60.53 l -0.786,-0.937 1.923,-13.562 0.933,-0.69 0.691,7.478 0.958,11.409 0.062,-0.005 c -0.007,0.053 -0.002,0.088 -0.002,0.088 0.025,0.077 0.098,0.117 0.235,0.177 0.273,0.118 0.41,0.177 0.588,0.2 0,0 0.295,0.039 0.602,-0.03 l 4.188,4.469 c 0.667,0.031 1.333,0.063 2,0.094 0,0 5.233,0.486 6.869,0.137 l 0.34,0.994 c -0.616,0.165 -1.095,0.292 -1.225,0.322 -0.469,0.109 -0.834,1.04 -0.625,1.664 0.219,0.656 0.828,1.148 1.688,0.882 0.213,-0.066 0.637,-0.181 1.154,-0.316 l -0.222,0.564 1.002,-0.767 v 0 l -1.002,0.767 -6.19,9.469 c -0.019,0.028 -0.021,0.064 -0.008,0.095 l 1.272,2.563 8.774,4.237 12.039,-1.571 1.135,-2.51 -0.006,10e-4 0.006,-0.012 -2.294,-3.708 7.2,-0.853 0.875,-2.001 h -10e-4 l 10e-4,-0.003 -5.439,-10.518 c 10e-4,0 10e-4,0 0.002,0 0.545,-0.212 0.9,-0.713 0.888,-1.234 -0.017,-0.726 -0.725,-1.238 -1.235,-1.235 -0.098,10e-4 -0.171,0.02 -0.186,0.024 -0.527,0.142 -2.701,0.649 -5.764,1.353 0,0.474 0,0.948 0,1.422 2.025,-0.106 4.051,-0.212 6.076,-0.318 l 5.434,10.512 -0.01,0.02 -9.055,0.866 -0.956,-1.546 c 0.121,-0.271 0.242,-0.542 0.362,-0.813 1.097,-0.221 1.966,-0.475 2.576,-0.764 0.098,-0.047 0.291,-0.134 0.548,-0.215 l 0.463,1.665 2,-0.219 -0.109,-0.359 -1.705,0.153 -0.34,-1.329 c 0.079,-0.018 0.172,-0.027 0.259,-0.041 0.01,0.075 0.014,0.153 0.055,0.217 0.151,0.237 0.492,0.327 0.776,0.176 0.086,-0.11 0.173,-0.22 0.259,-0.329 -0.207,0.082 -0.434,0.037 -0.591,-0.095 0.123,-0.001 0.246,-0.011 0.368,0 0.191,0.014 0.358,-0.127 0.375,-0.317 0.017,-0.19 -0.121,-0.36 -0.312,-0.38 -0.184,-0.017 -0.369,-0.007 -0.554,0 0.029,-0.054 0.067,-0.105 0.114,-0.148 -0.044,0.049 -0.089,0.099 -0.133,0.148 -0.073,0.003 -0.147,-0.007 -0.22,0 -0.205,0.019 -0.394,0.052 -0.569,0.092 l -0.377,-1.476 0.366,-0.306 c 0.147,0.043 0.313,0.036 0.466,-0.045 0.086,-0.11 0.173,-0.22 0.259,-0.329 -0.102,0.04 -0.207,0.042 -0.308,0.026 l 0.462,-0.386 c 0.12,-0.13 0.125,-0.33 0.011,-0.466 -0.114,-0.136 -0.311,-0.167 -0.46,-0.071 l -0.483,0.404 c -0.006,-0.163 0.051,-0.328 0.178,-0.448 -0.133,0.149 -0.267,0.298 -0.4,0.447 -0.058,0.081 -0.079,0.174 -0.094,0.265 l -0.188,0.158 -0.387,-1.516 -0.423,-0.095 0.483,1.883 -0.506,0.424 c -0.763,0.639 -0.972,0.815 -1.288,1.046 -0.222,0.163 -0.477,0.33 -0.738,0.495 -0.46,-1.848 -0.92,-3.697 -1.38,-5.545 -0.022,0.076 -0.067,0.196 -0.165,0.318 -0.079,0.098 -0.163,0.161 -0.224,0.2 0.006,2.113 -0.008,3.664 -0.024,4.024 -0.012,0.282 -0.056,0.535 -0.059,0.553 -0.016,0.091 -0.033,0.173 -0.05,0.243 l -1.028,-1.662 -0.02,-0.031 -0.326,-0.104 -0.004,-2.474 1.039,-0.289 c -0.684,0.01 -1.286,-0.391 -1.494,-0.977 -0.185,-0.521 -0.032,-1.116 0.294,-1.447 0.153,-0.155 0.329,-0.239 0.457,-0.289 0.064,-0.017 0.119,-0.044 0.19,-0.052 0.388,-0.045 0.694,0.075 0.835,0.141 0,-0.903 0,-1.806 0,-2.708 1.271,-0.07 2.792,-0.136 3.904,-0.157 2.125,-0.043 3.021,0.182 3.03,0.184 l 0.069,0.018 2.997,-4.592 c 0.263,-0.02 0.484,-0.07 0.623,-0.121 0.228,-0.083 0.578,-0.21 0.706,-0.518 0.022,-0.052 0.038,-0.108 0.032,-0.173 h 0.002 c 0,-0.003 -10e-4,-0.006 -10e-4,-0.009 0,-0.002 0.002,-0.004 10e-4,-0.006 0,-0.002 -0.002,-0.003 -0.002,-0.005 -0.249,-2.962 -0.545,-5.981 -0.882,-8.973 -0.27,-2.397 -0.521,-4.385 -0.769,-6.239 h 0.298 l 2.374,-1.033 c 0.442,-2.109 0.937,-4.185 1.47,-6.171 L 61.909,37.7 c 0.291,-1.077 0.542,-2.006 0.735,-3.362 0.295,-2.084 0.218,-3.495 0.147,-4.151 z m -51.833,10.82 -0.294,0.181 -0.616,-2.742 1.077,1.113 z m -0.155,-7.451 -0.179,0.074 c 0.141,-1.154 0.225,-1.853 0.281,-2.338 l 0.042,-0.361 c 0.113,-0.983 0.181,-1.576 0.333,-2.477 0.158,-0.932 0.237,-1.4 0.373,-1.88 0.617,-2.184 1.372,-3.401 2.126,-3.427 0.008,0 0.017,0 0.025,0 0.44,0 0.822,0.402 1.227,0.829 0.467,0.492 0.673,0.992 0.934,1.625 0.13,0.315 0.379,0.999 0.588,2.029 0.123,0.606 0.222,1.373 0.28,2.159 0.136,1.873 0.007,3.369 -0.078,4.359 -0.049,0.571 -0.098,0.977 -0.187,1.716 -0.167,1.383 -0.328,2.416 -0.415,2.971 l -0.006,0.041 c -0.232,1.482 -0.51,3.32 -0.875,5.782 l -0.017,0.116 -1.519,0.987 1.292,-9.542 -0.274,-0.688 h -2.351 c -0.457,1.266 -1.56,0.266 -1.6,-1.975 z m 1.166,34.679 C 10.779,66.507 9.589,64.78 8.4,63.052 8.298,62.985 8.187,62.938 8.075,62.899 l 0.342,-3.728 c 0.518,0.739 1.716,1.609 4.452,2.019 -0.13,1.099 -0.597,5.033 -0.9,7.045 z m 0.893,-2.96 c 0.071,-0.486 0.141,-0.973 0.212,-1.459 0.047,-0.047 0.094,-0.094 0.141,-0.141 0.21,-0.005 1.181,-0.03 1.412,-0.035 0.043,0.02 0.086,0.039 0.129,0.059 -0.078,0.541 -0.157,1.082 -0.235,1.624 -0.075,0.047 -0.149,0.094 -0.224,0.141 -0.376,0 -0.753,0 -1.129,0 -0.102,-0.064 -0.204,-0.126 -0.306,-0.189 z m 1.853,0.923 -0.041,0.276 -0.141,0.124 -1.441,0.029 -0.1,-0.159 1.571,-0.053 0.053,-0.323 z m 6.116,12.751 c -0.04,0.09 -0.076,0.219 -0.085,0.344 -0.024,-0.025 -0.036,-0.06 -0.067,-0.079 -0.038,-0.011 -0.711,-0.196 -1.479,-0.353 l -0.18,-0.348 2.016,-0.142 c 0.067,0.074 0.134,0.148 0.193,0.224 -0.171,0.066 -0.332,0.203 -0.398,0.354 z m -1.707,-2.613 0.1,-4.075 h 0.758 l -0.104,4.417 z m 2.692,1.029 -0.792,0.083 0.167,-5.212 0.771,-0.1 z m 0.561,1.517 c -0.107,-0.191 -0.228,-0.385 -0.368,-0.58 l 0.533,-0.038 c -0.003,0.189 -0.057,0.403 -0.165,0.618 z M 20.733,65.198 c 0.81,0.001 1.565,0.449 1.979,1.167 -1.368,0.097 -2.736,0.194 -4.104,0.292 0.359,-0.882 1.204,-1.46 2.125,-1.459 z m -3.62,5.73 1.134,5.014 C 18.046,75.873 17.78,75.779 17.392,75.636 l -0.214,-0.08 c -0.677,-0.252 -0.958,-0.354 -1.396,-0.319 -0.48,0.042 -0.939,0.24 -1.365,0.589 -0.101,0.153 -0.091,0.354 0.026,0.496 0.117,0.142 0.312,0.191 0.482,0.122 0.298,-0.245 0.61,-0.383 0.926,-0.411 0.248,-0.021 0.411,0.034 1.048,0.271 l 0.216,0.08 c 0.73,0.271 1.059,0.376 1.275,0.447 0.02,0.006 0.036,0.012 0.054,0.018 l 0.362,1.677 -0.002,0.001 0.146,0.285 c -0.207,-0.039 -0.417,-0.076 -0.62,-0.104 -1.211,-0.169 -2.224,-0.116 -3.099,0.163 -0.138,0.111 -0.194,0.296 -0.14,0.465 0.054,0.169 0.206,0.287 0.383,0.298 0.757,-0.242 1.655,-0.285 2.745,-0.134 0.393,0.055 0.821,0.141 1.199,0.226 l 0.276,0.537 0.01,-0.001 c 0.445,0.762 1.54,1.209 3.104,1.262 l 0.235,0.62 L 9.542,83.709 9.52,83.694 10.327,71.792 Z m 37.064,-2.506 c -0.553,0 -1.001,-0.448 -1.001,-1.001 0,-0.553 0.448,-1.001 1.001,-1.001 0.553,0 1.001,0.448 1.001,1.001 0,0.553 -0.448,1.001 -1.001,1.001 z m -3.112,7.621 c 0.325,-0.238 0.541,-0.417 1.351,-1.097 l 0.236,-0.197 0.363,1.306 c -0.321,0.1 -0.564,0.209 -0.682,0.265 -0.455,0.216 -1.261,0.444 -2.174,0.644 -0.023,-0.092 -0.046,-0.184 -0.069,-0.276 0.347,-0.212 0.684,-0.432 0.975,-0.645 z M 22.172,27.669 c 0.232,0.244 0.53,0.638 0.665,1.207 0.237,0.99 -0.188,1.796 -0.372,2.088 0.01,-0.613 -0.006,-1.034 -0.028,-1.391 -0.001,-0.016 -0.055,-0.844 -0.265,-1.904 z m -2.124,17.532 0.728,-0.538 c 0,0 0.455,-3.078 0.802,-5.384 0.233,-0.102 0.472,-0.206 0.712,-0.311 0.238,-0.104 0.477,-0.208 0.71,-0.31 l 1.023,12.297 c -0.674,0.175 -1.327,0.43 -1.941,0.759 -0.475,0.255 -0.929,0.554 -1.35,0.892 z m 13.68,21.909 c -2.13,0.422 -4.26,0.844 -6.391,1.266 -1.191,-1.305 -2.383,-2.609 -3.574,-3.914 4.511,2.257 8.832,1.682 9.574,1.747 -0.844,-1.101 -1.688,-2.201 -2.531,-3.302 0.344,0.01 0.688,0.021 1.031,0.031 0.771,1.052 1.542,2.103 2.313,3.155 l 4.265,-0.497 0.173,0.904 z m -2.487,-5.024 c 0.012,-0.002 0.024,-0.004 0.036,-0.006 v 0.001 z m 7.245,0.048 c 0.21,-0.033 0.211,-0.068 0.415,-0.102 l 0.796,3.431 4.04,-0.369 c 0.172,-1.222 0.544,-2.444 0.717,-3.667 0.186,-0.011 0.171,-0.023 0.357,-0.034 -0.156,1.524 -0.311,2.949 -0.467,4.473 l -5.009,0.551 z m 6.953,8.329 -0.82,0.522 -0.437,-4.369 c 0.548,-0.051 1.096,-0.102 1.624,-0.14 0.065,0.718 0.129,1.437 0.194,2.155 -0.242,0.186 -0.567,0.671 -0.619,1.245 -0.023,0.241 0.016,0.445 0.058,0.587 z m -5.051,1.673 c 0.579,-0.145 0.98,-0.245 0.98,-0.245 0,0 -1.24,0.24 -1.553,-1.028 -0.221,-0.893 0.142,-1.476 0.746,-1.64 v 0 L 41.244,69 41.058,66.973 c 0.665,-0.093 1.36,-0.174 2.063,-0.252 l 0.433,4.018 -0.509,3.736 -2.432,0.246 0.755,-2.83 z m 6.545,2.263 7.026,11.363 -0.01,0.018 -12.907,1.645 -0.34,-12.433 z m -0.451,-0.271 -2.462,0.249 0.147,-0.985 v 0 z m -0.259,-2.52 0.004,2.229 -1.483,-0.473 -0.01,-0.936 z m 8.364,-6.056 c -0.891,-0.057 -1.816,-0.093 -2.771,-0.104 -2.462,-0.028 -4.746,0.116 -6.823,0.358 l 0.088,-0.845 4.193,-0.212 1.68,-4.005 c 0.232,-0.006 0.48,-0.011 0.72,-0.017 l -1.384,3.969 h 2.646 l 0.994,-1.51 1.58,-2.525 c 0.108,-0.001 0.205,-0.003 0.315,-0.004 l -1.973,4.201 0.506,0.111 c 0.962,-1.391 1.924,-2.781 2.885,-4.172 0.156,0.068 0.313,0.135 0.469,0.203 -1.042,1.518 -2.083,3.035 -3.125,4.552 z m 3.65,-14.009 c 0.327,2.902 0.614,5.827 0.858,8.703 -0.098,-0.057 -0.223,-0.113 -0.398,-0.171 -0.554,-0.185 -1.008,-0.222 -1.023,-0.224 -1.336,-0.111 -0.561,-0.123 -1.576,-0.165 -2.688,-0.111 -4.412,-0.059 -4.412,-0.059 -2.925,0.089 -4.388,0.134 -5.33,0.188 -2.907,0.169 -5.125,0.404 -6.518,0.553 -1.419,0.152 -2.503,0.29 -4.671,0.565 -2.248,0.285 -1.532,0.213 -4.235,0.565 -1.341,0.175 -2.278,0.391 -5.635,1.023 0,0 -2.861,0.541 -3.608,1.47 L 20.754,52.849 c 0.44,-0.365 0.918,-0.689 1.422,-0.958 0.625,-0.334 1.29,-0.591 1.977,-0.762 l 0.083,-0.021 -1.061,-12.746 -0.128,0.057 c -0.272,0.12 -0.555,0.243 -0.837,0.366 -0.201,0.087 -0.4,0.174 -0.597,0.261 0.074,-0.493 0.143,-0.946 0.198,-1.312 l 0.009,-0.06 c 0.073,-0.474 0.159,-1.044 0.246,-1.701 0.49,-0.895 0.787,-1.7 0.959,-2.286 0.594,-2.03 0.452,-3.656 0.406,-4.094 -0.072,-0.682 -0.15,-1.367 -0.531,-2.188 -0.388,-0.835 -0.902,-1.409 -1.3,-1.78 -0.09,-0.234 -0.188,-0.463 -0.298,-0.682 -0.215,-0.429 -0.452,-0.768 -0.747,-1.067 -0.212,-0.214 -0.45,-0.404 -0.707,-0.565 0.659,-0.503 1.357,-0.961 2.079,-1.36 2.17,-1.203 4.109,-1.642 5.908,-1.989 2.646,-0.511 6.644,-1.283 12.298,-1.54 2.076,-0.093 4.364,-0.049 6.446,0.125 1.244,0.104 2.092,0.271 3.781,0.603 0.011,0.002 1.086,0.214 2.584,0.848 0.096,0.041 0.194,0.083 0.291,0.131 l -0.06,0.007 1.42,12.782 c -0.71,-0.255 -1.439,-0.473 -2.173,-0.641 -0.868,-0.198 -1.755,-0.335 -2.639,-0.408 l -0.122,-0.01 1.827,16.121 0.01,0.089 h 0.09 c 0.776,-0.01 1.579,0.036 2.363,0.124 0.866,0.098 1.734,0.255 2.581,0.467 l 0.141,0.035 -1.861,-15.643 v 0 l -1.427,-12.84 c 0.242,0.132 0.484,0.298 0.711,0.553 0.248,0.28 0.434,0.611 0.548,0.963 0.283,3.207 0.609,6.415 0.969,9.534 0.476,4.125 0.898,7.139 1.307,10.054 0.436,3.117 0.849,6.061 1.317,10.227 z M 54.62,33.136 56.44,48.431 c -0.81,-0.196 -1.639,-0.343 -2.466,-0.436 -0.743,-0.084 -1.496,-0.126 -2.24,-0.126 -0.019,0 -0.038,0 -0.057,0 l -1.789,-15.79 c 0.834,0.075 1.671,0.207 2.489,0.394 0.758,0.173 1.512,0.396 2.243,0.663 z m 0.783,-5.656 c 0.299,0.253 0.725,0.672 0.955,1.135 0.835,1.687 -0.272,3.68 -0.397,3.897 -0.049,-0.415 -0.099,-0.835 -0.15,-1.273 -0.143,-1.238 -0.276,-2.498 -0.408,-3.759 z m 5.834,5.44 c -0.112,1.481 -0.308,2.34 -0.891,4.89 -0.11,0.481 -0.233,1.021 -0.373,1.637 -0.349,1.543 -0.692,3.108 -1.025,4.658 l -1.43,0.071 c -0.133,-0.972 -0.265,-1.924 -0.4,-2.887 -0.24,-1.713 -0.485,-3.466 -0.743,-5.453 0.417,-1.118 0.701,-2.212 0.775,-2.867 0.118,-1.055 0.295,-2.628 -0.417,-4.375 -0.394,-0.968 -1.037,-1.757 -1.447,-2.21 -0.055,-0.547 -0.104,-1.102 -0.157,-1.652 0.163,0.096 0.355,0.222 0.559,0.385 0,0 0.334,0.266 0.628,0.602 0.403,0.46 0.978,1.425 1.349,2.797 0.057,0.212 0.286,1.084 0.344,2.281 0.038,0.786 -0.018,1.338 -0.13,2.443 -0.096,0.949 -0.194,1.889 -0.479,3.104 -0.207,0.88 -0.443,1.62 -0.646,2.188 0.028,0.194 0.056,0.389 0.083,0.583 0.361,-1.062 0.595,-1.988 0.75,-2.708 0.267,-1.243 0.365,-2.178 0.469,-3.172 0.118,-1.128 0.176,-1.707 0.141,-2.453 -0.046,-0.974 -0.215,-1.771 -0.359,-2.313 -0.119,-0.616 -0.438,-1.791 -1.396,-2.875 -0.462,-0.522 -0.945,-0.881 -1.337,-1.122 -0.003,-0.033 -0.006,-0.065 -0.009,-0.098 0.588,-0.012 1.163,-0.017 1.755,-0.011 0.541,0.005 0.927,0.016 1.222,0.032 l -0.011,0.024 c 0.42,0.2 0.807,0.457 1.148,0.765 0.729,0.659 1.063,1.39 1.205,1.702 1.078,2.365 0.833,5.885 0.822,6.034 z"
             id="path140" /><path
             d="m 45.775,31.563 c -1.212,-0.016 -2.331,0.036 -3.344,0.125 0.521,5.396 1.042,10.792 1.563,16.188 1.17,-0.052 2.379,-0.084 3.625,-0.094 1.157,-0.009 2.283,0.003 3.375,0.031 C 50.379,42.469 49.765,37.125 49.15,31.782 48.13,31.663 47,31.579 45.775,31.563 Z m 3.84,14.627 c -0.533,0.635 -1.395,0.717 -2.087,0.717 -1.992,0 -2.84,-0.899 -3.238,-3.438 -0.208,-1.326 -0.085,-2.171 0.4,-2.738 0.421,-0.493 1.092,-0.732 2.051,-0.732 2.276,0 2.802,0.797 3.227,3.193 0.258,1.45 0.145,2.403 -0.353,2.998 z m -0.833,-7.584 c -0.533,0.635 -1.395,0.717 -2.087,0.717 -1.992,0 -2.84,-0.899 -3.238,-3.438 -0.208,-1.326 -0.085,-2.171 0.4,-2.738 0.421,-0.493 1.092,-0.732 2.051,-0.732 2.276,0 2.802,0.797 3.227,3.193 0.257,1.45 0.145,2.403 -0.353,2.998 z"
             id="path142" /><path
             d="m 48.522,34.669 h -4.755 c -0.008,0.244 0.009,0.513 0.043,0.8 h 4.89 c -0.056,-0.297 -0.115,-0.562 -0.178,-0.8 z"
             id="path144" /><path
             d="m 43.919,36.169 c 0.055,0.295 0.118,0.563 0.188,0.8 h 4.747 c 0.003,-0.237 -0.014,-0.504 -0.05,-0.8 z"
             id="path146" /><path
             d="m 46.695,38.923 c 1.086,0 1.844,-0.263 2.083,-1.254 h -4.407 c 0.479,0.985 1.204,1.254 2.324,1.254 z"
             id="path148" /><path
             d="m 45.908,32.815 c -1.21,0 -1.811,0.413 -2.036,1.154 h 4.411 c -0.386,-0.853 -1.011,-1.154 -2.375,-1.154 z"
             id="path150" /><polygon
             points="63.982,48.083 66.748,48.083 66.665,47.283 63.917,47.283 "
             id="polygon152"
             transform="translate(-18.538,-5.031)" /><polygon
             points="64.103,49.583 66.903,49.583 66.821,48.783 64.038,48.783 "
             id="polygon154"
             transform="translate(-18.538,-5.031)" /><path
             d="m 45.621,45.252 0.053,0.664 c 0.453,0.446 1.052,0.59 1.858,0.59 0.386,0 0.728,-0.036 1.023,-0.123 l -0.117,-1.131 z"
             id="path156" /><path
             d="m 47.95,40.545 c -0.284,-0.082 -0.7,-0.168 -1.205,-0.148 -0.668,0.027 -1.184,0.227 -1.485,0.371 l 0.063,0.783 h 2.732 c -0.015,-0.108 -0.03,-0.216 -0.046,-0.324 0.116,0.051 0.287,0.144 0.441,0.312 0.066,0.071 0.239,0.277 0.413,1.073 0.071,0.325 0.11,0.605 0.136,0.839 0.049,0.442 0.06,0.819 0.06,1.101 0.232,0 0.464,0 0.696,0 -0.01,-0.314 -0.037,-0.768 -0.113,-1.313 -0.051,-0.367 -0.076,-0.573 -0.149,-0.847 -0.128,-0.485 -0.246,-0.932 -0.612,-1.31 -0.137,-0.142 -0.427,-0.396 -0.931,-0.537 z"
             id="path158" /></g><text
         x="7.6650028"
         y="122.68403"
         fill="#000000"
         font-size="5px"
         font-weight="bold"
         font-family="'Helvetica Neue', Helvetica, Arial-Unicode, Arial, Sans-serif"
         id="text160">Created by Arthur Shlain</text><text
         x="7.6650028"
         y="127.68403"
         fill="#000000"
         font-size="5px"
         font-weight="bold"
         font-family="'Helvetica Neue', Helvetica, Arial-Unicode, Arial, Sans-serif"
         id="text162">from the Noun Project</text><circle
         style="fill:none;stroke:#000000;stroke-width:2;stroke-opacity:1"
         id="path995"
         cx="57.631027"
         cy="57.631027"
         r="55.26263" /></svg>
