<?xml version="1.0" encoding="UTF-8" standalone="no"?>
<svg
   data-name="Layer 1"
   viewBox="0 0 146.50247 146.50247"
   x="0px"
   y="0px"
   version="1.1"
   id="svg26"
   sodipodi:docname="mikenakis-io.svg"
   width="146.50247"
   height="146.50247"
   inkscape:version="1.1.1 (3bf5ae0d25, 2021-09-20)"
   xmlns:inkscape="http://www.inkscape.org/namespaces/inkscape"
   xmlns:sodipodi="http://sodipodi.sourceforge.net/DTD/sodipodi-0.dtd"
   xmlns="http://www.w3.org/2000/svg"
   xmlns:svg="http://www.w3.org/2000/svg"
   xmlns:rdf="http://www.w3.org/1999/02/22-rdf-syntax-ns#"
   xmlns:cc="http://creativecommons.org/ns#"
   xmlns:dc="http://purl.org/dc/elements/1.1/">
  <defs
     id="defs30" />
  <sodipodi:namedview
     id="namedview28"
     pagecolor="#505050"
     bordercolor="#ffffff"
     borderopacity="1"
     inkscape:pageshadow="0"
     inkscape:pageopacity="0"
     inkscape:pagecheckerboard="1"
     showgrid="false"
     fit-margin-top="10"
     fit-margin-left="10"
     fit-margin-right="10"
     fit-margin-bottom="10"
     inkscape:zoom="2.3923779"
     inkscape:cx="84.225822"
     inkscape:cy="10.658851"
     inkscape:window-width="2560"
     inkscape:window-height="1361"
     inkscape:window-x="-9"
     inkscape:window-y="-9"
     inkscape:window-maximized="1"
     inkscape:current-layer="svg26" />
  <title
     id="title2">Artboard 76</title>
  <circle
     style="fill:#c0c0c0;stroke-width:8.75583"
     id="path871"
     cx="73.251236"
     cy="73.251236"
     r="63.251232" />
  <g
     id="g962"
     transform="translate(25.253286,25.251156)">
    <path
       d="M 48,96 A 48,48 0 0 1 14.05909,14.0586 48.000035,48.000035 0 0 1 81.94089,81.9414 47.6864,47.6864 0 0 1 48,96 Z M 48,4 A 44.0005,44.0005 0 0 0 16.88719,79.1133 44.0005,44.0005 0 0 0 79.11279,16.8867 43.71167,43.71167 0 0 0 48,4 Z"
       id="path4" />
    <path
       d="M 48,88 A 40.00017,40.00017 0 0 1 42.74019,8.3467 2.02241,2.02241 0 0 1 44.31929,8.8271 1.99891,1.99891 0 0 1 45,10.3301 V 15 h 6 V 10.3301 A 1.999,1.999 0 0 1 51.68069,8.8271 2.02243,2.02243 0 0 1 53.25979,8.3467 40.00019,40.00019 0 0 1 48,88 Z M 41,12.6836 a 36,36 0 1 0 14,0 V 17 a 2.0001,2.0001 0 0 1 -2,2 H 43 a 2.00008,2.00008 0 0 1 -2,-2 z"
       id="path6" />
    <path
       d="M 71,54 A 6.00067,6.00067 0 1 1 75.24269,52.2422 5.95795,5.95795 0 0 1 71,54 Z m 0,-8 a 2.0002,2.0002 0 0 0 -1.41461,3.4141 2.0479,2.0479 0 0 0 2.8287,0 A 1.99975,1.99975 0 0 0 71,46 Z"
       id="path8" />
    <path
       d="M 24,54 A 6.00067,6.00067 0 1 1 28.24269,52.2422 5.95795,5.95795 0 0 1 24,54 Z m 0,-8 a 2.0002,2.0002 0 0 0 -1.41461,3.4141 2.0479,2.0479 0 0 0 2.8287,0 A 1.99975,1.99975 0 0 0 24,46 Z"
       id="path10" />
    <path
       d="m 32.65479,35.5586 q -0.279,0 -0.5596,-0.0264 a 5.95839,5.95839 0 1 1 0.5596,0.0264 z m -0.0161,-8.001 a 2.01292,2.01292 0 1 0 0.185,0.0088 c -0.062,-0.0059 -0.1235,-0.0088 -0.185,-0.0088 z"
       id="path12" />
    <path
       d="m 63.02829,35.2979 a 6.0239,6.0239 0 1 1 0.6582,-0.0362 5.95412,5.95412 0 0 1 -0.6582,0.0362 z m 0.0152,-8.001 a 2.08207,2.08207 0 0 0 -0.2198,0.0117 1.99989,1.99989 0 1 0 0.2198,-0.0117 z"
       id="path14" />
    <path
       d="m 34.67919,73.9746 a 6.00092,6.00092 0 1 1 3.3394,-10.9961 v 0 a 6.00025,6.00025 0 0 1 -2.1475,10.877 6.03038,6.03038 0 0 1 -1.1919,0.1191 z m 0.0181,-8.0029 a 2.03719,2.03719 0 0 0 -0.3975,0.04 1.99954,1.99954 0 1 0 1.502,0.2969 l -5e-4,-0.001 a 1.98932,1.98932 0 0 0 -1.104,-0.3359 z"
       id="path16" />
    <path
       d="m 61.10349,74.1172 a 6.087,6.087 0 0 1 -1.2534,-0.1318 6.00137,6.00137 0 0 1 -2.0322,-10.8995 h 0.0014 a 5.99958,5.99958 0 1 1 3.2842,11.0313 z m -1.1011,-7.6797 a 2.00093,2.00093 0 1 0 1.503,-0.2793 1.99082,1.99082 0 0 0 -1.503,0.2793 z"
       id="path18" />
    <path
       d="M 53,48 H 43 A 2.00008,2.00008 0 0 1 41,46 V 25 a 2.00008,2.00008 0 0 1 2,-2 h 10 a 2.0001,2.0001 0 0 1 2,2 v 21 a 2.0001,2.0001 0 0 1 -2,2 z m -8,-4 h 6 V 27 h -6 z"
       id="path20" />
  </g>
  <metadata
     id="metadata847">
    <rdf:RDF>
      <cc:Work
         rdf:about="">
        <dc:title>Artboard 76</dc:title>
      </cc:Work>
    </rdf:RDF>
  </metadata>
</svg>
