<?xml version="1.0" encoding="UTF-8" standalone="no"?>
<svg
   version="1.1"
   x="0px"
   y="0px"
   viewBox="0 0 147.03085 146.84729"
   xml:space="preserve"
   id="svg30"
   sodipodi:docname="tyraki-logo.svg"
   width="147.03085"
   height="146.84729"
   inkscape:version="1.1.1 (3bf5ae0d25, 2021-09-20)"
   xmlns:inkscape="http://www.inkscape.org/namespaces/inkscape"
   xmlns:sodipodi="http://sodipodi.sourceforge.net/DTD/sodipodi-0.dtd"
   xmlns="http://www.w3.org/2000/svg"
   xmlns:svg="http://www.w3.org/2000/svg"><defs
     id="defs34" /><sodipodi:namedview
     id="namedview32"
     pagecolor="#505050"
     bordercolor="#ffffff"
     borderopacity="1"
     inkscape:pageshadow="0"
     inkscape:pageopacity="0"
     inkscape:pagecheckerboard="1"
     showgrid="false"
     fit-margin-top="10"
     fit-margin-left="10"
     fit-margin-right="10"
     fit-margin-bottom="10"
     inkscape:zoom="6.496"
     inkscape:cx="65.347906"
     inkscape:cy="83.974754"
     inkscape:window-width="2560"
     inkscape:window-height="1361"
     inkscape:window-x="2551"
     inkscape:window-y="-9"
     inkscape:window-maximized="1"
     inkscape:current-layer="svg30" /><style
     type="text/css"
     id="style2">
	.st0{fill:none;stroke:#000000;stroke-width:1.4173229;stroke-linecap:round;stroke-linejoin:round;stroke-miterlimit:10;}
</style><ellipse
     style="fill:#bebebe;fill-opacity:1;fill-rule:evenodd;stroke-width:1.19247"
     id="path308"
     cx="73.515427"
     cy="73.423645"
     rx="63.515427"
     ry="63.423645" /><ellipse
     style="fill:none;fill-opacity:1;fill-rule:evenodd;stroke:#000000;stroke-width:1.97271;stroke-miterlimit:4;stroke-dasharray:none;stroke-opacity:1"
     id="path308-6"
     cx="73.515427"
     cy="73.423645"
     rx="60.219341"
     ry="60.132324" /><g
     id="g398"
     transform="translate(23.704605,15.540638)"><path
       d="m 29.075656,59.130046 c 0.0039,0.0459 0.01221,0.09082 0.0249,0.134766 l 0.114746,0.394531 c 0.01367,0.0459 0.03174,0.08984 0.05371,0.132812 l 0.1875,0.355469 c 0.02295,0.04297 0.05029,0.08398 0.08203,0.12207 l 0.256348,0.308594 c 0.03076,0.03711 0.06592,0.07129 0.104004,0.101563 l 0.318359,0.252929 c 0.03613,0.0293 0.0752,0.05371 0.116211,0.0752 l 0.373047,0.192382 c 0.03809,0.01953 0.07813,0.03613 0.119141,0.04785 l 0.418457,0.126953 c 0.0376,0.01172 0.07666,0.02051 0.116211,0.02539 l 0.453125,0.05762 c 0.02979,0.0039 0.05957,0.0059 0.08935,0.0059 0.0063,0 0.0127,0 0.01904,-9.76e-4 l 0.476563,-0.0127 c 0.0332,-9.76e-4 0.06641,-0.0039 0.09961,-0.0098 l 0.57959,-0.104492 0.570801,-0.181641 0.552734,-0.254883 0.521484,-0.322265 0.482911,-0.382813 0.430175,-0.435547 0.370606,-0.480469 0.300293,-0.518554 0.1875,-0.445313 c 0.01318,-0.03223 0.02441,-0.06543 0.0332,-0.09961 l 0.114746,-0.448242 c 0.0098,-0.03809 0.01611,-0.07617 0.01953,-0.115235 l 0.03809,-0.441406 c 0.0034,-0.04102 0.0034,-0.08301 -4.88e-4,-0.124023 l -0.03809,-0.422852 c -0.0039,-0.0459 -0.01221,-0.09082 -0.0249,-0.134766 l -0.114746,-0.394531 c -0.01367,-0.0459 -0.03174,-0.08984 -0.05371,-0.132812 l -0.1875,-0.355469 c -0.02295,-0.04297 -0.05029,-0.08398 -0.08203,-0.12207 l -0.256347,-0.308594 c -0.03076,-0.03711 -0.06592,-0.07129 -0.104004,-0.101563 l -0.31836,-0.252929 c -0.03613,-0.0293 -0.0752,-0.05371 -0.11621,-0.0752 l -0.373047,-0.192383 c -0.03809,-0.01953 -0.07813,-0.03613 -0.119141,-0.04785 l -0.418457,-0.126953 c -0.03809,-0.01172 -0.07666,-0.02051 -0.116211,-0.02539 l -0.453125,-0.05762 c -0.03662,-0.0049 -0.07422,-0.0098 -0.109863,-0.0049 l -0.573242,0.02246 -0.581543,0.104492 -0.570313,0.181641 -0.552734,0.254883 -0.522461,0.322265 -0.480957,0.382813 -0.431641,0.435547 -0.369629,0.481445 -0.300781,0.517578 -0.1875,0.445313 c -0.01318,0.03223 -0.02441,0.06543 -0.0332,0.09961 l -0.114746,0.448242 c -0.0098,0.03809 -0.01611,0.07617 -0.01953,0.115235 l -0.03809,0.441406 c -0.0034,0.04102 -0.0034,0.08301 4.88e-4,0.124023 z m 1.406738,-0.808594 0.08887,-0.347656 0.326172,-0.658203 0.259766,-0.340821 0.310547,-0.314453 0.349121,-0.279297 0.376953,-0.234375 0.395019,-0.18457 0.396485,-0.128906 0.392578,-0.07324 0.421387,-0.01172 0.339355,0.04297 0.299316,0.09082 0.253907,0.130859 0.207031,0.164063 0.162109,0.195312 0.119629,0.226563 0.0752,0.259765 0.02637,0.291993 -0.02783,0.321289 -0.08887,0.347656 -0.325684,0.65918 -0.26123,0.34082 -0.308594,0.314453 -0.350098,0.27832 -0.376953,0.234375 -0.39502,0.184571 -0.398437,0.129882 -0.438965,0.07422 -0.37207,0.0098 -0.340332,-0.04297 -0.299317,-0.09082 -0.253906,-0.13086 -0.207031,-0.164062 -0.16211,-0.195313 -0.119628,-0.226562 -0.0752,-0.259766 -0.02637,-0.291992 z"
       id="path4" /><path
       d="m 64.224582,54.238444 c 0.0054,0.03613 0.01416,0.07324 0.02539,0.108399 l 0.151856,0.476562 c 0.01221,0.03809 0.02734,0.07422 0.04492,0.109375 l 0.225097,0.4375 c 0.01855,0.03613 0.04004,0.06934 0.06396,0.101563 l 0.293945,0.390625 c 0.02393,0.03223 0.05078,0.06152 0.07959,0.08887 l 0.358399,0.338867 c 0.02832,0.02734 0.05859,0.05078 0.09033,0.07324 l 0.416992,0.28125 c 0.03125,0.02051 0.06397,0.03906 0.09766,0.05469 l 0.46875,0.217773 c 0.03174,0.01465 0.06397,0.02734 0.09717,0.03711 l 0.608399,0.172851 0.636718,0.09082 0.65918,0.01074 0.671387,-0.06836 0.67041,-0.146484 0.664551,-0.21875 0.645996,-0.289063 0.620605,-0.353515 0.585938,-0.414063 0.542969,-0.46875 0.489257,-0.515625 0.431641,-0.557617 0.364746,-0.59082 0.291504,-0.615235 0.212891,-0.633789 0.127929,-0.643554 0.03809,-0.53711 c 0.0024,-0.0332 0.0024,-0.06738 -4.88e-4,-0.101562 l -0.03809,-0.519532 c -0.0024,-0.03711 -0.0078,-0.07324 -0.01611,-0.108398 l -0.114746,-0.493164 c -0.0088,-0.03809 -0.021,-0.0752 -0.03565,-0.110352 l -0.188965,-0.457031 c -0.01514,-0.03711 -0.0332,-0.07227 -0.0542,-0.105469 l -0.259765,-0.415039 c -0.021,-0.03418 -0.04541,-0.06641 -0.07227,-0.0957 L 73.79343,48.403483 c -0.02637,-0.03027 -0.05518,-0.05762 -0.08594,-0.08203 l -0.38867,-0.310548 c -0.02978,-0.02344 -0.06103,-0.04492 -0.09424,-0.06348 l -0.44336,-0.25 c -0.03125,-0.01758 -0.06396,-0.0332 -0.09814,-0.0459 l -0.491699,-0.185547 c -0.03125,-0.01172 -0.06348,-0.02148 -0.09619,-0.02832 l -0.625488,-0.132813 -0.648437,-0.0498 -0.666016,0.0293 -0.671875,0.107422 -0.669434,0.182618 -0.655761,0.254882 -0.635743,0.322266 -0.603027,0.384766 -0.56543,0.441406 -0.517578,0.493164 -0.461426,0.538086 -0.398925,0.574219 -0.328614,0.604492 -0.253418,0.625976 -0.17041,0.639649 -0.0835,0.642578 v 0.529297 c 0,0.03516 0.0024,0.07129 0.0078,0.106445 z m 1.383789,-1.49707 0.123535,-0.467773 0.19043,-0.472657 0.253418,-0.467773 0.313964,-0.452148 0.368165,-0.429688 0.416015,-0.397461 0.45752,-0.357422 0.486816,-0.311523 0.510742,-0.259766 0.521485,-0.204101 0.523925,-0.144532 0.514649,-0.08398 0.498047,-0.02344 0.46875,0.0332 0.482422,0.107421 0.394043,0.148438 0.346191,0.195312 0.297852,0.238282 0.24707,0.276367 0.196289,0.313477 0.144043,0.348632 0.08936,0.382813 0.03076,0.419922 -0.02197,0.384765 -0.09082,0.461914 -0.157226,0.47168 -0.222168,0.470703 -0.28418,0.460938 -0.342773,0.443359 -0.39209,0.414063 -0.4375,0.377929 -0.473633,0.335938 -0.500488,0.286133 -0.516114,0.232422 -0.52539,0.173828 -0.519532,0.115234 -0.507324,0.05371 -0.48584,-0.0059 -0.452148,-0.0625 -0.462891,-0.136719 -0.370605,-0.172852 -0.322266,-0.216797 -0.272461,-0.257812 -0.221679,-0.294922 -0.17041,-0.331055 -0.1167,-0.366211 -0.06152,-0.405273 -0.0059,-0.371094 z"
       id="path8" /><path
       d="m 33.589328,87.994304 c -0.0059,-0.05371 -0.01758,-0.107422 -0.03565,-0.158203 l -0.114741,-0.329102 c -0.01856,-0.05371 -0.04395,-0.105469 -0.0752,-0.15332 l -0.187007,-0.28711 c -0.03125,-0.04883 -0.06885,-0.09277 -0.11084,-0.131836 l -0.252929,-0.235351 c -0.04053,-0.03809 -0.08545,-0.07031 -0.133301,-0.09766 L 32.369601,86.42594 c -0.04443,-0.02539 -0.09131,-0.0459 -0.140137,-0.06055 l -0.356445,-0.110351 c -0.04443,-0.01367 -0.09082,-0.02344 -0.137207,-0.02832 l -0.391113,-0.04004 c -0.04053,-0.0029 -0.08252,-0.0039 -0.124024,-0.002 l -0.412109,0.03027 c -0.03857,0.0029 -0.07617,0.0088 -0.113281,0.01758 l -0.419434,0.100586 c -0.03467,0.0088 -0.06836,0.01953 -0.100586,0.03223 l -0.413086,0.166992 c -0.03076,0.0127 -0.06103,0.02734 -0.09033,0.04492 l -0.472656,0.283203 -0.429687,0.34668 -0.310059,0.323242 c -0.02441,0.02539 -0.04687,0.05176 -0.0669,0.08106 l -0.252441,0.356445 c -0.02148,0.0293 -0.04053,0.06152 -0.05664,0.09375 l -0.187011,0.376953 c -0.01807,0.03613 -0.03271,0.07422 -0.04443,0.112305 l -0.114746,0.383789 c -0.0127,0.04297 -0.02148,0.08691 -0.02588,0.13086 l -0.03857,0.377929 c -0.0049,0.0498 -0.0049,0.09863 4.88e-4,0.147461 l 0.03857,0.360352 c 0.0059,0.05371 0.01758,0.107422 0.03565,0.158203 l 0.114746,0.329101 c 0.01855,0.05371 0.04394,0.105469 0.07519,0.153321 l 0.187012,0.287109 c 0.03125,0.04785 0.06836,0.09277 0.110352,0.131836 l 0.252441,0.235352 c 0.04053,0.03809 0.08545,0.07031 0.133789,0.09766 l 0.310059,0.175781 c 0.04492,0.02539 0.09229,0.0459 0.141601,0.06152 l 0.356446,0.109375 c 0.04395,0.0127 0.08887,0.02246 0.134277,0.02734 l 0.391113,0.04102 c 0.02441,0.002 0.04883,0.0039 0.07373,0.0039 0.01807,0 0.03564,-9.76e-4 0.05371,-0.002 l 0.412597,-0.03125 c 0.03711,-0.0029 0.07373,-0.0088 0.109864,-0.01758 l 0.419433,-0.09961 c 0.03516,-0.0078 0.06934,-0.01953 0.102539,-0.03223 l 0.41211,-0.166992 c 0.03125,-0.01269 0.06104,-0.02734 0.09033,-0.04492 l 0.472656,-0.283203 0.356445,-0.280273 c 0.02637,-0.02051 0.05127,-0.04297 0.07422,-0.06641 l 0.310059,-0.324219 c 0.02393,-0.02539 0.0459,-0.05176 0.06592,-0.08008 l 0.252929,-0.356445 c 0.021,-0.03027 0.04004,-0.06152 0.05615,-0.09473 l 0.187011,-0.375976 c 0.01807,-0.03613 0.0332,-0.07324 0.04492,-0.112305 l 0.114746,-0.383789 c 0.0127,-0.04297 0.02148,-0.08691 0.02588,-0.131836 l 0.03857,-0.378906 c 0.0049,-0.04883 0.0049,-0.09766 -4.89e-4,-0.146485 z m -1.402832,0.674804 -0.213379,0.533203 -0.436035,0.525391 -0.577637,0.390625 -0.31543,0.12793 -0.3125,0.07422 -0.292969,0.02148 -0.259277,-0.02637 -0.38623,-0.163086 -0.221192,-0.261719 -0.08154,-0.376953 0.102539,-0.499023 0.330567,-0.547852 0.470215,-0.4375 0.347168,-0.202148 0.316894,-0.12793 0.312012,-0.0752 0.29248,-0.02148 0.259278,0.02734 0.386718,0.163086 0.221192,0.261719 0.08154,0.375976 z"
       id="path10" /><path
       d="M 49.775363,76.764812 49.65964,76.255046 c -0.0083,-0.03613 -0.01953,-0.07227 -0.03369,-0.107422 l -0.191406,-0.474609 c -0.01465,-0.03613 -0.03223,-0.07129 -0.05225,-0.104493 l -0.26416,-0.432617 c -0.02051,-0.0332 -0.04346,-0.06543 -0.06934,-0.09473 l -0.331543,-0.382813 c -0.02539,-0.0293 -0.05371,-0.05664 -0.0835,-0.08203 l -0.395019,-0.327149 c -0.02881,-0.02344 -0.05908,-0.04492 -0.09082,-0.06348 l -0.45166,-0.267578 c -0.03125,-0.01855 -0.06397,-0.03516 -0.09766,-0.04785 l -0.594238,-0.231445 -0.635743,-0.151367 -0.663085,-0.06836 -0.680176,0.01367 -0.689453,0.0918 -0.689942,0.167969 -0.679687,0.243164 -0.659668,0.310547 -0.632813,0.375976 -0.595215,0.436524 -0.550293,0.489258 -0.496582,0.536132 -0.437011,0.576172 -0.367676,0.609375 -0.294922,0.634766 -0.214355,0.65039 -0.128907,0.65918 -0.03857,0.655274 0.03857,0.537109 c 0.0029,0.03613 0.0083,0.07129 0.01611,0.106445 l 0.11621,0.510742 c 0.0083,0.03711 0.01953,0.07324 0.03369,0.107422 l 0.191406,0.47461 c 0.01465,0.03613 0.03223,0.07129 0.05225,0.104492 l 0.26416,0.432617 c 0.02051,0.0332 0.04346,0.06543 0.06934,0.09473 l 0.331543,0.382812 c 0.02539,0.0293 0.05371,0.05664 0.0835,0.08203 l 0.39502,0.327148 c 0.02881,0.02344 0.05957,0.04492 0.0918,0.06445 l 0.45166,0.266602 c 0.03076,0.01758 0.0625,0.0332 0.09521,0.04687 l 0.500976,0.202148 c 0.03125,0.01269 0.06299,0.02246 0.0957,0.03125 l 0.633789,0.149414 0.664062,0.06934 0.680176,-0.01367 0.69043,-0.0918 0.687988,-0.168945 0.680664,-0.242188 0.659668,-0.310546 0.632813,-0.376954 0.594726,-0.43457 0.550781,-0.490234 0.497071,-0.536133 0.436035,-0.577148 0.368164,-0.608399 0.294922,-0.634765 0.214355,-0.651368 0.128418,-0.657226 0.03906,-0.555664 c 0.0024,-0.03418 0.0024,-0.06738 0,-0.101563 l -0.03906,-0.538086 c -0.0029,-0.03516 -0.0083,-0.07031 -0.01611,-0.105468 z m -1.385254,1.108398 -0.09277,0.481445 -0.160644,0.490235 -0.227539,0.49121 -0.290527,0.480473 -0.34961,0.463863 -0.402344,0.434571 -0.449218,0.40039 -0.48584,0.355469 -0.516602,0.308594 -0.534179,0.25293 -0.545899,0.194336 -0.543457,0.134765 -0.534668,0.07227 -0.512207,0.01269 -0.485351,-0.04883 -0.494141,-0.121094 -0.404785,-0.164062 -0.357422,-0.210938 -0.306641,-0.253906 -0.254394,-0.293945 -0.203125,-0.332032 -0.148438,-0.368164 -0.09277,-0.408203 -0.0332,-0.37793 0.02588,-0.461914 0.09326,-0.481445 0.160645,-0.490234 0.228027,-0.491211 0.289551,-0.481446 0.350098,-0.46289 0.402343,-0.435547 0.448731,-0.398438 0.486328,-0.356445 0.516602,-0.308594 0.535156,-0.252929 0.543945,-0.195313 0.544434,-0.133789 0.534668,-0.07227 0.513183,-0.0127 0.482911,0.04687 0.449707,0.104492 0.450683,0.181641 0.356934,0.210937 0.307129,0.254883 0.254394,0.293946 0.203125,0.332031 0.147949,0.367187 0.09131,0.402344 0.03223,0.439453 z"
       id="path12" /><path
       d="m 65.491671,81.33903 c -0.0024,-0.03613 -0.0078,-0.07227 -0.01611,-0.107422 l -0.115234,-0.49707 c -0.0088,-0.03809 -0.02051,-0.07422 -0.03565,-0.110352 L 65.13425,80.163249 c -0.01514,-0.03711 -0.0332,-0.07227 -0.05469,-0.106445 l -0.262207,-0.417969 c -0.021,-0.0332 -0.04492,-0.06543 -0.07129,-0.09473 l -0.32959,-0.36914 c -0.02685,-0.03027 -0.05566,-0.05762 -0.08691,-0.08203 l -0.391602,-0.3125 c -0.0293,-0.02344 -0.06103,-0.04492 -0.09375,-0.06348 l -0.446777,-0.251953 c -0.03125,-0.01758 -0.06397,-0.0332 -0.09717,-0.0459 l -0.495605,-0.1875 c -0.03223,-0.01172 -0.06494,-0.02148 -0.09815,-0.0293 l -0.627441,-0.131835 -0.653809,-0.05078 -0.670898,0.0293 -0.67627,0.108399 -0.673828,0.183593 -0.661621,0.256836 -0.638184,0.324219 -0.609375,0.386719 -0.569335,0.446289 -0.52002,0.496094 -0.46582,0.541015 -0.401367,0.579102 -0.331543,0.608398 -0.254395,0.629883 -0.171875,0.644531 -0.08398,0.646485 v 0.533203 c 0,0.03516 0.0024,0.07031 0.0078,0.105469 l 0.07715,0.511718 c 0.0054,0.03711 0.01416,0.07422 0.02588,0.110352 l 0.15332,0.479492 c 0.01172,0.03711 0.02685,0.07324 0.04443,0.108399 l 0.226563,0.440429 c 0.01855,0.03516 0.03955,0.06934 0.06397,0.101563 l 0.296386,0.394531 c 0.02393,0.03223 0.05029,0.06152 0.07959,0.08887 l 0.361328,0.341797 c 0.02832,0.02734 0.05859,0.05176 0.09082,0.07324 l 0.42041,0.283204 c 0.03076,0.02051 0.06348,0.03906 0.09717,0.05469 l 0.472168,0.219727 c 0.03125,0.01465 0.06397,0.02734 0.09717,0.03711 l 0.611816,0.173828 0.642578,0.0918 0.664063,0.01074 0.674805,-0.06934 0.674316,-0.146484 0.669922,-0.220703 0.651367,-0.291016 0.624512,-0.357422 0.589844,-0.416015 0.546386,-0.472657 0.493653,-0.519531 0.434082,-0.560547 0.367187,-0.594726 0.293945,-0.620118 0.214356,-0.638671 0.128418,-0.645508 0.03906,-0.541992 c 0.0024,-0.03418 0.0024,-0.06934 -4.88e-4,-0.103516 z m -1.40039,0.973633 -0.09131,0.464844 -0.158691,0.475586 -0.22461,0.475586 -0.287109,0.46582 -0.344727,0.446289 -0.395996,0.416992 -0.441406,0.382813 -0.478027,0.33789 -0.504395,0.289063 -0.520507,0.233398 -0.530762,0.175782 -0.524902,0.11621 -0.511231,0.05469 -0.489258,-0.0059 -0.457519,-0.06348 -0.466797,-0.137695 -0.374024,-0.174805 -0.325683,-0.21875 -0.274902,-0.260742 -0.22461,-0.298828 -0.171875,-0.333985 -0.118164,-0.370117 -0.06201,-0.40918 -0.0059,-0.375 0.05859,-0.457031 0.125488,-0.472656 0.191406,-0.476563 0.256348,-0.471679 0.315918,-0.457032 0.372559,-0.433593 0.419433,-0.400391 0.459961,-0.361328 0.493652,-0.314453 0.513672,-0.261719 0.525879,-0.205078 0.528809,-0.145508 0.519531,-0.08496 0.501953,-0.02344 0.475098,0.03516 0.48584,0.106445 0.396972,0.150391 0.350586,0.197265 0.300293,0.240235 0.25,0.280273 0.198243,0.316407 0.145507,0.351562 0.08984,0.387695 0.03174,0.422852 z"
       id="path16" /><path
       d="m 81.692839,67.044108 -0.23291,-0.677734 -0.320312,-0.630859 -0.342285,-0.500977 c -0.01904,-0.02832 -0.03955,-0.05469 -0.0625,-0.0791 l -0.480957,-0.515625 -0.552735,-0.449218 -0.611816,-0.373047 -0.664551,-0.295899 -0.710449,-0.21875 -0.743653,-0.136718 -0.770996,-0.05762 -0.790527,0.02148 -0.800293,0.09961 -0.802734,0.175781 -0.164795,0.05151 c -0.02319,0.007 -0.04553,0.0119 -0.06805,0.0213 l -0.563538,0.176209 -0.783691,0.320312 -0.761231,0.387696 -0.731445,0.451172 -0.694336,0.508789 -0.649414,0.561523 -0.599121,0.609375 -0.540039,0.650391 -0.215821,0.310913 c -0.02142,0.02441 -0.03644,0.05109 -0.05414,0.07794 l -0.206604,0.297668 -0.407227,0.713867 -0.332519,0.735352 -0.253906,0.75 -0.169922,0.754883 -0.08398,0.754883 0.0054,0.74414 0.09619,0.723633 0.1875,0.695312 0.277344,0.65625 0.363281,0.606446 0.443848,0.548828 0.51709,0.482422 0.584472,0.412109 0.638672,0.334961 0.689453,0.257813 0.727051,0.176757 0.758789,0.09766 0.781739,0.01855 0.796875,-0.06055 0.801757,-0.138672 0.801758,-0.21289 0.790039,-0.285156 0.773438,-0.354492 0.747558,-0.419922 0.713379,-0.479493 0.67334,-0.536132 0.625,-0.586915 0.569824,-0.630859 0.509277,-0.668945 0.442871,-0.701172 0.370606,-0.725586 0.293457,-0.744141 0.212402,-0.752929 0.127442,-0.75586 0.03955,-0.665039 c 0.0015,-0.02832 0.0015,-0.05664 0,-0.08496 l -0.05078,-0.735351 z m -11.337402,-0.125 0.562989,-0.487304 0.602539,-0.441407 0.633789,-0.390625 0.657226,-0.33496 0.673828,-0.276368 0.0669,-0.02106 c 0.07642,0.167481 0.124695,0.34607 0.122253,0.53534 l -0.02997,0.33728 -0.08935,0.341797 -0.327637,0.645508 -0.262695,0.333007 -0.310059,0.305665 -0.349121,0.268554 -0.376953,0.22168 -0.38916,0.169922 -0.390137,0.115234 -0.430664,0.05664 -0.357422,-0.0068 -0.320801,-0.05762 -0.277344,-0.102539 -0.229492,-0.139649 -0.0835,-0.07855 0.387695,-0.467346 z m 10.084961,2.157227 -0.101074,0.602539 -0.172363,0.612305 -0.242188,0.615234 -0.310059,0.607422 -0.375488,0.594727 -0.436035,0.573242 -0.490723,0.542969 -0.540527,0.507812 -0.583984,0.46582 -0.618653,0.416016 -0.646972,0.363281 -0.667481,0.306641 -0.676269,0.245117 -0.680665,0.180664 -0.673339,0.117188 -0.65918,0.05176 -0.636231,-0.01367 -0.606933,-0.07715 -0.567871,-0.136719 -0.527832,-0.195312 -0.478027,-0.248047 -0.4292,-0.300782 -0.375976,-0.347656 -0.320801,-0.393554 -0.263184,-0.435547 -0.202636,-0.475586 -0.139649,-0.513672 -0.07373,-0.545899 -0.0049,-0.573242 0.06592,-0.595703 0.13623,-0.607422 0.208008,-0.614258 0.277344,-0.613281 0.04395,-0.07727 c 0.02106,0.01617 0.04083,0.03412 0.06348,0.04797 l 0.350586,0.214844 c 0.03906,0.02344 0.08008,0.04297 0.122558,0.05859 l 0.400879,0.148437 c 0.03906,0.01465 0.0791,0.02637 0.120606,0.0332 l 0.438965,0.0791 c 0.0376,0.0068 0.07568,0.01074 0.113769,0.01172 l 0.467285,0.0078 c 0.0039,0 0.0078,0 0.01172,0 0.03076,0 0.06201,-0.002 0.09228,-0.0068 l 0.578125,-0.08203 0.572754,-0.164062 0.553711,-0.239258 0.526856,-0.307617 0.487793,-0.372071 0.436035,-0.427734 0.375976,-0.473633 0.305665,-0.513672 0.190918,-0.441406 c 0.01416,-0.0332 0.02588,-0.06738 0.03516,-0.101563 l 0.116211,-0.444336 c 0.01025,-0.03808 0.0166,-0.07715 0.02051,-0.117187 l 0.03906,-0.438477 c 7.94e-4,-0.0087 -0.0032,-0.01642 -0.0028,-0.02509 4.89e-4,-0.0084 0.0051,-0.01532 0.0052,-0.02374 0.0064,-0.319763 -0.0509,-0.630127 -0.152343,-0.924438 l 0.569336,-0.07166 0.649414,-0.01855 0.622558,0.0459 0.586914,0.106445 0.549317,0.167969 0.503906,0.222657 0.453125,0.273437 0.403809,0.325195 0.379883,0.415039 0.260742,0.370118 0.23291,0.455078 0.171387,0.496094 0.106933,0.530273 0.03711,0.606445 z"
       id="path18" /><path
       d="m 59.300265,57.205241 -0.231445,-0.660156 -0.26709,-0.52832 c -0.01514,-0.03027 -0.03223,-0.05957 -0.05127,-0.08691 l -0.33789,-0.483403 c -0.01953,-0.02734 -0.0415,-0.05469 -0.06445,-0.0791 l -0.404785,-0.430665 c -0.02295,-0.02441 -0.04785,-0.04687 -0.07373,-0.06836 l -0.546387,-0.428711 -0.605957,-0.355469 -0.657226,-0.279297 -0.698242,-0.198242 -0.731934,-0.120117 -0.756348,-0.04102 -0.773925,0.03809 -0.782227,0.114258 -0.78125,0.19043 -0.109009,0.03686 c -0.01636,0.0042 -0.03131,0.01068 -0.04736,0.01599 l -0.618042,0.208863 -0.757812,0.332031 -0.733887,0.396484 -0.70166,0.458008 -0.663086,0.513672 -0.616699,0.564453 -0.562989,0.610352 -0.502929,0.648437 -0.4375,0.680664 -0.367188,0.706055 -0.291016,0.724609 -0.210449,0.735352 -0.126465,0.738281 -0.03906,0.733399 0.05078,0.717773 0.141602,0.694336 0.231445,0.660156 0.26709,0.528321 c 0.01514,0.03027 0.03272,0.05957 0.05225,0.08789 l 0.338379,0.482422 c 0.01904,0.02734 0.04004,0.05273 0.06299,0.07715 l 0.404785,0.431641 c 0.02295,0.02441 0.04785,0.04785 0.07373,0.06836 l 0.546386,0.429688 0.606446,0.355469 0.655761,0.277344 0.699707,0.200195 0.731934,0.120117 0.757324,0.04102 0.772461,-0.03906 0.78125,-0.114258 0.782227,-0.189453 0.773926,-0.261719 0.758789,-0.332031 0.733886,-0.396484 0.701661,-0.458008 0.663085,-0.514649 0.615723,-0.564453 0.562988,-0.609375 0.503907,-0.648437 0.4375,-0.680664 0.366699,-0.706055 0.291015,-0.725586 0.21045,-0.735351 0.126464,-0.738282 0.03906,-0.645508 c 0.0015,-0.0293 0.0015,-0.05762 0,-0.08691 l -0.05078,-0.71875 z m -11.015136,0.116211 0.529785,-0.485351 0.571777,-0.44336 0.604492,-0.395508 0.630371,-0.34082 0.622071,-0.27301 c 0.01849,0.08099 0.03931,0.161804 0.03833,0.245727 l -0.02905,0.308533 -0.230957,0.62891 -0.419922,0.572262 -0.299316,0.274414 -0.331055,0.233398 -0.353516,0.1875 -0.407715,0.144532 -0.358398,0.07129 -0.337402,0.0166 -0.304199,-0.03516 -0.262696,-0.08008 -0.1604,-0.08637 0.01636,-0.02106 z m 9.763183,1.861328 -0.09912,0.583008 -0.168945,0.591797 -0.238282,0.594726 -0.305175,0.587891 -0.368164,0.573242 -0.428223,0.551758 -0.482422,0.522461 -0.529297,0.485352 -0.571289,0.443359 -0.604492,0.395508 -0.629883,0.34082 -0.648437,0.28418 -0.65625,0.222656 -0.657227,0.160156 -0.649414,0.0957 -0.63086,0.0332 -0.606445,-0.03125 -0.57373,-0.09277 L 48.663547,65.37223 48.171848,65.166176 47.727512,64.908363 47.299778,64.56559 46.96384,64.207191 46.680149,63.802895 46.478,63.417152 46.310032,62.94157 l -0.104981,-0.510746 -0.03906,-0.540039 0.0293,-0.565429 0.09912,-0.582032 0.168945,-0.591797 0.238281,-0.594726 0.272034,-0.523194 c 0.0068,0.004 0.01251,0.0096 0.01947,0.01343 l 0.344727,0.185547 c 0.0415,0.02246 0.08447,0.04004 0.129394,0.05371 l 0.391113,0.11914 c 0.04053,0.0127 0.08203,0.02148 0.124512,0.02637 l 0.42627,0.0498 c 0.02734,0.0029 0.05469,0.0049 0.08203,0.0049 0.01172,0 0.02344,-9.76e-4 0.03564,-9.76e-4 l 0.448731,-0.02246 c 0.03467,-0.002 0.06934,-0.0059 0.103516,-0.0127 l 0.458984,-0.0918 c 0.03271,-0.0068 0.06543,-0.01563 0.09717,-0.02734 l 0.541016,-0.197266 0.518066,-0.271484 0.480469,-0.335938 0.436035,-0.396484 0.374512,-0.446289 0.257324,-0.397461 c 0.01904,-0.0293 0.03564,-0.05957 0.05029,-0.09082 l 0.188965,-0.415039 c 0.01563,-0.03418 0.02832,-0.07031 0.03809,-0.106445 l 0.115722,-0.420898 c 0.01123,-0.03906 0.01855,-0.08008 0.02246,-0.121094 l 0.03906,-0.414063 c 8.54e-4,-0.009 -0.0032,-0.01703 -0.0027,-0.026 5.49e-4,-0.0091 0.0055,-0.0166 0.0057,-0.02576 0.0047,-0.232117 -0.03217,-0.460022 -0.09094,-0.681702 l 0.621704,-0.09174 0.632324,-0.03223 0.606446,0.03125 0.574707,0.09375 0.535156,0.150391 0.492187,0.207031 0.444825,0.258789 0.428222,0.341797 0.335449,0.357422 0.282715,0.404297 0.202637,0.386719 0.167969,0.475586 0.10498,0.509765 0.03662,0.587891 z"
       id="path20" /><path
       d="m 89.930632,39.918132 c 0,-0.0067 -0.0036,-0.01221 -0.0038,-0.0188 -1.83e-4,-0.0067 0.0032,-0.01251 0.0028,-0.01929 -0.05273,-0.977539 -0.348633,-1.884768 -0.825195,-2.667971 -0.0039,-0.137695 -0.04834,-0.27539 -0.135254,-0.395502 -0.187965,-0.258791 -0.375953,-0.516603 -0.568336,-0.772463 -0.344238,-0.459961 -0.702636,-0.914062 -1.071289,-1.364257 -0.36914,-0.448243 -0.748047,-0.893555 -1.138672,-1.334961 -0.39209,-0.441407 -0.79541,-0.878907 -1.208496,-1.309571 C 84.567839,31.6027 84.142546,31.173989 83.706023,30.751138 83.269011,30.32731 82.821257,29.909341 82.362761,29.496255 81.903777,29.082192 81.435027,28.673989 80.956023,28.270669 80.475554,27.867349 79.98532,27.468911 79.486296,27.07731 78.98532,26.684731 78.475066,26.298013 77.954558,25.916177 77.434539,25.534341 76.904265,25.158364 76.365691,24.789224 75.826628,24.419106 75.277312,24.055825 74.719695,23.69645 74.161589,23.339028 73.595183,22.987466 73.019011,22.640786 72.443328,22.295083 71.859343,21.956216 71.267058,21.623208 70.674773,21.289224 70.073699,20.962075 69.464816,20.641763 68.856417,20.32145 68.23923,20.006997 67.614718,19.69938 c -0.624023,-0.307617 -1.255859,-0.607422 -1.895019,-0.902344 -0.639161,-0.294922 -1.285645,-0.582031 -1.939454,-0.863281 -0.65332,-0.280274 -1.312988,-0.553711 -1.980957,-0.822266 -0.666015,-0.266601 -1.339355,-0.527344 -2.019531,-0.78125 -0.679199,-0.252929 -1.364746,-0.5 -2.057129,-0.740234 -0.691406,-0.239258 -1.388672,-0.47168 -2.09082,-0.697266 -0.703125,-0.225585 -1.412109,-0.444335 -2.125977,-0.65625 -0.713379,-0.210937 -1.432129,-0.416015 -2.155761,-0.613281 -0.723633,-0.197266 -1.452149,-0.387695 -2.185547,-0.570312 -0.73291,-0.182618 -1.470215,-0.359375 -2.210938,-0.526368 -0.741699,-0.169921 -1.487793,-0.331054 -2.236816,-0.484375 -0.749024,-0.154296 -1.502442,-0.300781 -2.259277,-0.440429 -0.75586,-0.139649 -1.515625,-0.270508 -2.279786,-0.395508 -0.762695,-0.124023 -1.528808,-0.242188 -2.296386,-0.350586 -0.769043,-0.110352 -1.540039,-0.212891 -2.314453,-0.307617 -0.773438,-0.09473 -1.549317,-0.181641 -2.327637,-0.262695 -0.777344,-0.0791 -1.557617,-0.152344 -2.339844,-0.216797 l -0.861328,-0.06836 c -0.009,-9.158e-4 -0.0177,0.0024 -0.02673,0.0018 -0.02802,-0.0012 -0.05457,0.0035 -0.08258,0.0057 -0.05847,0.0041 -0.114502,0.01349 -0.169617,0.03235 -0.02673,0.009 -0.05145,0.01971 -0.07715,0.03198 -0.05579,0.02692 -0.105896,0.06097 -0.15332,0.101562 -0.01398,0.01196 -0.03156,0.01642 -0.0448,0.02966 -0.0085,0.0085 -0.01428,0.0188 -0.02271,0.02734 -0.0087,0.0095 -0.01617,0.01947 -0.02441,0.02948 -0.428711,0.449707 -0.674439,1.024902 -0.710144,1.642456 L 20.01755,50.088052 c -0.0047,0.02057 0.0046,0.04053 0.0018,0.06122 C 20.01475,50.182052 20,50.211222 20,50.245282 v 50.460938 c 0,0.0282 0.01288,0.0522 0.01605,0.0795 0.0032,0.0288 -0.0039,0.0566 0.003,0.0855 0.0055,0.0228 0.01929,0.0406 0.02679,0.0623 0.01135,0.0333 0.0246,0.0635 0.04059,0.0944 0.02472,0.0476 0.05359,0.09 0.08752,0.12994 0.0213,0.0253 0.0412,0.0494 0.0658,0.0715 0.04175,0.0374 0.08807,0.066 0.137207,0.0925 0.026,0.0141 0.04901,0.031 0.07684,0.0418 0.08038,0.0313 0.165283,0.0515 0.254211,0.0515 l 3.05e-4,-6e-5 1.83e-4,6e-5 c 2.44e-4,0 4.28e-4,-1.2e-4 4.28e-4,-1.2e-4 0.05457,-1.2e-4 0.109314,-0.007 0.164611,-0.0194 L 82.535613,86.651528 c 0.0016,-3.66e-4 0.0027,-0.0016 0.0043,-0.002 4.04004,-0.862488 7.00763,-4.200378 7.387757,-8.315368 0.0011,-0.01154 -0.004,-0.02173 -0.0035,-0.0332 5.49e-4,-0.01129 0.0065,-0.02081 0.0065,-0.03223 V 39.918132 Z m -7.706054,45.350586 c -0.0031,6.71e-4 -0.0052,0.0029 -0.0082,0.0035 -0.0037,7.93e-4 -0.0072,-4.89e-4 -0.01086,3.66e-4 L 21.416964,99.807902 V 50.804728 L 82.62741,36.161294 c 0.427734,-0.166016 0.877441,-0.263672 1.335937,-0.288086 2.376282,-0.13562 4.418091,1.700012 4.550293,4.076784 v 38.270142 c -0.330383,3.493103 -2.854797,6.324219 -6.289062,7.048584 z"
       id="path22" /></g></svg>
