<?xml version="1.0" encoding="UTF-8" standalone="no"?>
<svg
   width="532pt"
   height="532pt"
   version="1.1"
   viewBox="0 0 532 532"
   id="svg34"
   sodipodi:docname="mikenakis-coherence.svg"
   inkscape:version="1.1.1 (3bf5ae0d25, 2021-09-20)"
   xmlns:inkscape="http://www.inkscape.org/namespaces/inkscape"
   xmlns:sodipodi="http://sodipodi.sourceforge.net/DTD/sodipodi-0.dtd"
   xmlns="http://www.w3.org/2000/svg"
   xmlns:svg="http://www.w3.org/2000/svg">
  <sodipodi:namedview
     id="namedview36"
     pagecolor="#505050"
     bordercolor="#ffffff"
     borderopacity="1"
     inkscape:pageshadow="0"
     inkscape:pageopacity="0"
     inkscape:pagecheckerboard="1"
     inkscape:document-units="pt"
     showgrid="false"
     inkscape:zoom="1.1447368"
     inkscape:cx="326.27586"
     inkscape:cy="321.03448"
     inkscape:window-width="2560"
     inkscape:window-height="1361"
     inkscape:window-x="-9"
     inkscape:window-y="-9"
     inkscape:window-maximized="1"
     inkscape:current-layer="svg34" />
  <defs
     id="defs8">
    <mask
       id="a"
       maskUnits="userSpaceOnUse">
      <circle
         cx="348"
         cy="-1014"
         r="2065.5"
         fill="#d0d0d0"
         stop-color="#000000"
         style="paint-order:markers stroke fill"
         id="circle2" />
    </mask>
    <clipPath
       id="b">
      <circle
         cx="376.66"
         cy="335.73"
         r="175.5"
         fill="#858585"
         stop-color="#000000"
         style="paint-order:markers stroke fill"
         id="circle5" />
    </clipPath>
  </defs>
  <circle
     cx="231.68"
     cy="289.24"
     r="0"
     fill="#d0d0d0"
     stop-color="#000000"
     style="paint-order:markers stroke fill"
     id="circle10" />
  <circle
     cx="265.9209"
     cy="266.05368"
     r="256"
     fill="#d0d0d0"
     stop-color="#000000"
     style="paint-order:markers stroke fill"
     id="circle12" />
  <g
     id="g972"
     transform="matrix(0.7696672,0,0,1,65.117813,5.3483654)">
    <path
       d="m 106.50392,332.1912 c 0,0 -8.622422,31.38068 -19.026831,31.4326 -10.405095,0.0519 -19.715379,-31.43127 -19.715379,-31.43127 0,0 -9.317827,-31.48452 -19.718121,-31.4326 -10.407427,0.0533 -19.029579,31.4326 -19.029579,31.4326 0,0.0133 -8.621054,31.38067 -19.0254632,31.43259 -10.4042718,0.0519 -19.7222364,-31.43259 -19.7222364,-31.43259 0,0 -9.3154954,-31.48452 -19.7194934,-31.4326 -10.407563,0.0533 -19.026835,31.4326 -19.026835,31.4326 V 189.31467 c 0,0 8.61982,-31.37934 19.026835,-31.43259 10.404683,-0.0519 19.7194934,31.43259 19.7194934,31.43259 0,0 9.31755312,31.48452 19.7222364,31.4326 10.4042722,-0.0519 19.0227202,-31.42195 19.0254632,-31.4326 0,0 8.621604,-31.37934 19.029579,-31.43259 10.400568,-0.0519 19.718121,31.43259 19.718121,31.43259 0,0 9.31001,31.48318 19.715379,31.43126 10.404957,-0.0519 19.026831,-31.4326 19.026831,-31.4326 0,0 8.61982,-31.37933 19.02684,-31.43259 10.40468,-0.0519 19.71949,31.43259 19.71949,31.43259 0,0 9.31769,31.48452 19.72224,31.4326 10.40427,-0.0519 19.02135,-31.42194 19.02546,-31.4326 0,0 8.62147,-31.37933 19.02958,-31.43259 10.40043,-0.0519 19.71812,31.43259 19.71812,31.43259 0,0 9.31001,31.4832 19.71538,31.43128 10.40482,-0.0519 19.02684,-31.4326 19.02684,-31.4326 0,0 8.61995,-31.37935 19.02683,-31.4326 10.40468,-0.0519 19.72087,31.4326 19.72087,31.4326 0,0 9.31741,31.48452 19.72223,31.4326 10.40427,-0.0519 19.02135,-31.42195 19.02547,-31.4326 0,0 8.6216,-31.37935 19.02957,-31.4326 10.40057,-0.0519 19.71813,31.4326 19.71813,31.4326 0,0 9.30987,31.48319 19.71537,31.43126 10.40496,-0.0519 19.02684,-31.43259 19.02684,-31.43259 0,0 8.61982,-31.37934 19.02683,-31.4326 10.40469,-0.0519 19.7195,31.4326 19.7195,31.4326 0,0 9.31755,31.48452 19.72223,31.43259 10.40441,-0.0519 19.02272,-31.42195 19.02547,-31.43259 0,0 8.6216,-31.37934 19.02958,-31.4326 10.40056,-0.0519 19.71812,31.4326 19.71812,31.4326 0,0 9.30973,31.48318 19.71538,31.43126 10.40495,-0.0519 19.02683,-31.43259 19.02683,-31.43259 v 142.87786 c 0,0 -8.62242,31.38067 -19.02683,31.4326 -10.40496,0.0519 -19.71538,-31.43128 -19.71538,-31.43128 0,0 -9.31797,-31.48452 -19.71812,-31.4326 -10.40743,0.0533 -19.02958,31.4326 -19.02958,31.4326 0,0.0133 -8.62106,31.38067 -19.02547,31.4326 -10.40427,0.0519 -19.72223,-31.4326 -19.72223,-31.4326 0,0 -9.3155,-31.48452 -19.7195,-31.4326 -10.40756,0.0533 -19.02683,31.4326 -19.02683,31.4326 m -154.9908,0 c 0,0 -8.62243,31.38067 -19.02684,31.4326 -10.40509,0.0519 -19.71537,-31.43126 -19.71537,-31.43126 0,0 -9.31783,-31.48452 -19.71813,-31.43259 -10.40756,0.0533 -19.02957,31.43259 -19.02957,31.43259 0,0.0133 -8.6212,31.38068 -19.02547,31.43259 -10.40427,0.0519 -19.72223,-31.43259 -19.72223,-31.43259 0,0 -9.3155,-31.48452 -19.7195,-31.43259 -10.40742,0.0533 -19.02683,31.43259 -19.02683,31.43259 m 309.96788,0 c 0,0 -8.62229,31.38068 -19.02683,31.43259 -10.4051,0.0519 -19.71538,-31.43126 -19.71538,-31.43126 0,0 -9.31783,-31.48452 -19.71812,-31.4326 -10.40743,0.0533 -19.02958,31.4326 -19.02958,31.4326 0,0.0133 -8.62119,31.38068 -19.02547,31.4326 -10.4044,0.0519 -19.72223,-31.4326 -19.72223,-31.4326 0,0 -9.31563,-31.48452 -19.7195,-31.4326 -10.40742,0.0533 -19.02683,31.4326 -19.02683,31.4326"
       fill="#832323"
       stroke="#000000"
       stroke-width="1.01349"
       id="path14"
       style="stroke:none;stroke-miterlimit:10" />
    <g
       fill="none"
       stroke="#cc0101"
       id="g24"
       transform="matrix(1.3716,0,0,1.3716,-250.647,-187.585)"
       style="stroke-miterlimit:10">
      <path
         d="m 260.42,344.28 c 0,0 -6.2608,21.474 -13.816,21.51 -7.5551,0.035 -14.315,-21.509 -14.315,-21.509 0,0 -6.7658,-21.546 -14.318,-21.51 -7.5569,0.036 -13.817,21.51 -13.817,21.51 0,0.01 -6.2598,21.474 -13.814,21.51 -7.5547,0.036 -14.32,-21.51 -14.32,-21.51 0,0 -6.7639,-21.546 -14.319,-21.51 -7.5569,0.036 -13.816,21.51 -13.816,21.51 m 225.07,0 c 0,0 -6.2608,21.474 -13.816,21.51 -7.5552,0.035 -14.315,-21.509 -14.315,-21.509 0,0 -6.7658,-21.546 -14.318,-21.51 -7.5569,0.036 -13.817,21.51 -13.817,21.51 0,0.01 -6.2599,21.474 -13.815,21.51 -7.5546,0.036 -14.32,-21.51 -14.32,-21.51 0,0 -6.764,-21.546 -14.319,-21.51 -7.557,0.036 -13.816,21.51 -13.816,21.51 m 225.07,0 c 0,0 -6.2608,21.474 -13.816,21.51 -7.5551,0.035 -14.315,-21.509 -14.315,-21.509 0,0 -6.7657,-21.546 -14.318,-21.51 -7.5569,0.036 -13.817,21.51 -13.817,21.51 0,0.01 -6.2599,21.474 -13.815,21.51 -7.5547,0.036 -14.32,-21.51 -14.32,-21.51 0,0 -6.764,-21.546 -14.319,-21.51 -7.5569,0.036 -13.816,21.51 -13.816,21.51 m 225.07,0 c 0,0 -6.2607,21.474 -13.816,21.51 -7.5551,0.035 -14.315,-21.509 -14.315,-21.509 0,0 -6.7658,-21.546 -14.318,-21.51 -7.557,0.036 -13.817,21.51 -13.817,21.51 0,0.01 -6.2599,21.474 -13.814,21.51 -7.5547,0.036 -14.32,-21.51 -14.32,-21.51 0,0 -6.764,-21.546 -14.319,-21.51 -7.5569,0.036 -13.816,21.51 -13.816,21.51"
         stroke-width="4.7441"
         id="path16" />
      <path
         d="m 260.42,379.18 c 0,0 -6.2608,21.474 -13.816,21.51 -7.5551,0.035 -14.315,-21.509 -14.315,-21.509 0,0 -6.7658,-21.546 -14.318,-21.51 -7.5569,0.036 -13.817,21.51 -13.817,21.51 0,0.01 -6.2599,21.474 -13.815,21.51 -7.5547,0.036 -14.32,-21.51 -14.32,-21.51 0,0 -6.7639,-21.546 -14.319,-21.51 -7.5569,0.036 -13.816,21.51 -13.816,21.51 m 225.07,0 c 0,0 -6.2608,21.474 -13.816,21.51 -7.5552,0.035 -14.315,-21.509 -14.315,-21.509 0,0 -6.7658,-21.546 -14.318,-21.51 -7.5569,0.036 -13.817,21.51 -13.817,21.51 0,0.01 -6.2599,21.474 -13.815,21.51 -7.5546,0.036 -14.32,-21.51 -14.32,-21.51 0,0 -6.764,-21.546 -14.319,-21.51 -7.557,0.036 -13.816,21.51 -13.816,21.51 m 225.07,0 c 0,0 -6.2608,21.474 -13.816,21.51 -7.5551,0.035 -14.315,-21.509 -14.315,-21.509 0,0 -6.7657,-21.546 -14.318,-21.51 -7.5569,0.036 -13.817,21.51 -13.817,21.51 0,0.01 -6.2599,21.474 -13.815,21.51 -7.5547,0.036 -14.32,-21.51 -14.32,-21.51 0,0 -6.764,-21.546 -14.319,-21.51 -7.5569,0.036 -13.816,21.51 -13.816,21.51 m 225.07,0 c 0,0 -6.2607,21.474 -13.816,21.51 -7.5551,0.035 -14.315,-21.509 -14.315,-21.509 0,0 -6.7658,-21.546 -14.318,-21.51 -7.557,0.036 -13.817,21.51 -13.817,21.51 0,0.01 -6.2599,21.474 -13.814,21.51 -7.5547,0.036 -14.32,-21.51 -14.32,-21.51 0,0 -6.7639,-21.546 -14.319,-21.51 -7.5569,0.036 -13.816,21.51 -13.816,21.51"
         stroke-width="4.7441"
         id="path18" />
      <path
         d="m 260.42,274.49 c 0,0 -6.2608,21.474 -13.816,21.51 -7.5551,0.035 -14.315,-21.509 -14.315,-21.509 0,0 -6.7658,-21.546 -14.318,-21.51 -7.5569,0.036 -13.817,21.51 -13.817,21.51 0,0.01 -6.2599,21.474 -13.815,21.51 -7.5547,0.036 -14.32,-21.51 -14.32,-21.51 0,0 -6.7639,-21.546 -14.319,-21.51 -7.5569,0.036 -13.816,21.51 -13.816,21.51 m 225.07,0 c 0,0 -6.2608,21.474 -13.816,21.51 -7.5552,0.035 -14.315,-21.509 -14.315,-21.509 0,0 -6.7658,-21.546 -14.318,-21.51 -7.5569,0.036 -13.817,21.51 -13.817,21.51 0,0.01 -6.2599,21.474 -13.815,21.51 -7.5546,0.036 -14.32,-21.51 -14.32,-21.51 0,0 -6.764,-21.546 -14.319,-21.51 -7.557,0.036 -13.816,21.51 -13.816,21.51 m 225.07,0 c 0,0 -6.2608,21.474 -13.816,21.51 -7.5551,0.035 -14.315,-21.509 -14.315,-21.509 0,0 -6.7657,-21.546 -14.318,-21.51 -7.5569,0.036 -13.817,21.51 -13.817,21.51 0,0.01 -6.2599,21.474 -13.815,21.51 -7.5547,0.036 -14.32,-21.51 -14.32,-21.51 0,0 -6.764,-21.546 -14.319,-21.51 -7.5569,0.036 -13.816,21.51 -13.816,21.51 m 225.07,0 c 0,0 -6.2607,21.474 -13.816,21.51 -7.5551,0.035 -14.315,-21.509 -14.315,-21.509 0,0 -6.7658,-21.546 -14.318,-21.51 -7.557,0.036 -13.817,21.51 -13.817,21.51 0,0.01 -6.2599,21.474 -13.815,21.51 -7.5546,0.036 -14.32,-21.51 -14.32,-21.51 0,0 -6.7639,-21.546 -14.319,-21.51 -7.5569,0.036 -13.816,21.51 -13.816,21.51"
         stroke-width="4.7441"
         id="path20" />
      <path
         d="m 260.42,309.39 c 0,0 -6.2608,21.474 -13.816,21.51 -7.5551,0.035 -14.315,-21.509 -14.315,-21.509 0,0 -6.7658,-21.546 -14.318,-21.51 -7.5569,0.036 -13.817,21.51 -13.817,21.51 0,0.01 -6.2598,21.474 -13.814,21.51 -7.5547,0.036 -14.32,-21.51 -14.32,-21.51 0,0 -6.7639,-21.546 -14.319,-21.51 -7.5569,0.036 -13.816,21.51 -13.816,21.51 m 225.07,0 c 0,0 -6.2608,21.474 -13.816,21.51 -7.5552,0.035 -14.315,-21.509 -14.315,-21.509 0,0 -6.7658,-21.546 -14.318,-21.51 -7.5569,0.036 -13.817,21.51 -13.817,21.51 0,0.01 -6.2599,21.474 -13.815,21.51 -7.5546,0.036 -14.32,-21.51 -14.32,-21.51 0,0 -6.764,-21.546 -14.319,-21.51 -7.557,0.036 -13.816,21.51 -13.816,21.51 m 225.07,0 c 0,0 -6.2608,21.474 -13.816,21.51 -7.5551,0.035 -14.315,-21.509 -14.315,-21.509 0,0 -6.7657,-21.546 -14.318,-21.51 -7.5569,0.036 -13.817,21.51 -13.817,21.51 0,0.01 -6.2599,21.474 -13.815,21.51 -7.5547,0.036 -14.32,-21.51 -14.32,-21.51 0,0 -6.764,-21.546 -14.319,-21.51 -7.5569,0.036 -13.816,21.51 -13.816,21.51 m 225.07,0 c 0,0 -6.2607,21.474 -13.816,21.51 -7.5551,0.035 -14.315,-21.509 -14.315,-21.509 0,0 -6.7658,-21.546 -14.318,-21.51 -7.557,0.036 -13.817,21.51 -13.817,21.51 0,0.01 -6.2599,21.474 -13.814,21.51 -7.5547,0.036 -14.32,-21.51 -14.32,-21.51 0,0 -6.764,-21.546 -14.319,-21.51 -7.5569,0.036 -13.816,21.51 -13.816,21.51"
         stroke-width="4.7441"
         id="path22" />
    </g>
  </g>
  <circle
     cx="265.9209"
     cy="266.05368"
     r="249.27844"
     fill="none"
     stop-color="#000000"
     stroke="#000000"
     stroke-miterlimit="10"
     stroke-width="14.2037"
     style="stroke:#d0d0d0;stroke-opacity:1;paint-order:markers stroke fill"
     id="circle28-8" />
  <circle
     cx="265.9209"
     cy="266.05368"
     r="240.72"
     fill="none"
     stop-color="#000000"
     stroke="#000000"
     stroke-miterlimit="10"
     stroke-width="13.716"
     style="paint-order:markers stroke fill"
     id="circle28" />
  <circle
     cx="231.68"
     cy="289.24"
     r="0"
     fill="none"
     stop-color="#000000"
     stroke="#1b1b1b"
     stroke-miterlimit="10"
     stroke-width="19.251"
     style="paint-order:markers stroke fill"
     id="circle32" />
</svg>
