<?xml version="1.0" encoding="UTF-8" standalone="no"?>
<!-- Created with Inkscape (http://www.inkscape.org/) -->

<svg
   width="532.74207mm"
   height="532mm"
   viewBox="0 0 532.74207 532"
   version="1.1"
   id="svg984"
   inkscape:version="1.1.1 (3bf5ae0d25, 2021-09-20)"
   sodipodi:docname="wpclipart-com-thinker-traced.svg"
   xmlns:inkscape="http://www.inkscape.org/namespaces/inkscape"
   xmlns:sodipodi="http://sodipodi.sourceforge.net/DTD/sodipodi-0.dtd"
   xmlns="http://www.w3.org/2000/svg"
   xmlns:svg="http://www.w3.org/2000/svg">
  <sodipodi:namedview
     id="namedview986"
     pagecolor="#505050"
     bordercolor="#ffffff"
     borderopacity="1"
     inkscape:pageshadow="0"
     inkscape:pageopacity="0"
     inkscape:pagecheckerboard="1"
     inkscape:document-units="mm"
     showgrid="false"
     inkscape:zoom="0.3616863"
     inkscape:cx="1986.5281"
     inkscape:cy="1123.9021"
     inkscape:window-width="2560"
     inkscape:window-height="1361"
     inkscape:window-x="-9"
     inkscape:window-y="-9"
     inkscape:window-maximized="1"
     inkscape:current-layer="layer1"
     fit-margin-top="10"
     lock-margins="true"
     fit-margin-left="10"
     fit-margin-right="10"
     fit-margin-bottom="10" />
  <defs
     id="defs981">
    <pattern
       id="EMFhbasepattern"
       patternUnits="userSpaceOnUse"
       width="6"
       height="6"
       x="0"
       y="0" />
  </defs>
  <g
     inkscape:label="Layer 1"
     inkscape:groupmode="layer"
     id="layer1"
     transform="translate(63.040955,-0.84326172)">
    <ellipse
       style="fill:#d0d0d0;fill-opacity:1;stroke:none;stroke-width:5.93252;stroke-miterlimit:10;paint-order:markers stroke fill;stop-color:#000000"
       id="path1135"
       cx="203.33008"
       cy="266.84326"
       ry="256"
       rx="256.37103" />
    <ellipse
       style="fill:none;stroke:#242424;stroke-width:5.93252;stroke-miterlimit:10;paint-order:markers stroke fill;stop-color:#000000"
       id="path1133"
       cx="203.33008"
       cy="266.84326"
       rx="243.75252"
       ry="243.39973" />
    <path
       style="fill:#000000;stroke-width:0.607397"
       d="m 70.753926,453.94751 c 0.43159,-3.8384 0.84786,-4.43581 3.7327,-5.35705 1.22605,-0.39151 2.44645,-0.90979 2.71203,-1.15172 0.26558,-0.24193 1.03118,-3.55719 1.70133,-7.36726 0.67015,-3.81007 1.55353,-7.26668 1.96308,-7.68135 0.40954,-0.41466 12.08033,-3.7813 25.935104,-7.4814 13.85475,-3.70013 25.40442,-6.93678 25.66592,-7.19257 0.79765,-0.78019 -0.22204,-2.48516 -2.05215,-3.43161 -2.18859,-1.13174 -3.13845,-4.14834 -2.01448,-6.3976 0.43108,-0.8627 1.79854,-2.776 3.03876,-4.2518 3.25532,-3.87361 4.39867,-6.90726 5.17438,-13.72916 0.9943,-8.74404 0.13764,-14.49074 -2.79453,-18.74827 -2.69803,-3.91747 -24.05554,-24.96141 -30.18975,-29.74651 -2.44032,-1.90362 -5.219504,-4.31887 -6.175954,-5.36723 -6.35086,-6.96118 -24.49867,-34.33883 -28.64215,-43.2093 -4.21602,-9.02577 -7.59851,-21.04961 -6.63092,-23.57113 0.20163,-0.52563 1.02068,-1.38418 1.81995,-1.90789 1.43313,-0.93903 1.44834,-0.92768 1.09875,0.82028 -0.506,2.52999 0.68699,5.60068 3.07524,7.91546 2.24889,2.17975 2.8934,2.08688 4.56229,-0.6574 l 1.08213,-1.77943 0.75614,1.82551 c 0.74124,1.78951 1.05387,1.98318 4.40276,2.72737 1.47022,0.32672 1.6368,0.61609 1.51849,2.63789 -0.12318,2.10468 -0.0207,2.25782 1.41597,2.09154 1.24359,-0.14406 1.72248,0.21195 2.42958,1.80634 0.72507,1.63485 1.52904,2.20703 4.54966,3.23803 2.01793,0.68875 4.61452,1.80563 5.77024,2.48197 1.99579,1.16797 2.1069,1.41086 2.21304,4.83758 0.0615,1.98435 0.12983,3.94954 0.15185,4.36714 0.0229,0.41757 0.30174,0.75924 0.62152,0.75924 1.19104,0 11.566444,-5.05529 11.566444,-5.63561 0,-0.33188 -1.69197,-2.95793 -3.75994,-5.83566 -3.41482,-4.75193 -7.754614,-13.19052 -7.773124,-15.11453 -0.005,-0.42423 -0.67249,-2.40814 -1.48539,-4.4087 -1.06116,-2.61155 -2.6575,-4.83813 -5.66031,-7.89499 -6.87717,-7.00103 -9.36517,-6.90281 -18.55564,0.73254 -1.93824,1.61026 -3.78507,2.92776 -4.10407,2.92776 -1.05651,0 6.76581,-8.78812 8.73387,-9.81224 3.84028,-1.99833 7.57257,-7.61484 11.08609,-16.68286 2.39068,-6.17003 3.81016,-8.19675 3.42397,-4.88866 -0.16287,1.39581 0.25773,2.70757 1.45458,4.53564 1.84258,2.81433 2.86383,3.24871 10.346984,4.40103 4.15314,0.63955 4.35206,0.74612 4.70729,2.52235 0.20392,1.02003 0.37092,3.47838 0.37092,5.463 0,1.98462 0.27801,4.1279 0.61782,4.76284 1.00466,1.87725 10.31526,4.09807 10.31526,2.46048 0,-0.30636 -1.16163,-1.52282 -2.58141,-2.70324 -2.47904,-2.06105 -2.57843,-2.2758 -2.50592,-5.41425 0.0415,-1.79744 0.36002,-3.79968 0.70774,-4.44941 0.4399,-0.82198 0.43611,-1.53179 -0.0115,-2.33334 -0.52414,-0.93658 -0.37252,-1.36094 0.81074,-2.26933 6.53616,-5.01776 7.83902,-6.78834 8.40868,-11.42734 l 0.33548,-2.73203 3.34067,-0.41732 c 1.83736,-0.22955 5.52728,-1.10803 8.1998,-1.95219 6.37453,-2.0135 14.28097,-3.82163 18.8688,-4.31511 2.02616,-0.21791 4.04759,-0.62101 4.4921,-0.89572 1.27633,-0.78881 0.26684,-2.34657 -1.88133,-2.90322 -1.65981,-0.43012 -0.79829,-0.67545 5.58986,-1.59182 13.4071,-1.92324 12.6064,-1.86867 11.1073,-0.7572 -1.582,1.17294 -2.9659,4.63021 -1.8533,4.63003 1.4034,-2.3e-4 15.8523,-2.47048 16.1414,-2.75962 0.1608,-0.1608 -0.3147,-1.11307 -1.0564,-2.11636 -1.5536,-2.10129 -1.704,-2.00552 4.6785,-2.97788 l 4.4584,-0.67924 2.0922,1.83701 c 2.4942,2.18988 3.6915,2.31535 4.4888,0.47036 0.3248,-0.75167 2.1236,-6.69418 3.9974,-13.20559 1.8738,-6.5114 3.9602,-12.92355 4.6365,-14.24924 l 1.2296,-2.41031 1.4383,1.79753 c 0.791,0.98865 1.4396,1.94363 1.4412,2.12214 0.01,0.98574 4.4307,2.67436 8.1612,3.11686 6.0295,0.71523 11.1835,1.15764 13.9246,1.19533 1.6664,0.0229 2.1546,0.22021 1.6914,0.68327 -0.5795,0.57954 -2.9581,0.68424 -6.4257,0.28281 -0.8106,-0.0938 -1.6073,0.62017 -2.5593,2.29335 l -1.3822,2.42958 -0.7155,-2.05029 -0.7156,-2.05032 -3.7376,0.30004 c -7.457,0.59858 -9.0987,2.80334 -9.8133,13.1793 l -0.4254,6.1762 -2.2641,1.15505 c -2.9482,1.50415 -5.2579,4.29928 -6.0823,7.36078 -0.8927,3.31544 -0.2685,5.64387 2.0322,7.57976 1.8682,1.57203 2.0805,1.60664 7.6238,1.24252 3.1361,-0.20599 6.0778,-0.68644 6.5371,-1.06763 1.2419,-1.03068 1.0118,-2.78119 -0.5051,-3.84375 -1.3208,-0.92506 -1.323,-0.95142 -0.1519,-1.81177 0.6536,-0.48018 1.9673,-1.33482 2.9194,-1.8992 l 1.731,-1.02616 -0.136,3.25904 c -0.075,1.79247 -0.1021,3.48409 -0.061,3.75917 0.042,0.27508 1.6007,-0.37257 3.465,-1.43921 2.4703,-1.41343 3.5712,-1.75769 4.0594,-1.26951 0.8032,0.80329 1.0066,0.62255 -3.501,3.11081 -2.0044,1.10644 -5.1476,3.13274 -6.985,4.50286 l -3.3407,2.49113 -5.7702,-0.0206 c -6.3246,-0.0236 -6.0737,0.0647 -14.1357,-4.97406 -6.1774,-3.86097 -7.2693,-3.73281 -7.0333,0.82565 0.075,1.44543 -0.016,2.77997 -0.2017,2.96563 -0.1855,0.18581 -2.3547,-0.33506 -4.8202,-1.1572 -4.9676,-1.65655 -7.3653,-1.53468 -8.7518,0.44485 -1.229,1.75459 -1.1155,3.97479 0.3237,6.3354 1.4318,2.3484 3.29,3.17182 7.1739,3.17884 l 2.8456,0.005 2.4295,4.60046 c 3.9328,7.44707 9.01,11.1819 15.2006,11.1819 1.8727,0 3.9529,-0.29333 4.6228,-0.65184 1.1998,-0.64214 1.2015,-0.6267 0.112,1.03623 -0.8581,1.30949 -1.1061,2.88603 -1.1061,7.02956 0,3.28719 -0.2425,5.34145 -0.6306,5.34145 -0.3469,0 -1.6837,-1.25981 -2.9708,-2.79958 -1.5164,-1.81412 -3.6463,-3.4192 -6.0507,-4.55975 l -3.7106,-1.76012 -0.1924,1.52612 c -0.106,0.83939 0.2662,3.58826 0.8269,6.10861 1.1987,5.38806 2.2495,6.37471 6.902,6.48069 2.8137,0.064 3.093,0.19819 3.093,1.48534 0,1.28029 0.2744,1.41673 2.8851,1.43421 1.5868,0.0115 3.4157,0.42062 4.0641,0.9111 1.6917,1.27955 2.9635,1.10595 4.5913,-0.62671 2.5212,-2.68381 4.9406,-1.75244 6.6453,2.55829 1.2769,3.22869 4.8803,4.54993 13.3616,4.89924 l 7.104,0.29258 2.1601,-1.89658 c 2.9303,-2.5729 4.7002,-6.99952 5.5901,-13.98139 0.6662,-5.22655 0.7882,-5.58625 1.1569,-3.41275 1.0961,6.46075 0.07,12.79978 -2.9185,18.02704 -0.8252,1.44352 -1.5046,3.03456 -1.5096,3.53565 -0.01,0.71436 -1.0254,0.95156 -4.7147,1.09844 -4.0832,0.16263 -6.6329,-0.29109 -19.2828,-3.43083 -17.0636,-4.23521 -25.9813,-6.1712 -28.4263,-6.1712 -0.9658,0 -2.5414,0.46395 -3.5014,1.03102 -0.9599,0.56706 -1.8437,0.90873 -1.964,0.75926 -0.1202,-0.14956 -1.3968,-2.45841 -2.8368,-5.13098 -1.4399,-2.67255 -4.4763,-8.13915 -6.7474,-12.14799 l -4.1294,-7.28881 0.844,-3.20734 c 0.4642,-1.76404 1.4039,-3.91921 2.0883,-4.78925 0.6844,-0.87006 1.2443,-2.0719 1.2443,-2.67073 0,-1.27133 -2.7375,-3.60658 -4.2278,-3.60658 -1.3234,0 -3.192,2.05742 -4.8269,5.31477 -0.7126,1.41978 -1.5065,2.58143 -1.7643,2.58143 -0.2577,0 -1.6613,-1.21533 -3.1191,-2.70074 l -2.6506,-2.70074 1.7649,-5.95471 1.7648,-5.95471 0.3037,2.73332 c 0.167,1.5033 0.5771,2.63499 0.9111,2.51484 1.0059,-0.36174 5.2215,-6.28615 4.9862,-7.00741 -0.1202,-0.36869 -3.478,-1.59292 -7.4616,-2.72051 -9.05472,-2.56301 -19.00204,-3.32028 -20.91179,-1.59196 -0.91908,0.83176 -1.64759,0.94938 -3.46572,0.55952 -3.47172,-0.74442 -7.93196,-0.37699 -10.79449,0.88926 -1.40824,0.62292 -4.31008,2.86461 -6.44858,4.98152 l -3.88815,3.84893 3.18362,0.41071 c 4.45038,0.57415 4.69683,0.72789 5.50826,3.43622 0.94986,3.17045 2.74911,5.38168 5.53576,6.80334 1.24774,0.63655 3.42335,2.68682 4.83469,4.55613 2.45704,3.25436 2.53429,3.48666 1.81815,5.4671 -0.94011,2.59986 -0.41363,3.31529 4.28118,5.81761 3.68893,1.9662 12.04465,9.30388 14.94927,13.12789 l 1.7743,2.3359 -2.5949,-2.12592 c -5.16336,-4.23005 -6.99551,-5.46658 -8.09984,-5.46658 -1.56074,0 -1.44616,0.37239 1.19783,3.89291 1.27726,1.70071 3.64094,5.27882 5.25261,7.95139 5.4745,9.07805 7.796,12.14053 13.353,17.61458 6.5804,6.48228 8.8889,10.33263 13.4421,22.41966 3.1383,8.33124 3.1895,8.56755 1.9541,9.02453 -1.1673,0.43184 -1.2386,0.79005 -0.8933,4.48857 0.4986,5.33918 1.3981,6.56747 5.7026,7.787 6.3148,1.78911 8.6815,2.89454 11.2773,5.26733 1.6344,1.49406 3.1453,2.33822 4.1848,2.33822 1.5233,0 1.6544,0.22044 2.0593,3.46042 0.399,3.1938 -0.4015,10.16138 -1.2669,11.02681 -0.8112,0.81117 -1.5454,-1.61896 -1.3159,-4.3555 l 0.2454,-2.92735 -4.161,-3.50263 c -2.2886,-1.92642 -5.5986,-4.27113 -7.3555,-5.21042 -1.7569,-0.93931 -3.7642,-2.39488 -4.4605,-3.23457 -1.4739,-1.77725 -2.4299,-1.43177 -2.9809,1.07729 -0.2159,0.98269 -0.9314,2.47184 -1.5901,3.30925 -0.9882,1.2563 -1.453,1.42545 -2.6581,0.96725 -2.6046,-0.99028 -3.7168,0.74881 -5.7867,9.04882 -2.1694,8.69835 -2.9332,10.40892 -5.4478,12.19946 -1.0064,0.71667 -1.9933,1.95411 -2.193,2.74992 -0.2785,1.10965 -1.1636,1.7106 -3.7977,2.57843 l -3.4345,1.13156 -1.3923,4.13011 c -1.2854,3.81307 -1.3193,4.24147 -0.4416,5.58111 0.5788,0.88334 1.5394,1.45102 2.4553,1.45102 1.2907,0 1.5056,-0.28045 1.5127,-1.97404 0.01,-2.36472 0.583,-4.70734 1.1514,-4.70734 0.2257,0 0.7531,1.16165 1.1718,2.58144 0.4186,1.4198 0.8963,2.88759 1.0614,3.26179 0.1651,0.37417 -1.086,1.56982 -2.7802,2.65699 -3.2144,2.06271 -4.257,3.37326 -4.257,5.35111 0,1.26602 -2.4715,2.14432 -8.04802,2.86002 -2.81077,0.36074 -2.88512,0.42409 -2.88512,2.45895 v 2.08869 h 4.28194 c 2.7513,0 4.9591,0.35018 6.1763,0.97964 2.3139,1.19656 4.5168,0.94832 13.5666,-1.52883 23.2423,-6.36197 27.4877,-7.44891 29.131,-7.45818 1.6061,-0.009 116.4901,32.31329 121.8369,34.27852 1.291,0.47451 2.1177,1.21261 2.2098,1.97295 0.081,0.66813 0.3284,2.4155 0.55,3.88301 l 0.4029,2.66824 -3.7709,-2.56075 c -5.4536,-3.70352 -6.8461,-4.13568 -15.5728,-4.83308 l -7.8686,-0.62879 -2.5677,-2.75687 c -3.3107,-3.55458 -4.6531,-3.56589 -6.3596,-0.0534 -1.4779,3.042 -2.3152,3.06335 -2.3152,0.0592 0,-2.46495 0.2283,-2.367 -10.6294,-4.56176 -10.2838,-2.07879 -11.6986,-2.59791 -12.4474,-4.56748 -0.4829,-1.27011 -0.9794,-1.52941 -2.9286,-1.52941 -1.9142,0 -2.4747,-0.2801 -3.039,-1.5185 -0.81,-1.77774 -0.6722,-1.76091 -4.9696,-0.60739 -5.1595,1.38486 -5.9558,1.24751 -6.3969,-1.10349 l -0.3779,-2.01455 -5.0003,0.26246 c -4.8517,0.25464 -5.0314,0.21516 -6.0413,-1.32615 -1.2695,-1.93755 -3.5662,-2.0938 -4.7422,-0.32263 l -0.8406,1.26598 -4.7159,-1.87337 c -5.6913,-2.26087 -6.3763,-2.29954 -6.8563,-0.38713 -0.5904,2.35242 0.7708,5.58577 2.654,6.30425 0.9042,0.34495 11.0737,3.26931 22.5991,6.49858 22.0596,6.18088 53.4661,15.02886 73.7049,20.76448 6.6299,1.8789 12.4381,3.79991 12.9071,4.26891 0.507,0.50703 0.8527,2.09704 0.8527,3.92226 v 3.06953 l -1.8981,-0.37961 c -1.044,-0.20874 -2.2527,-0.37964 -2.6862,-0.37964 -0.4334,0 -1.1038,-0.95665 -1.4896,-2.1259 -0.6418,-1.94468 -0.9029,-2.1259 -3.0628,-2.1259 -1.7394,0 -2.5322,-0.31983 -3.0112,-1.2148 -0.5107,-0.95436 -1.2718,-1.2148 -3.5496,-1.2148 -1.6092,0 -3.4242,-0.39686 -4.0786,-0.89178 -1.7454,-1.32021 -2.0405,-1.17395 -3.2981,1.63517 l -1.1487,2.56559 -0.1883,-3.31839 -0.1883,-3.31838 -4.5555,0.19039 c -4.0908,0.17089 -4.7722,0.0319 -6.6813,-1.36333 -4.3788,-3.20038 -5.8076,-3.99844 -7.1625,-4.00064 -0.7657,-0.001 -3.3892,-0.41475 -5.83,-0.91892 -3.9566,-0.81728 -4.7194,-0.81728 -7.0358,0 -1.4289,0.50417 -2.7003,0.91665 -2.8253,0.91665 -0.1251,0 -0.2274,-0.90199 -0.2274,-2.00442 0,-3.55752 -2.1678,-4.36748 -6.0739,-2.26936 l -2.1259,1.14193 -1.7134,-1.62292 c -1.5075,-1.42793 -2.1569,-1.60981 -5.4043,-1.5137 -2.0301,0.0601 -3.8854,0.42382 -4.123,0.80834 -0.2377,0.38449 -0.7683,2.20152 -1.1793,4.03782 -0.4109,1.83633 -0.9245,3.16144 -1.1412,2.94472 -0.2167,-0.21677 -0.568,-2.85491 -0.7807,-5.86264 -0.2127,-3.00775 -0.626,-5.70227 -0.9185,-5.98783 -0.2925,-0.28554 -1.2718,-0.70188 -2.1762,-0.92518 -1.4496,-0.35794 -1.7438,-0.16516 -2.4834,1.62735 -0.7954,1.92734 -0.8622,1.96212 -1.2817,0.66673 -0.3585,-1.10697 -0.8676,-1.35514 -2.6794,-1.3061 -4.188,0.11332 -5.1733,0.68795 -5.9845,3.48999 -0.4131,1.4268 -1.0416,5.92656 -1.3967,9.99946 -0.7837,8.98898 -1.0208,10.13861 -2.0909,10.13861 -1.4045,0 -1.5719,-1.4896 -1.5719,-13.98168 v -12.06015 l -2.1564,0.34995 c -1.7894,0.29038 -2.4503,0.0684 -3.8834,-1.3047 l -1.7271,-1.65465 -2.8746,2.75441 c -1.8806,1.80196 -2.7497,3.08006 -2.5133,3.69612 0.5489,1.43035 -0.1349,2.61384 -1.7431,3.01752 -1.0269,0.25773 -1.6306,1.02354 -2.0785,2.63625 -0.9238,3.32658 -0.8073,3.79154 0.9503,3.79154 1.5751,0 1.5796,0.0138 0.5429,1.59556 -2.2311,3.40516 -2.4318,6.90689 -0.3959,6.90914 0.599,5.9e-4 -0.459,1.30944 -2.6464,3.27395 -2.0044,1.80008 -3.8494,3.1501 -4.1,3.00006 -0.895,-0.536 -0.4752,-7.35715 0.5643,-9.16835 0.9722,-1.69401 0.9615,-1.85917 -0.2287,-3.54178 -0.865,-1.22274 -1.3266,-3.0183 -1.5029,-5.84521 -0.1966,-3.15226 -0.5613,-4.40713 -1.6041,-5.51711 l -1.3498,-1.43678 1.1527,-2.6828 c 0.634,-1.47554 1.3255,-3.84486 1.5365,-5.26517 0.3505,-2.35841 0.1994,-2.77983 -1.742,-4.85919 -1.5871,-1.69984 -2.2567,-2.07716 -2.6424,-1.48887 -0.597,0.91084 -1.6692,12.67921 -2.5813,28.33305 -0.3492,5.99444 -0.7712,11.11939 -0.9377,11.38874 -0.1665,0.26937 -29.9297,0.48974 -66.14046,0.48974 H 70.396116 Z M 219.75707,410.02837 c 0,-0.10024 -0.4295,-0.61195 -0.9545,-1.13692 -0.6457,-0.6457 -2.0808,-0.95447 -4.4363,-0.95447 -3.1812,0 -3.6595,-0.18328 -5.5404,-2.12393 -2.4492,-2.52696 -3.016,-2.05552 -3.0296,2.52005 -0.01,2.89524 0.1198,3.17442 1.7154,3.73066 0.9486,0.33068 2.4305,0.46632 3.2932,0.30139 1.2782,-0.24434 1.7446,0.0408 2.5203,1.54096 0.5488,1.06126 1.5336,1.92597 2.3253,2.04192 1.1274,0.16516 1.6181,-0.33065 2.74,-2.76806 0.7516,-1.63306 1.3666,-3.05126 1.3666,-3.1516 z m -81.10269,-8.13524 c 1.16636,-2.25553 1.19265,-5.1273 0.0555,-6.07101 -0.72004,-0.5976 -0.98284,-0.32075 -1.51511,1.59597 -0.73708,2.65445 -0.80553,3.94208 -0.28203,5.30631 0.50387,1.31307 0.67497,1.23138 1.74161,-0.83127 z m 11.03799,-0.98191 c 3.12661,-2.56208 3.47397,-4.55039 1.07008,-6.12549 -0.86561,-0.5672 -1.81549,-1.66681 -2.11083,-2.4436 -0.4651,-1.22329 -0.95149,-1.41235 -3.63351,-1.41235 -2.61692,0 -3.06498,0.16401 -2.89273,1.05825 0.11928,0.61909 0.93614,1.18627 1.96844,1.36666 1.58783,0.27748 3.0517,1.82689 1.72602,1.82689 -0.29908,0 -1.16969,0.84657 -1.93466,1.88128 l -1.39091,1.88131 2.00323,2.06681 c 1.10176,1.13674 2.12642,2.06678 2.27704,2.06678 0.1507,0 1.46362,-0.97495 2.91783,-2.16654 z m 11.0341,-13.52076 c 0.2118,-2.14512 -0.6834,-2.5073 -2.64758,-1.07105 -1.15354,0.8435 -1.15368,0.87536 -0.009,2.14067 1.51917,1.67871 2.42058,1.31571 2.65618,-1.06962 z m 0.9508,-26.98253 c -1.57142,-15.65501 -4.19185,-28.20634 -6.85548,-32.83649 -1.97588,-3.43465 -6.0978,-7.97039 -10.38485,-11.42741 -3.37816,-2.72411 -12.65001,-8.12509 -13.12792,-7.64718 -0.48799,0.48799 11.22996,27.63398 15.9189,36.87794 2.83736,5.5937 5.06373,8.99163 8.45698,12.90724 2.53315,2.92311 4.98977,5.31475 5.45917,5.31475 0.6652,0 0.7828,-0.7032 0.5332,-3.18885 z M 96.184986,254.14072 c -0.22989,-1.76914 -0.74126,-3.98083 -1.13638,-4.91484 -0.6509,-1.53865 -0.73282,-1.2705 -0.87189,2.85406 -0.128,3.79982 0.0206,4.65026 0.90605,5.14519 1.47937,0.82792 1.57565,0.55853 1.10222,-3.08441 z m 26.368874,-2.15368 c -0.0241,-1.26653 -3.06032,-5.80806 -3.92788,-5.87518 -0.88671,-0.0686 -1.11149,5.0537 -0.26646,6.07192 1.06669,1.2853 4.21966,1.13739 4.19434,-0.19681 z m -32.495214,-4.7937 c 0.72968,-5.43304 -1.40235,-4.46563 -2.52959,1.1478 -0.38677,1.92606 0.9425,4.12456 1.67674,2.77318 0.23835,-0.4387 0.62214,-2.20313 0.85285,-3.92098 z M 325.49097,416.43468 c -0.8203,-4.16936 -1.351,-4.777 -7.9644,-9.11888 l -4.6612,-3.06014 -0.3396,-7.1185 c -0.1867,-3.91517 -0.5362,-7.61489 -0.7763,-8.22161 -0.2402,-0.60673 -1.9038,-1.93115 -3.697,-2.94315 -1.7931,-1.01198 -3.2602,-2.04376 -3.2602,-2.29283 0,-4.03826 -1.6679,-11.32455 -3.4068,-14.88345 -1.4317,-2.92998 -2.0598,-5.06703 -2.0598,-7.0085 0,-1.68858 -0.5105,-3.74474 -1.291,-5.19937 -1.0541,-1.96448 -1.3729,-3.96711 -1.7365,-10.90978 -0.3587,-6.84817 -0.8927,-10.25594 -2.7429,-17.50505 -2.0512,-8.03634 -2.6549,-9.55303 -5.6299,-14.1457 -1.8328,-2.82933 -3.2291,-5.22884 -3.1029,-5.33223 0.1262,-0.10345 1.7574,1.4789 3.6249,3.51621 l 3.3954,3.70418 2.8327,11.5406 c 1.9791,8.06246 3.0017,13.73732 3.3934,18.8294 0.395,5.13555 0.948,8.18597 1.872,10.32579 0.9185,2.12735 1.2166,3.75958 0.9952,5.44937 -0.2699,2.05993 0,2.84505 1.8115,5.37389 1.4266,1.98583 2.3059,4.05677 2.6687,6.28606 0.6763,4.15552 2.8694,9.014 5.3379,11.82555 2.4428,2.7822 2.8238,3.86561 4.032,11.46522 0.5531,3.47893 1.279,6.65475 1.6132,7.05739 0.3341,0.40261 2.4741,1.84097 4.7555,3.19637 4.4788,2.66082 4.3447,2.41515 5.2569,9.63061 0.5473,4.32867 -0.036,4.03643 -0.9208,-0.46145 z m -80.6445,-22.25134 c -0.2675,-0.69708 0.6383,-1.97976 3.0026,-4.2518 3.4872,-3.35113 5.7207,-4.44269 3.861,-1.88692 -2.3455,3.22344 -2.5462,4.1653 -1.1317,5.31071 1.736,1.40576 1.1848,1.82625 -2.3941,1.82625 -2.1808,0 -3.0551,-0.2615 -3.3378,-0.99824 z m -5.9176,-1.76615 c -0.9329,-0.48401 -2.9633,-0.89316 -4.5119,-0.90924 l -2.8157,-0.0291 3.5789,-1.84644 3.579,-1.84642 1.4102,1.72379 c 2.3576,2.88182 1.6965,4.43125 -1.2405,2.90751 z m -24.5057,-0.49667 c 1.3273,-1.00828 11.0901,-3.08101 11.965,-2.54028 1.3483,0.83331 0.5855,2.11986 -1.6201,2.73239 -1.2527,0.34791 -4.3277,0.6254 -6.8332,0.61664 -3.8773,-0.0138 -4.4001,-0.13396 -3.5117,-0.80875 z m -30.806,-2.90693 c -1.5807,-0.86458 -2.7333,-2.33384 -2.7333,-3.4843 0,-0.71281 0.1619,-0.75449 0.7289,-0.18764 1.0748,1.07486 5.5807,0.88571 7.6862,-0.32267 1.0077,-0.57835 2.0548,-0.81962 2.3269,-0.53617 0.2721,0.28348 -0.026,0.82501 -0.6619,1.2034 -0.6362,0.37842 -2.0389,1.43967 -3.1172,2.35836 -2.1761,1.85408 -2.4829,1.92436 -4.2296,0.96897 z m -10.022,-3.21087 c 0,-0.48139 0.2733,-1.04419 0.6074,-1.25063 0.334,-0.20645 0.6073,0.1874 0.6073,0.87524 0,0.68786 -0.2733,1.25066 -0.6073,1.25066 -0.3341,0 -0.6074,-0.39388 -0.6074,-0.87527 z m 23.6883,-2.10154 c 0,-0.30095 1.785,-1.9954 3.9666,-3.76548 2.2902,-1.85811 3.8385,-3.55219 3.6634,-4.0083 -0.1998,-0.52073 0.2232,-0.79003 1.2407,-0.79003 1.0559,0 2.2498,-0.80886 3.7772,-2.55909 1.2283,-1.40749 3.5162,-3.94598 5.0843,-5.6411 5.2641,-5.69059 5.1257,-7.0403 -1.8138,-17.68289 -5.1446,-7.88999 -5.3189,-8.34853 -9.5537,-25.13852 -1.8116,-7.18249 -4.7921,-18.5156 -6.6233,-25.18467 -1.8311,-6.66906 -3.1923,-12.26267 -3.0247,-12.43021 0.6895,-0.68951 2.4106,1.14252 2.98,3.17208 0.3354,1.19562 1.4292,3.0236 2.4307,4.06216 1.0014,1.03859 2.6482,3.85749 3.6597,6.26425 1.3553,3.22511 2.172,4.42406 3.1053,4.55905 0.9235,0.13351 1.6606,1.18921 2.7228,3.89958 0.801,2.04406 1.7991,3.83067 2.218,3.9703 0.4319,0.14405 1.1716,-0.72741 1.7087,-2.01291 l 0.9471,-2.26678 6.6154,9.92828 c 3.6385,5.46055 6.5314,10.01222 6.4288,10.11485 -0.1025,0.10253 -2.0358,-0.65192 -4.296,-1.67674 -2.2601,-1.02483 -4.2849,-1.68149 -4.4994,-1.45926 -0.5804,0.6012 6.5078,6.85773 8.014,7.07377 0.9779,0.14015 1.3883,0.74571 1.6647,2.45612 0.4139,2.56088 3.6985,9.19971 5.5393,11.19585 0.6684,0.72479 2.003,1.64412 2.9658,2.0429 1.2641,0.52365 2.4997,2.09948 4.4469,5.67165 3.7975,6.96678 3.903,7.6643 1.5628,10.32967 -2.4574,2.79891 -3.5205,2.84848 -1.8123,0.0844 1.7261,-2.79295 1.4244,-4.65228 -0.8531,-5.25774 -0.9735,-0.25884 -1.9657,-0.3497 -2.2048,-0.20186 -0.2391,0.14772 -2.9867,3.96148 -6.1057,8.4749 -4.8554,7.0261 -5.9359,8.24549 -7.5134,8.47916 -10.7782,1.59657 -12.2795,2.03871 -16.3236,4.80746 -4.6858,3.20805 -10.1184,5.08137 -10.1184,3.48912 z m 40.1999,-44.93864 c -0.7297,-1.29825 -1.3267,-2.63304 -1.3267,-2.9662 0,-0.70903 2.9013,-1.36872 4.0614,-0.92351 1.0977,0.42122 1.0083,1.99836 -0.1133,1.99836 -0.9432,0 -1.1235,0.55621 -0.9348,2.88514 0.1543,1.90693 -0.1606,1.72127 -1.6866,-0.99379 z m 27.5362,-1.01721 c -0.6617,-0.50015 -2.2333,-1.21806 -3.4925,-1.59533 -1.5706,-0.47054 -2.2894,-1.03714 -2.2894,-1.80457 0,-0.61526 0.3119,-1.11865 0.6931,-1.11865 0.8674,0 6.5956,4.32853 6.5956,4.98402 0,0.6332 -0.09,0.60533 -1.5068,-0.46547 z m -66.3444,-4.6704 c -1.8383,-2.0105 -2.934,-4.54149 -3.8127,-8.8073 -0.6298,-3.05776 -1.0075,-3.79624 -1.9413,-3.79624 -1.6474,0 -4.1412,-2.70512 -4.1412,-4.49206 0,-0.83065 -0.283,-1.68518 -0.629,-1.89899 -0.8278,-0.5116 -11.733,-22.36674 -12.7227,-25.49746 -0.4224,-1.33628 -1.3034,-3.01773 -1.9577,-3.73655 -1.3023,-1.43047 -2.2594,-6.28555 -1.2392,-6.28555 0.3402,0 0.7963,1.18642 1.0138,2.63651 0.3323,2.21595 1.1184,3.38823 4.9281,7.34926 2.493,2.59201 4.5328,4.90419 4.5328,5.13821 0,0.234 -0.3244,0.74986 -0.7209,1.14638 -0.5563,0.55628 0.4264,3.0461 4.3032,10.90283 2.7632,5.60005 5.7104,11.08631 6.5493,12.19168 1.3392,1.76466 6.0425,11.20896 7.5282,15.1168 0.6762,1.77856 -0.081,1.7931 -1.6907,0.0326 z m 56.0555,-2.39295 c -1.3901,-1.98464 -0.5495,-2.18045 1.3228,-0.30813 1.2816,1.28166 1.4173,1.63813 0.6234,1.63813 -0.558,0 -1.4339,-0.59851 -1.9462,-1.33 z m -21.1437,-4.88417 1.9623,-1.96237 1.9624,1.96237 1.9623,1.96237 h -3.9247 -3.9246 z m -7.9805,-7.30049 c -0.7008,-2.61511 -0.4986,-3.03511 0.9671,-2.00848 0.7424,0.52004 1.8196,0.94553 2.3937,0.94553 1.4053,0 2.0818,1.22185 1.0415,1.88082 -1.6736,1.06002 -4.0157,0.62492 -4.4023,-0.81787 z m 8.7511,-5.96719 c 1.0392,-2.03719 1.4172,-2.34618 2.1382,-1.74782 1.3803,1.14559 1.0345,2.23208 -1.0398,3.26688 -1.0535,0.52557 -2.0157,0.9556 -2.1382,0.9556 -0.1225,0 0.3454,-1.1136 1.0398,-2.47466 z m 22.7542,-17.00584 c -1.3362,-0.64262 -1.7462,-0.99826 -0.9111,-0.79034 1.7199,0.42817 4.8772,2.01118 3.9481,1.97948 -0.3341,-0.0115 -1.7007,-0.54651 -3.037,-1.18914 z m -4.5554,-1.77851 c -0.5011,-0.32383 -0.6378,-0.58879 -0.3037,-0.58879 0.3341,0 1.0174,0.26496 1.5185,0.58879 0.5011,0.32384 0.6377,0.58881 0.3037,0.58881 -0.3341,0 -1.0174,-0.26497 -1.5185,-0.58881 z M 79.032266,270.69483 c -2.05125,-1.25077 -3.22759,-2.93327 -3.22759,-4.6165 0,-0.76135 0.62065,-0.46097 2.43573,1.17886 1.35822,1.22707 3.64216,2.52321 5.16285,2.92994 1.49993,0.40117 2.72714,0.94605 2.72714,1.21083 0,0.9714 -5.19597,0.45669 -7.09813,-0.70313 z M 251.38947,244.79947 c 0.029,-0.70758 0.1732,-0.85152 0.367,-0.36697 0.1755,0.43847 0.1539,0.96234 -0.048,1.16418 -0.2019,0.20186 -0.3454,-0.1569 -0.3191,-0.79721 z m -0.4899,-5.11229 c 0,-1.5033 0.1184,-2.1183 0.2633,-1.36663 0.1447,0.75165 0.1447,1.98164 0,2.73329 -0.1448,0.75165 -0.2633,0.13671 -0.2633,-1.36666 z m -98.71509,-1.6335 c -0.85031,-0.22227 -1.05081,-0.90674 -1.00239,-3.42208 0.044,-2.29005 0.17433,-2.73176 0.47941,-1.62582 0.32137,1.16498 0.88426,1.56367 2.41787,1.71248 1.49279,0.14474 1.9097,0.42661 1.64646,1.11263 -0.19384,0.50527 -0.35252,1.30628 -0.35252,1.78008 0,0.84506 -1.07706,0.99459 -3.18883,0.44271 z m 70.60959,-3.68191 c 0,-0.29595 2.5283,-1.25281 5.6184,-2.12633 3.0901,-0.87355 6.165,-1.77678 6.8331,-2.0072 l 1.2148,-0.41892 -1.2148,0.85845 c -1.0283,0.72669 -4.4802,1.92122 -11.0849,3.8359 -0.7516,0.21791 -1.3666,0.15415 -1.3666,-0.14199 z m 26.2153,-10.7452 c -0.8847,-7.1985 -0.8433,-12.7308 0.1387,-18.56118 0.7128,-4.23136 0.7988,-4.40423 1.2089,-2.42961 0.2428,1.16925 0.1823,5.32936 -0.1342,9.24467 -0.3166,3.91532 -0.4553,9.45023 -0.3082,12.29984 0.147,2.84961 0.1621,5.1811 0.034,5.1811 -0.1287,0 -0.5511,-2.58067 -0.9388,-5.73482 z M 107.13113,216.228 c 4.07884,-4.04969 9.07703,-8.38831 11.10712,-9.64135 3.05259,-1.8842 3.59367,-2.46023 3.1281,-3.33017 -0.30962,-0.57854 -2.93686,-4.30316 -5.83831,-8.27694 -6.71644,-9.19866 -7.71573,-10.81427 -8.95026,-14.47019 -2.01974,-5.98128 -1.19714,-10.95711 2.91923,-17.65826 2.01735,-3.28409 2.20504,-3.94458 1.89832,-6.68071 -0.18717,-1.67 -0.79814,-4.81341 -1.35764,-6.98537 -1.00594,-3.90494 -1.00149,-3.98293 0.39831,-6.98577 1.19519,-2.56391 1.45377,-2.81848 1.66082,-1.63497 0.13488,0.77097 -0.21356,2.10186 -0.77418,2.95756 -1.27557,1.9468 -0.83645,4.52679 1.2321,7.23881 0.83111,1.08965 1.3601,2.37471 1.17553,2.85569 -0.21401,0.55777 0.43863,1.33131 1.80203,2.13574 1.66364,0.98159 2.81202,2.60513 5.17902,7.32198 2.82459,5.62867 4.29229,7.74548 4.29229,6.19059 0,-0.35378 0.21837,-0.64324 0.48538,-0.64324 0.54995,0 0.67366,0.34249 4.93614,13.66649 2.61752,8.18204 6.26138,16.1906 7.00626,15.39856 0.11034,-0.11745 -0.45469,-3.6281 -1.25586,-7.80141 -0.8012,-4.17332 -1.38166,-7.81303 -1.28993,-8.08822 0.0918,-0.27519 2.18715,3.61844 4.65648,8.65254 2.46936,5.03411 4.3291,9.31353 4.13279,9.50984 -0.43434,0.43436 -25.374,8.14224 -26.34682,8.14279 -0.3798,2.3e-4 -3.3864,2.51187 -6.68134,5.58143 -10.07018,9.38139 -11.293014,10.26647 -3.51558,2.54458 z m 49.57784,-23.62114 c -2.73308,-3.10498 -9.83917,-13.43531 -9.83917,-14.30351 0,-1.24295 1.58485,-0.41829 2.74148,1.4265 0.80872,1.2899 1.79244,2.01637 2.90411,2.14466 1.18223,0.13649 2.12352,0.89481 3.17176,2.55536 1.94475,3.08071 3.29434,3.78949 5.65112,2.96788 1.3005,-0.45336 2.1121,-1.33622 2.7932,-3.03858 1.5886,-3.97016 1.2259,-7.2792 -1.4998,-13.68326 -2.0671,-4.85662 -2.43918,-6.35558 -2.3299,-9.38524 0.072,-1.98301 -0.074,-3.80981 -0.32348,-4.05952 -0.2495,-0.24974 -3.22665,-0.59072 -6.61591,-0.75776 l -6.16231,-0.3037 -0.97308,-3.64439 c -0.53517,-2.00441 -2.18248,-5.83105 -3.66067,-8.50359 l -2.68759,-4.85921 -6.07092,-2.09806 c -5.43804,-1.8793 -6.78575,-2.1052 -12.92752,-2.16679 l -6.85661,-0.0688 -4.0765,-3.33494 c -2.40876,-1.97059 -4.54172,-4.31454 -5.21371,-5.72939 -1.39393,-2.93501 -2.53058,-5.20927 -3.70108,-7.4055 -0.48965,-0.91869 -1.041144,-2.62699 -1.225544,-3.79624 -0.26983,-1.7109 -0.89412,-2.48163 -3.19789,-3.94811 -3.55623,-2.26374 -4.38672,-3.87366 -4.3867,-8.5036 5e-5,-8.544747 3.76897,-17.784646 9.702664,-23.787186 5.54391,-5.6082 11.53667,-8.10974 19.37902,-8.08928 17.46773,0.0456 23.0579,4.47417 36.97488,29.291819 1.83703,3.275897 3.20485,6.091427 3.03955,6.256697 -0.4371,0.43714 -5.1974,-6.868857 -9.66331,-14.831127 -2.13079,-3.799009 -5.42492,-8.601399 -7.32029,-10.671999 -8.01569,-8.7567 -20.09474,-11.5763 -31.94202,-7.4562 -5.36535,1.86592 -7.67804,3.72777 -10.62014,8.54987 -1.870114,3.06516 -2.276214,4.30214 -2.277734,6.93813 -0.001,2.319149 0.25542,3.306639 0.926704,3.564209 0.77486,0.29736 0.67435,0.68956 -0.607394,2.37001 -2.01559,2.64259 -1.94565,3.13385 0.620494,4.35755 1.74151,0.83047 2.38265,0.88701 3.33242,0.29386 1.6087,-1.00466 6.45275,-0.92272 10.05504,0.16998 4.15858,1.261567 4.90791,1.172407 8.26788,-0.9837 3.60069,-2.31058 6.01841,-2.17698 12.0991,0.66855 2.19017,1.02489 5.50511,2.182917 7.36655,2.573357 3.16502,0.66388 3.57589,0.61058 6.33696,-0.82194 l 2.95251,-1.531827 1.95244,1.265877 c 1.07382,0.69623 1.956,1.55528 1.96038,1.909 0.005,0.35371 -0.9487,2.2318 -2.11792,4.17353 -1.16925,1.94172 -2.12588,4.28382 -2.12588,5.20464 0,0.92084 -0.41,2.01451 -0.91109,2.43038 -0.75638,0.62774 -0.9111,0.55695 -0.9111,-0.41693 0,-0.64519 -0.37929,-1.69178 -0.84285,-2.32576 -0.71504,-0.97789 -0.71651,-1.34553 -0.009,-2.42433 0.71112,-1.08534 0.70178,-1.45926 -0.0638,-2.55214 -1.91144,-2.72898 -4.4009,-0.0521 -6.27977,6.75286 -0.32834,1.18911 -1.13252,2.84288 -1.7871,3.67503 -1.10359,1.40299 -1.13144,1.76553 -0.38312,4.9848 0.63809,2.74491 1.37714,4.04188 3.53016,6.19492 2.39742,2.39742 2.84366,2.62309 3.73095,1.88669 0.86852,-0.72082 1.09114,-0.68762 1.61036,0.24019 0.57477,1.02705 0.6406,1.02572 1.42964,-0.0287 0.789,-1.05432 0.87309,-1.04095 1.82302,0.29029 0.79016,1.10733 1.17273,1.2488 1.85224,0.68487 0.471,-0.39091 0.86054,-1.15559 0.86566,-1.69931 0.028,-2.97783 1.12112,-2.41811 6.03206,3.08875 2.76675,3.1026 5.71835,6.16824 6.55905,6.81256 l 1.5285,1.1715 2.8057,-2.99369 c 1.5431,-1.64653 3.5726,-3.95034 4.5099,-5.11958 l 1.7043,-2.1259 -1.7707,2.73328 c -3.8757,5.98254 -4.9052,9.92593 -2.8021,10.73295 1.4062,0.53959 2.7938,-1.18305 6.3464,-7.87822 3.0302,-5.7109 3.2045,-5.91097 4.2915,-4.92722 0.9509,0.86063 1.2886,0.89618 2.1017,0.22135 1.3677,-1.13504 2.0699,0.15989 2.0817,3.83829 0.01,2.75065 3.4563,12.98317 5.0143,14.8829 1.1064,1.3492 -0.093,1.61136 -1.5149,0.33116 -2.5567,-2.30154 -2.7996,-2.2372 -4.307,1.1408 -0.7905,1.77139 -2.0322,3.7494 -2.7594,4.39556 -0.7271,0.64615 -1.9282,2.14948 -2.6691,3.3407 -1.2529,2.01455 -1.3613,3.01697 -1.5512,14.3485 l -0.2042,12.18266 -9.9744,4.97641 c -5.4859,2.73698 -10.08562,4.97635 -10.22165,4.97635 -0.13602,0 -1.33273,-1.23306 -2.65929,-2.74012 z m 12.3307,-35.68967 c 1.616,-0.79804 3.3407,-2.33003 3.3407,-2.96754 0,-1.01407 -2.1832,-0.469 -5.3147,1.32693 -1.7539,1.00583 -3.1888,2.08977 -3.1888,2.40873 0,0.64973 3.2798,0.16171 5.1628,-0.76812 z m -0.3089,-8.4708 c 2.0312,-0.12868 2.7795,-0.44441 2.9296,-1.23583 0.1721,-0.90702 -0.2841,-1.06295 -3.1095,-1.06295 -2.7463,0 -3.4737,-0.23311 -4.2644,-1.36666 -0.9063,-1.29929 -0.9547,-1.15707 -0.9822,2.88514 l -0.029,4.2518 1.3637,-1.6493 c 1.0522,-1.2727 1.9865,-1.68879 4.0916,-1.8222 z m -17.02204,-13.17427 c -0.0161,-0.73621 -0.307,-0.62455 -1.21477,0.46512 -1.55808,1.87028 -1.54361,3.0183 0.0206,1.60306 0.66815,-0.60466 1.2057,-1.53534 1.19459,-2.06818 z m -12.42608,-0.68174 c 0.23649,-0.74515 -0.0473,-1.90465 -0.71832,-2.93627 -0.61003,-0.93768 -1.77283,-2.74361 -2.58399,-4.01321 -1.34206,-2.10051 -1.51596,-2.19719 -1.93147,-1.07398 -0.63996,1.72998 -0.81021,1.78638 -6.91147,2.2903 -4.99898,0.41287 -5.38967,0.3677 -4.63935,-0.53635 1.10078,-1.32638 0.43531,-2.81869 -1.2716,-2.85152 -0.76213,-0.0138 -2.41068,-0.39245 -3.66342,-0.83953 -3.08514,-1.10102 -2.94022,-0.13946 0.45554,3.02294 2.87734,2.67952 3.32262,3.72921 1.82567,4.30366 -1.88004,0.72144 -0.0993,1.43577 3.57922,1.43577 3.50653,0 3.87214,-0.12593 4.52541,-1.55975 l 0.71066,-1.55978 3.48675,1.95113 c 1.91769,1.07314 3.88696,2.32168 4.37613,2.77458 1.26678,1.17282 2.30732,1.01902 2.76024,-0.40799 z m -7.59771,-17.33652 c 0,-0.63312 -0.44306,-0.88815 -1.31906,-0.75926 -1.94457,0.28613 -2.15283,1.71259 -0.25003,1.71259 1.02072,0 1.56909,-0.33316 1.56909,-0.95333 z m -1.21817,-8.0058 c -0.007,-1.89977 -1.30867,-5.89576 -2.277,-6.98511 -1.68752,-1.89842 -5.53406,-1.38918 -9.62148,1.27382 -8.30688,5.41201 -7.3702,6.45789 5.97978,6.67702 5.27334,0.0865 5.92172,-0.0183 5.9187,-0.96573 z m 114.6147,71.90676 c -1.6056,-4.0538 -3.9773,-11.34507 -5.2703,-16.20286 -1.2931,-4.85778 -3.1914,-11.25778 -4.2185,-14.22224 -1.0272,-2.96444 -1.7698,-5.48768 -1.6504,-5.60717 0.435,-0.43496 3.9444,8.19546 6.3447,15.60264 3.0693,9.47213 8.2012,27.35854 7.9221,27.61146 -0.1145,0.10368 -1.5219,-3.12806 -3.1276,-7.18183 z m -19.8578,-5.28456 c 0,-3.36537 -2.7403,-5.3593 -5.4841,-3.99046 -1.7125,0.8543 -1.7662,0.84161 -1.1679,-0.27634 0.345,-0.64451 1.1608,-3.66909 1.8131,-6.72132 1.1552,-5.40581 3.3359,-9.62355 4.9756,-9.62355 0.3753,0 0.126,0.61501 -0.5541,1.36666 -2.4795,2.7404 -3.3449,7.6058 -1.6073,9.03662 0.5568,0.45849 1.7868,1.89963 2.7333,3.20252 1.8397,2.53241 2.3229,6.20084 0.9921,7.53173 -1.0798,1.07977 -1.7007,0.88777 -1.7007,-0.52586 z m -87.10323,-13.54565 c -1.20106,-2.53102 -2.18375,-4.91553 -2.18375,-5.29892 0,-0.3834 0.98604,-2.32026 2.19116,-4.30415 2.06472,-3.39894 2.25424,-3.54997 3.2845,-2.61758 0.60134,0.54419 1.69415,2.38609 2.42849,4.09306 l 1.33511,3.10361 -2.01593,4.29373 c -1.10878,2.36154 -2.20492,4.52736 -2.43589,4.81289 -0.23097,0.28557 -1.40262,-1.55165 -2.60369,-4.08264 z m 46.45713,0.42431 c -0.057,-2.2374 0.4573,-3.84592 1.2304,-3.84592 0.7813,0 0.6199,1.83696 -0.3467,3.94809 l -0.8344,1.82222 -0.049,-1.92439 z m -59.07787,0.24776 c -1.03387,-0.83372 -1.92269,-2.88982 -1.23628,-2.85979 0.58127,0.0255 2.75263,3.03011 2.42587,3.35687 -0.14084,0.14084 -0.67604,-0.083 -1.18959,-0.49708 z m 103.66967,-28.83169 c -1.8934,-5.04052 -6.2847,-13.38276 -8.1825,-15.54424 -1.0056,-1.1453 -3.1514,-2.65151 -4.7684,-3.34715 -5.1146,-2.20026 -13.483,-4.3552 -16.9129,-4.3552 -2.051,0 -3.1659,-0.23086 -2.9332,-0.60739 0.5834,-0.94392 8.2174,-0.71527 11.8858,0.356 7.0515,2.05924 14.1351,7.26737 17.2775,12.7031 1.4791,2.55849 5.3456,13.07043 4.9523,13.46378 -0.1264,0.12639 -0.7198,-1.07463 -1.3186,-2.6689 z m -52.1942,-9.62745 c -1.1755,-1.1756 -2.3531,-3.30792 -2.0141,-3.647 0.4257,-0.42562 6.5302,1.58395 6.5302,2.14971 0,2.42867 -2.6921,3.32123 -4.5161,1.49729 z m -27.67581,-7.84884 c 0,-0.50111 0.40143,-0.91109 0.89204,-0.91109 0.54336,0 0.75536,0.3561 0.5424,0.91109 -0.19222,0.5011 -0.59369,0.9111 -0.89203,0.9111 -0.29832,0 -0.54241,-0.41 -0.54241,-0.9111 z m 16.09591,-6.69892 c -1.3362,-0.48142 -2.4883,-0.8794 -2.56,-0.88442 -0.072,-0.005 -0.4582,-0.62416 -0.8587,-1.37581 -0.6327,-1.18739 -0.6092,-1.2685 0.1794,-0.61845 0.4992,0.41152 2.3889,1.42077 4.1993,2.24277 3.5819,1.6263 2.9503,2.04468 -0.96,0.63591 z"
       id="path861" />
  </g>
</svg>
