<?xml version="1.0" encoding="UTF-8" standalone="no"?>
<svg
   width="532pt"
   height="532pt"
   version="1.1"
   viewBox="0 0 532 532"
   id="svg84"
   sodipodi:docname="mikenakis-allocation.svg"
   inkscape:version="1.1.1 (3bf5ae0d25, 2021-09-20)"
   xmlns:inkscape="http://www.inkscape.org/namespaces/inkscape"
   xmlns:sodipodi="http://sodipodi.sourceforge.net/DTD/sodipodi-0.dtd"
   xmlns="http://www.w3.org/2000/svg"
   xmlns:svg="http://www.w3.org/2000/svg">
  <sodipodi:namedview
     id="namedview86"
     pagecolor="#505050"
     bordercolor="#ffffff"
     borderopacity="1"
     inkscape:pageshadow="0"
     inkscape:pageopacity="0"
     inkscape:pagecheckerboard="1"
     inkscape:document-units="pt"
     showgrid="false"
     inkscape:zoom="3.48"
     inkscape:cx="336.06322"
     inkscape:cy="315.08621"
     inkscape:window-width="2560"
     inkscape:window-height="1361"
     inkscape:window-x="-9"
     inkscape:window-y="-9"
     inkscape:window-maximized="1"
     inkscape:current-layer="svg84"
     inkscape:snap-global="false"
     fit-margin-top="10"
     lock-margins="true"
     fit-margin-left="10"
     fit-margin-right="10"
     fit-margin-bottom="10" />
  <defs
     id="defs38">
    <symbol
       id="l"
       overflow="visible">
      <path
         d="m 29.312,-1.75 c -1.5117,0.78125 -3.0898,1.3711 -4.7344,1.7656 -1.6367,0.40625 -3.3398,0.60938 -5.1094,0.60938 -5.3125,0 -9.5273,-1.4844 -12.641,-4.4531 -3.1055,-2.9688 -4.6562,-7 -4.6562,-12.094 0,-5.094 1.5508,-9.125 4.6562,-12.094 3.1133,-2.9688 7.3281,-4.4531 12.641,-4.4531 1.7695,0 3.4727,0.19922 5.1094,0.59375 1.6445,0.39844 3.2227,0.99219 4.7344,1.7812 v 6.5938 c -1.5312,-1.0391 -3.0391,-1.8008 -4.5156,-2.2812 -1.4805,-0.48828 -3.0391,-0.73438 -4.6719,-0.73438 -2.9375,0 -5.2461,0.94531 -6.9219,2.8281 -1.6797,1.875 -2.5156,4.4648 -2.5156,7.7656 0,3.293 0.83594,5.8828 2.5156,7.7656 1.6758,1.875 3.9844,2.8125 6.9219,2.8125 1.6328,0 3.1914,-0.23828 4.6719,-0.71875 1.4766,-0.48828 2.9844,-1.2539 4.5156,-2.2969 z"
         id="path2" />
    </symbol>
    <symbol
       id="d"
       overflow="visible">
      <path
         d="m 21.453,-17.406 c -0.67969,-0.3125 -1.3516,-0.53906 -2.0156,-0.6875 -0.65625,-0.15625 -1.3203,-0.23438 -1.9844,-0.23438 -1.9688,0 -3.4844,0.63281 -4.5469,1.8906 -1.0547,1.2617 -1.5781,3.0703 -1.5781,5.4219 V 6.2e-4 H 3.6718 v -23.922 h 7.6562 v 3.9219 c 0.97656,-1.5625 2.1016,-2.7031 3.375,-3.4219 1.2812,-0.71875 2.8125,-1.0781 4.5938,-1.0781 0.25,0 0.52344,0.01172 0.82812,0.03125 0.30078,0.02344 0.73438,0.07031 1.2969,0.14062 z"
         id="path5" />
    </symbol>
    <symbol
       id="c"
       overflow="visible">
      <path
         d="m 27.562,-12.031 v 2.1875 H 9.671 c 0.1875,1.793 0.83203,3.1367 1.9375,4.0312 1.1133,0.89844 2.6719,1.3438 4.6719,1.3438 1.6016,0 3.25,-0.23438 4.9375,-0.70312 1.6875,-0.47656 3.4219,-1.2031 5.2031,-2.1719 v 5.8906 c -1.8047,0.6875 -3.6094,1.2031 -5.4219,1.5469 -1.8125,0.35156 -3.6211,0.53125 -5.4219,0.53125 -4.3359,0 -7.7031,-1.0977 -10.109,-3.2969 -2.3984,-2.207 -3.5938,-5.2969 -3.5938,-9.2656 0,-3.9062 1.1758,-6.9727 3.5312,-9.2031 2.3633,-2.2383 5.6094,-3.3594 9.7344,-3.3594 3.7578,0 6.7695,1.1367 9.0312,3.4062 2.2578,2.2617 3.3906,5.2812 3.3906,9.0625 z m -7.8594,-2.5312 c 0,-1.457 -0.42969,-2.6289 -1.2812,-3.5156 -0.84375,-0.89453 -1.9492,-1.3438 -3.3125,-1.3438 -1.4922,0 -2.6992,0.41797 -3.625,1.25 -0.91797,0.83594 -1.4922,2.0391 -1.7188,3.6094 z"
         id="path8" />
    </symbol>
    <symbol
       id="a"
       overflow="visible">
      <path
         d="m 14.391,-10.766 c -1.5938,0 -2.793,0.27344 -3.5938,0.8125 -0.80469,0.54297 -1.2031,1.3398 -1.2031,2.3906 0,0.96875 0.32031,1.7305 0.96875,2.2812 0.64453,0.54297 1.5469,0.8125 2.7031,0.8125 1.4375,0 2.6445,-0.51562 3.625,-1.5469 0.98828,-1.0312 1.4844,-2.3203 1.4844,-3.875 v -0.875 z m 11.688,-2.8906 V -6e-4 h -7.7031 v -3.5469 c -1.0312,1.4492 -2.1875,2.5078 -3.4688,3.1719 -1.2813,0.6641 -2.8398,1 -4.6719,1 -2.4805,0 -4.4961,-0.72266 -6.0469,-2.1719 -1.543,-1.4453 -2.3125,-3.3203 -2.3125,-5.625 0,-2.8125 0.96094,-4.8672 2.8906,-6.1719 1.9375,-1.3125 4.9688,-1.9688 9.0938,-1.9688 h 4.5156 v -0.60938 c 0,-1.207 -0.48047,-2.0938 -1.4375,-2.6562 -0.94922,-0.5625 -2.4375,-0.84375 -4.4688,-0.84375 -1.6367,0 -3.1562,0.16797 -4.5625,0.5 -1.4062,0.32422 -2.7188,0.8125 -3.9375,1.4688 v -5.8281 c 1.6445,-0.40625 3.2891,-0.70703 4.9375,-0.90625 1.6562,-0.20703 3.3047,-0.3125 4.9531,-0.3125 4.3203,0 7.4375,0.85547 9.3438,2.5625 1.9141,1.6992 2.875,4.4609 2.875,8.2812 z"
         id="path11" />
    </symbol>
    <symbol
       id="h"
       overflow="visible">
      <path
         d="m 12.031,-30.719 v 6.7969 h 7.875 v 5.4688 h -7.875 v 10.141 c 0,1.1172 0.21875,1.8711 0.65625,2.2656 0.4375,0.38672 1.3125,0.57812 2.625,0.57812 h 3.9375 v 5.4688 h -6.5625 c -3.0234,0 -5.1641,-0.62891 -6.4219,-1.8906 -1.2617,-1.2578 -1.8906,-3.3984 -1.8906,-6.4219 v -10.141 h -3.7969 v -5.4688 h 3.7969 v -6.7969 z"
         id="path14" />
    </symbol>
    <symbol
       id="g"
       overflow="visible">
      <path
         d="m 19.953,-20.422 v -12.812 h 7.6875 V 0 H 19.953 v -3.4531 c -1.0547,1.4062 -2.2148,2.4375 -3.4844,3.0938 -1.2734,0.65625 -2.7422,0.98438 -4.4062,0.98438 -2.9492,0 -5.3711,-1.1719 -7.2656,-3.5156 -1.8867,-2.3438 -2.8281,-5.3594 -2.8281,-9.0469 0,-3.6875 0.94141,-6.7031 2.8281,-9.0469 1.8945,-2.3438 4.3164,-3.5156 7.2656,-3.5156 1.6562,0 3.1172,0.33594 4.3906,1 1.2812,0.65625 2.4453,1.6836 3.5,3.0781 z m -5.0469,15.484 c 1.6445,0 2.8945,-0.59766 3.75,-1.7969 0.86328,-1.1953 1.2969,-2.9297 1.2969,-5.2031 0,-2.2812 -0.43359,-4.0195 -1.2969,-5.2188 -0.85547,-1.1953 -2.1055,-1.7969 -3.75,-1.7969 -1.625,0 -2.8711,0.60156 -3.7344,1.7969 -0.85547,1.1992 -1.2812,2.9375 -1.2812,5.2188 0,2.2734 0.42578,4.0078 1.2812,5.2031 0.86328,1.1992 2.1094,1.7969 3.7344,1.7969 z"
         id="path17" />
    </symbol>
    <symbol
       id="f"
       overflow="visible">
      <path
         d="m 16.406,-4.9375 c 1.6328,0 2.8828,-0.59766 3.75,-1.7969 0.86328,-1.1953 1.2969,-2.9297 1.2969,-5.2031 0,-2.2812 -0.43359,-4.0195 -1.2969,-5.2188 -0.86719,-1.1953 -2.1172,-1.7969 -3.75,-1.7969 -1.6367,0 -2.8906,0.60547 -3.7656,1.8125 -0.875,1.1992 -1.3125,2.9336 -1.3125,5.2031 0,2.2617 0.4375,3.9961 1.3125,5.2031 0.875,1.1992 2.1289,1.7969 3.7656,1.7969 z m -5.0781,-15.484 c 1.0508,-1.3945 2.2188,-2.4219 3.5,-3.0781 1.2812,-0.66406 2.7539,-1 4.4219,-1 2.9453,0 5.3672,1.1719 7.2656,3.5156 1.8945,2.3438 2.8438,5.3594 2.8438,9.0469 0,3.6875 -0.94922,6.7031 -2.8438,9.0469 -1.8984,2.3438 -4.3203,3.5156 -7.2656,3.5156 -1.668,0 -3.1406,-0.33594 -4.4219,-1 -1.2813,-0.66406 -2.4492,-1.6914 -3.5,-3.0781 V 4e-4 H 3.6717 v -33.234 h 7.6562 z"
         id="path20" />
    </symbol>
    <symbol
       id="e"
       overflow="visible">
      <path
         d="m 0.53125,-23.922 h 7.6562 l 6.4219,16.234 5.4688,-16.234 h 7.6562 l -10.062,26.188 c -1.0117,2.6641 -2.1953,4.5234 -3.5469,5.5781 -1.3438,1.0625 -3.1211,1.5938 -5.3281,1.5938 H 4.37545 V 4.4223 h 2.3906 c 1.3008,0 2.2422,-0.21094 2.8281,-0.625 0.59375,-0.40625 1.0547,-1.1484 1.3906,-2.2188 l 0.20312,-0.65625 z"
         id="path23" />
    </symbol>
    <symbol
       id="b"
       overflow="visible">
      <path
         d="m 3.6719,-23.922 h 7.6562 V 0 H 3.6719 Z m 0,-9.3125 h 7.6562 v 6.2344 H 3.6719 Z"
         id="path26" />
    </symbol>
    <symbol
       id="k"
       overflow="visible">
      <path
         d="M 27.734,-14.562 V 0 h -7.7031 v -11.109 c 0,-2.0938 -0.04687,-3.5312 -0.14062,-4.3125 -0.08594,-0.78125 -0.24219,-1.3594 -0.46875,-1.7344 -0.30469,-0.5 -0.71094,-0.88281 -1.2188,-1.1562 -0.51172,-0.28125 -1.0938,-0.42188 -1.75,-0.42188 -1.5938,0 -2.8516,0.61719 -3.7656,1.8438 -0.90625,1.2305 -1.3594,2.9375 -1.3594,5.125 v 11.766 h -7.6562 v -33.234 h 7.6562 v 12.812 c 1.1445,-1.3945 2.3633,-2.4219 3.6562,-3.0781 1.3008,-0.66406 2.7383,-1 4.3125,-1 2.7578,0 4.8516,0.85156 6.2812,2.5469 1.4375,1.6875 2.1562,4.1523 2.1562,7.3906 z"
         id="path29" />
    </symbol>
    <symbol
       id="j"
       overflow="visible">
      <path
         d="M 27.734,-14.562 V 0 h -7.7031 v -11.156 c 0,-2.0625 -0.04687,-3.4844 -0.14062,-4.2656 -0.08594,-0.78125 -0.24219,-1.3594 -0.46875,-1.7344 -0.30469,-0.5 -0.71094,-0.88281 -1.2188,-1.1562 -0.51172,-0.28125 -1.0938,-0.42188 -1.75,-0.42188 -1.5938,0 -2.8516,0.61719 -3.7656,1.8438 -0.90625,1.2305 -1.3594,2.9375 -1.3594,5.125 v 11.766 h -7.6562 v -23.922 h 7.6562 v 3.5 c 1.1445,-1.3945 2.3633,-2.4219 3.6562,-3.0781 1.3008,-0.66406 2.7383,-1 4.3125,-1 2.7578,0 4.8516,0.85156 6.2812,2.5469 1.4375,1.6875 2.1562,4.1523 2.1562,7.3906 z"
         id="path32" />
    </symbol>
    <symbol
       id="i"
       overflow="visible">
      <path
         d="m 3.6719,-33.234 h 7.6562 V 0 H 3.6719 Z"
         id="path35" />
    </symbol>
  </defs>
  <circle
     style="fill:#d0d0d0;fill-opacity:1;stroke:none;stroke-width:10.01;paint-order:markers stroke fill;stop-color:#000000"
     id="path7504"
     cx="266"
     cy="266"
     r="256" />
  <g
     id="g7480"
     transform="matrix(0.4175401,0,0,0.41858761,121.45863,149.58537)">
    <g
       id="g7466">
      <path
         d="m 617.75,204.75 h 7.875 L 625.60839,140 H 74.391614 L 74.375,205.625 h 7.875 c 7.875,0 16.006466,6.00431 16.127155,14.13578 C 98.403017,228.20043 91.875,235.375 83.125,235.375 h -8.75 v 131.42905 c 16.506442,-0.1222 24.738388,6.95516 24.582665,19.83299 -0.09208,7.61499 0.110941,22.10209 -0.277303,33.35796 H 270.54506 v -8.79095 c 0,-8.41379 6.86638,-14.92888 14.62069,-15.15733 8.00862,0.0819 15.12931,4.10995 15.12931,15.19828 v 8.75 H 604.6456 c -0.10569,-16.40442 0.28863,-24.00791 0.12341,-36.54296 -0.16213,-12.30048 6.79065,-17.71175 20.85599,-17.93516 V 234.495 h -8.75 c -8.75,0 -15.38578,-6.90517 -15.30603,-15.56034 C 601.64871,210.64155 610.75,204.745 617.75,204.745 Z m -161,136.5 V 336 h -20.125 v -17.5 h 20.125 v -8.75 h -20.125 v -17.5 H 456.75 V 283.5 H 436.625 V 266 h 20.125 v -8.75 h -20.125 v -17.5 H 456.75 V 231 h -20.125 v -17.5 h 20.125 v -8.75 h -20.125 v -17.5 h 20.125 v -3.5 h 87.5 V 189 h 20.125 v 17.5 H 544.25 v 8.75 h 20.125 v 17.5 H 544.25 v 8.75 h 20.125 V 259 H 544.25 v 8.75 h 20.125 v 17.5 H 544.25 V 294 h 20.125 v 17.5 H 544.25 v 8.75 h 20.125 v 17.5 H 544.25 v 3.5 z m 111.08816,34.55172 v 34.85776 h -17.5 v -34.85776 z m -26.25,0 v 34.85776 h -17.5 v -34.85776 z m -25.375,0 v 34.85776 h -17.5 v -34.85776 z m -26.25,0 v 34.85776 h -17.5 v -34.85776 z m -25.375,0 v 34.85776 h -17.5 v -34.85776 z m 112,0 h 17.5 v 34.85776 h -17.5 z M 243.255,336 v 5.25 h -87.5 V 336 H 135.63 v -17.5 h 20.125 v -8.75 H 135.63 v -17.5 h 20.125 V 283.5 H 135.63 V 266 h 20.125 v -8.75 H 135.63 v -17.5 h 20.125 V 231 H 135.63 v -17.5 h 20.125 v -8.75 H 135.63 v -17.5 h 20.125 v -3.5 h 87.5 V 189 h 20.125 v 17.5 h -20.125 v 8.75 h 20.125 v 17.5 h -20.125 v 8.75 H 263.38 V 259 h -20.125 v 8.75 h 20.125 v 17.5 H 243.255 V 294 h 20.125 v 17.5 h -20.125 v 8.75 h 20.125 v 17.5 h -20.125 z m 11.91143,39.80172 v 34.85776 h -17.5 v -34.85776 z m -26.25,0 v 34.85776 h -17.5 v -34.85776 z m -25.375,0 v 34.85776 h -17.5 v -34.85776 z m -26.25,0 v 34.85776 h -17.5 v -34.85776 z m -25.375,0 v 34.85776 h -17.5 v -34.85776 z m -43.74999,0 h 17.49999 v 34.85776 h -17.49999 z m 286.55103,34.85776 v -34.85776 h 17.5 v 34.85776 z M 287,336 v -17.5 h 20.125 v -8.75 H 287 v -17.5 h 20.125 V 283.5 H 287 V 266 h 20.125 v -8.75 H 287 v -17.5 h 20.125 V 231 H 287 v -17.5 h 20.125 v -8.75 H 287 v -17.5 h 20.125 v -3.5 h 87.5 V 189 h 20.125 v 17.5 h -20.125 v 8.75 h 20.125 v 17.5 h -20.125 v 8.75 H 414.75 V 259 h -20.125 v 8.75 h 20.125 v 17.5 H 394.625 V 294 h 20.125 v 17.5 h -20.125 v 8.75 h 20.125 v 17.5 h -20.125 v 3.5 h -87.5 V 336 Z m 151.33316,39.80172 v 34.85776 h -17.5 v -34.85776 z m -70.64586,34.73061 v -34.85776 h 17.49999 v 34.85776 z m -27.58621,0.43104 v -34.85776 h 17.5 v 34.85776 z m -27.15517,-10e-6 v -34.85775 h 17.49999 v 34.85775 z"
         id="path40"
         sodipodi:nodetypes="cccccscsccsccscsccsccscccccccccccccccccccccccccccccccccccccccccccccccccccccccccccccccccccccccccccccccccccccccccccccccccccccccccccccccccccccccccccccccccccccccccccccccccccccccccccccccccccccccccccccccccccccccccccccccccccccccccccccccccccccccccccccccccccccccccccccccccccccccc"
         style="fill:#000000;fill-opacity:1" />
      <path
         d="m 317.12,193.75 h 67.5 v 137.5 h -67.5 z"
         id="path46"
         sodipodi:nodetypes="ccccc" />
      <path
         d="m 467.5431,194.18104 h 67.5 v 137.5 h -67.5 z"
         id="path5831"
         style="stroke-width:0.75"
         sodipodi:nodetypes="ccccc" />
      <path
         d="m 164.9569,194.18103 h 67.5 v 137.5 h -67.5 z"
         id="path5831-9"
         style="stroke-width:0.75"
         sodipodi:nodetypes="ccccc" />
    </g>
    <g
       id="g1035"
       transform="matrix(2.1875451,0,0,2.1875451,-413.34312,-337.79739)">
      <path
         d="m 499.96,281.87 c 0,18.668 -3.1094,36.09 -9.332,52.266 l 90.844,37.957 c 11.199,-28.621 16.801,-59.109 16.801,-90.844 -0.004,-135.64 -108.89,-246.4 -243.91,-250.14 v 98.312 c 80.891,3.7344 145.6,70.312 145.6,152.45 z"
         id="path67" />
      <path
         d="m 346.89,434.31 c -11.199,0 -22.398,-1.2461 -32.977,-3.7344 l -25.512,94.578 c 19.289,4.3555 38.578,6.8438 58.488,6.8438 98.934,0 187.91,-57.246 228.36,-146.84 l -90.844,-37.957 c -24.27,51.645 -76.535,87.113 -137.51,87.113 z"
         id="path69" />
      <path
         d="m 206.27,340.98 -92.086,34.223 c 28.621,70.934 87.734,125.07 160.54,146.84 l 25.508,-94.578 C 257.92,413.777 223.076,382.043 206.275,340.977 Z"
         id="path71" />
      <path
         d="m 205.64,224 -88.977,-41.688 c -13.688,31.734 -20.535,64.711 -20.535,99.555 0,27.379 4.3555,54.133 13.066,79.645 l 92.09,-34.223 c -4.3555,-14.312 -6.8438,-29.867 -6.8438,-46.043 0,-19.914 3.7344,-39.824 11.199,-57.246 z"
         id="path73" />
      <path
         d="M 262.27,154.31 211.872,69.689 c -38.578,24.266 -69.066,58.488 -89.602,98.934 l 88.977,41.688 c 12.445,-22.402 29.867,-41.691 51.023,-56 z"
         id="path75" />
      <path
         d="m 340.04,31.109 c -40.445,1.2461 -80.266,11.82 -115.73,31.734 l 50.398,84.621 c 19.289,-10.578 41.688,-16.801 64.711,-18.043 l 0.004,-98.312 z"
         id="path77" />
    </g>
  </g>
</svg>
